M48
;GenerationSoftware,Autodesk,EAGLE,9.6.2*%
;CreationDate,2023-10-29T20:55:16Z*%
FMAT,2
ICI,OFF
METRIC,TZ,000.000
T4C0.300
T3C0.760
T2C1.100
T1C3.175
%
G90
M71
T1
X10870Y52570
X43890Y500
X59130Y51300
T2
X10870Y20820
X66750Y18255
X64210Y15715
X66750Y15715
X64210Y13175
X66750Y13175
X64210Y10635
X66750Y10635
X64210Y8095
X66750Y8095
X64210Y5555
X66750Y5555
X5790Y10660
X64210Y3015
X10870Y15740
X10870Y13200
X10870Y10660
X10870Y8120
X10870Y5580
X10870Y3040
X10870Y38600
X10870Y36060
X10870Y33520
X10870Y30980
X10870Y28440
X10870Y25900
X10870Y23360
X66750Y3015
X3250Y48760
X5790Y48760
X3250Y46220
X5790Y46220
X3250Y43680
X5790Y43680
X3250Y41140
X5790Y41140
X3250Y38600
X5790Y38600
X3250Y36060
X5790Y36060
X3250Y33520
X5790Y33520
X3250Y30980
X5790Y30980
X3250Y28440
X5790Y28440
X3250Y25900
X5790Y25900
X3250Y23360
X5790Y23360
X3250Y20820
X5790Y20820
X3250Y18280
X5790Y18280
X3250Y15740
X5790Y15740
X3250Y13200
X5790Y13200
X3250Y10660
X64210Y20795
X3250Y8120
X5790Y8120
X3250Y5580
X5790Y5580
X3250Y3040
X5790Y3040
X59130Y24884
X59130Y27424
X59130Y29964
X59130Y32504
X59130Y35044
X59130Y37584
X59130Y40124
X59130Y42664
X59130Y45204
X59130Y47744
X59130Y8120
X59130Y10660
X59130Y13200
X59130Y15740
X59130Y18280
X59130Y20820
X59130Y3040
X59130Y5580
X64210Y48735
X66750Y48735
X64210Y46195
X66750Y46195
X64210Y43655
X66750Y43655
X64210Y41115
X66750Y41115
X64210Y38575
X66750Y38575
X64210Y36035
X66750Y36035
X64210Y33495
X66750Y33495
X64210Y30955
X66750Y30955
X64210Y28415
X66750Y28415
X64210Y25875
X66750Y25875
X64210Y23335
X66750Y23335
X66750Y20795
X64210Y18255
T3
X37465Y17880
X36195Y17880
X34925Y17880
X33655Y17880
X31115Y17880
X32385Y17880
T4
X16764Y28956
X20066Y22606
X37846Y3556
X55626Y22352
X37846Y40132
X37338Y16002
X34798Y16002
X17018Y31242
M30