G04 EAGLE Gerber RS-274X export*
G75*
%MOMM*%
%FSLAX34Y34*%
%LPD*%
%INBottom Copper*%
%IPPOS*%
%AMOC8*
5,1,8,0,0,1.08239X$1,22.5*%
G01*
%ADD10C,1.140000*%
%ADD11R,1.850000X1.850000*%
%ADD12C,1.850000*%
%ADD13C,0.500000*%

G36*
X696875Y-17624D02*
X696875Y-17624D01*
X696895Y-17621D01*
X696914Y-17623D01*
X697016Y-17601D01*
X697118Y-17584D01*
X697135Y-17575D01*
X697155Y-17571D01*
X697244Y-17518D01*
X697335Y-17469D01*
X697349Y-17455D01*
X697366Y-17445D01*
X697433Y-17366D01*
X697504Y-17291D01*
X697513Y-17273D01*
X697526Y-17258D01*
X697564Y-17161D01*
X697608Y-17068D01*
X697610Y-17048D01*
X697618Y-17030D01*
X697636Y-16863D01*
X697636Y566876D01*
X697633Y566896D01*
X697635Y566916D01*
X697613Y567017D01*
X697596Y567119D01*
X697587Y567137D01*
X697583Y567156D01*
X697530Y567245D01*
X697481Y567337D01*
X697467Y567350D01*
X697457Y567367D01*
X697378Y567435D01*
X697303Y567506D01*
X697285Y567514D01*
X697270Y567527D01*
X697173Y567566D01*
X697080Y567610D01*
X697060Y567612D01*
X697042Y567619D01*
X696875Y567638D01*
X3127Y567638D01*
X3107Y567634D01*
X3088Y567637D01*
X2986Y567615D01*
X2884Y567598D01*
X2867Y567589D01*
X2847Y567584D01*
X2758Y567531D01*
X2667Y567483D01*
X2653Y567468D01*
X2636Y567458D01*
X2569Y567379D01*
X2497Y567304D01*
X2489Y567286D01*
X2476Y567271D01*
X2437Y567175D01*
X2394Y567081D01*
X2392Y567062D01*
X2384Y567043D01*
X2366Y566876D01*
X2366Y-16888D01*
X2369Y-16908D01*
X2367Y-16928D01*
X2389Y-17029D01*
X2405Y-17131D01*
X2415Y-17148D01*
X2419Y-17168D01*
X2472Y-17257D01*
X2521Y-17348D01*
X2535Y-17362D01*
X2545Y-17379D01*
X2624Y-17446D01*
X2699Y-17518D01*
X2717Y-17526D01*
X2732Y-17539D01*
X2828Y-17578D01*
X2922Y-17621D01*
X2942Y-17623D01*
X2960Y-17631D01*
X3127Y-17649D01*
X696875Y-17624D01*
G37*
%LPC*%
G36*
X104945Y506824D02*
X104945Y506824D01*
X98008Y509698D01*
X92698Y515008D01*
X89824Y521945D01*
X89824Y529455D01*
X92698Y536392D01*
X98008Y541702D01*
X104945Y544576D01*
X112455Y544576D01*
X119392Y541702D01*
X124702Y536392D01*
X127576Y529455D01*
X127576Y521945D01*
X124702Y515008D01*
X119392Y509698D01*
X112455Y506824D01*
X104945Y506824D01*
G37*
%LPD*%
%LPC*%
G36*
X587545Y494124D02*
X587545Y494124D01*
X580608Y496998D01*
X575298Y502308D01*
X572424Y509245D01*
X572424Y516755D01*
X575298Y523692D01*
X580608Y529002D01*
X587545Y531876D01*
X595055Y531876D01*
X601992Y529002D01*
X607302Y523692D01*
X610176Y516755D01*
X610176Y509245D01*
X607302Y502308D01*
X601992Y496998D01*
X595055Y494124D01*
X587545Y494124D01*
G37*
%LPD*%
%LPC*%
G36*
X435145Y-13876D02*
X435145Y-13876D01*
X428208Y-11002D01*
X422898Y-5692D01*
X420024Y1245D01*
X420024Y8755D01*
X422898Y15692D01*
X428208Y21002D01*
X435145Y23876D01*
X442655Y23876D01*
X449592Y21002D01*
X454902Y15692D01*
X457776Y8755D01*
X457776Y1245D01*
X454902Y-5692D01*
X449592Y-11002D01*
X442655Y-13876D01*
X435145Y-13876D01*
G37*
%LPD*%
%LPC*%
G36*
X372404Y171395D02*
X372404Y171395D01*
X371002Y171976D01*
X369741Y172819D01*
X368669Y173891D01*
X368322Y174409D01*
X368258Y174478D01*
X368199Y174552D01*
X368174Y174568D01*
X368154Y174589D01*
X368071Y174634D01*
X367992Y174685D01*
X367964Y174692D01*
X367938Y174706D01*
X367845Y174722D01*
X367753Y174745D01*
X367724Y174743D01*
X367695Y174748D01*
X367602Y174733D01*
X367508Y174726D01*
X367481Y174714D01*
X367452Y174710D01*
X367369Y174666D01*
X367282Y174629D01*
X367253Y174606D01*
X367234Y174597D01*
X367211Y174573D01*
X367151Y174525D01*
X365746Y173119D01*
X363283Y172099D01*
X360617Y172099D01*
X358154Y173119D01*
X356749Y174525D01*
X356672Y174580D01*
X356600Y174640D01*
X356573Y174651D01*
X356549Y174668D01*
X356459Y174696D01*
X356371Y174730D01*
X356342Y174732D01*
X356314Y174741D01*
X356220Y174738D01*
X356126Y174743D01*
X356098Y174735D01*
X356068Y174734D01*
X355980Y174702D01*
X355889Y174676D01*
X355865Y174660D01*
X355837Y174650D01*
X355764Y174591D01*
X355686Y174538D01*
X355662Y174509D01*
X355645Y174496D01*
X355628Y174469D01*
X355578Y174409D01*
X355231Y173891D01*
X354159Y172819D01*
X352898Y171976D01*
X351496Y171395D01*
X350773Y171251D01*
X350773Y178038D01*
X350770Y178058D01*
X350772Y178077D01*
X350750Y178179D01*
X350733Y178281D01*
X350724Y178298D01*
X350720Y178318D01*
X350667Y178407D01*
X350618Y178498D01*
X350604Y178512D01*
X350594Y178529D01*
X350515Y178596D01*
X350440Y178667D01*
X350422Y178676D01*
X350407Y178689D01*
X350311Y178727D01*
X350217Y178771D01*
X350197Y178773D01*
X350179Y178781D01*
X350012Y178799D01*
X348488Y178799D01*
X348468Y178796D01*
X348449Y178798D01*
X348347Y178776D01*
X348245Y178759D01*
X348228Y178750D01*
X348208Y178746D01*
X348119Y178693D01*
X348028Y178644D01*
X348014Y178630D01*
X347997Y178620D01*
X347930Y178541D01*
X347859Y178466D01*
X347850Y178448D01*
X347837Y178433D01*
X347798Y178337D01*
X347755Y178243D01*
X347753Y178223D01*
X347745Y178205D01*
X347727Y178038D01*
X347727Y171251D01*
X347004Y171395D01*
X345602Y171976D01*
X344341Y172819D01*
X343269Y173891D01*
X342922Y174409D01*
X342858Y174478D01*
X342799Y174552D01*
X342774Y174568D01*
X342754Y174589D01*
X342671Y174634D01*
X342592Y174685D01*
X342564Y174692D01*
X342538Y174706D01*
X342445Y174722D01*
X342353Y174745D01*
X342324Y174743D01*
X342295Y174748D01*
X342202Y174733D01*
X342108Y174726D01*
X342081Y174714D01*
X342052Y174710D01*
X341969Y174666D01*
X341882Y174629D01*
X341853Y174606D01*
X341834Y174597D01*
X341811Y174573D01*
X341751Y174525D01*
X340346Y173119D01*
X337883Y172099D01*
X335217Y172099D01*
X332754Y173119D01*
X330846Y175028D01*
X330836Y175049D01*
X330801Y175087D01*
X330774Y175131D01*
X330719Y175177D01*
X330670Y175230D01*
X330624Y175255D01*
X330585Y175288D01*
X330518Y175314D01*
X330454Y175349D01*
X330403Y175358D01*
X330355Y175377D01*
X330283Y175380D01*
X330212Y175392D01*
X330161Y175385D01*
X330109Y175387D01*
X330040Y175367D01*
X329969Y175357D01*
X329923Y175333D01*
X329873Y175319D01*
X329814Y175278D01*
X329750Y175245D01*
X329713Y175208D01*
X329671Y175178D01*
X329628Y175121D01*
X329578Y175069D01*
X329555Y175029D01*
X327646Y173119D01*
X325183Y172099D01*
X322517Y172099D01*
X320054Y173119D01*
X318146Y175028D01*
X318136Y175049D01*
X318101Y175087D01*
X318074Y175131D01*
X318019Y175177D01*
X317970Y175230D01*
X317924Y175255D01*
X317885Y175288D01*
X317818Y175314D01*
X317754Y175349D01*
X317703Y175358D01*
X317655Y175377D01*
X317583Y175380D01*
X317512Y175392D01*
X317461Y175385D01*
X317409Y175387D01*
X317340Y175367D01*
X317269Y175357D01*
X317223Y175333D01*
X317173Y175319D01*
X317114Y175278D01*
X317050Y175245D01*
X317013Y175208D01*
X316971Y175178D01*
X316928Y175121D01*
X316878Y175069D01*
X316855Y175029D01*
X314946Y173119D01*
X312483Y172099D01*
X309817Y172099D01*
X307354Y173119D01*
X305469Y175004D01*
X304449Y177467D01*
X304449Y180133D01*
X305469Y182596D01*
X307354Y184481D01*
X309817Y185501D01*
X312483Y185501D01*
X314946Y184481D01*
X316854Y182572D01*
X316864Y182551D01*
X316899Y182513D01*
X316926Y182468D01*
X316982Y182423D01*
X317030Y182370D01*
X317076Y182345D01*
X317116Y182312D01*
X317183Y182286D01*
X317246Y182251D01*
X317297Y182242D01*
X317345Y182223D01*
X317417Y182220D01*
X317488Y182208D01*
X317539Y182215D01*
X317591Y182213D01*
X317660Y182233D01*
X317731Y182244D01*
X317778Y182267D01*
X317827Y182282D01*
X317886Y182323D01*
X317950Y182355D01*
X317987Y182392D01*
X318029Y182422D01*
X318072Y182479D01*
X318123Y182531D01*
X318145Y182571D01*
X320054Y184481D01*
X322517Y185501D01*
X325183Y185501D01*
X327646Y184481D01*
X329554Y182572D01*
X329564Y182551D01*
X329599Y182513D01*
X329626Y182468D01*
X329682Y182423D01*
X329730Y182370D01*
X329776Y182345D01*
X329816Y182312D01*
X329883Y182286D01*
X329946Y182251D01*
X329997Y182242D01*
X330045Y182223D01*
X330117Y182220D01*
X330188Y182208D01*
X330239Y182215D01*
X330291Y182213D01*
X330360Y182233D01*
X330431Y182244D01*
X330478Y182267D01*
X330527Y182282D01*
X330586Y182323D01*
X330650Y182355D01*
X330687Y182392D01*
X330729Y182422D01*
X330772Y182479D01*
X330823Y182531D01*
X330845Y182571D01*
X332754Y184481D01*
X335217Y185501D01*
X337883Y185501D01*
X340346Y184481D01*
X341751Y183075D01*
X341828Y183020D01*
X341900Y182960D01*
X341927Y182949D01*
X341951Y182932D01*
X342041Y182904D01*
X342129Y182870D01*
X342158Y182868D01*
X342186Y182859D01*
X342280Y182862D01*
X342374Y182857D01*
X342402Y182865D01*
X342432Y182866D01*
X342520Y182898D01*
X342611Y182924D01*
X342635Y182940D01*
X342663Y182950D01*
X342736Y183009D01*
X342814Y183062D01*
X342838Y183091D01*
X342855Y183104D01*
X342872Y183131D01*
X342922Y183191D01*
X343269Y183709D01*
X344341Y184781D01*
X345602Y185624D01*
X347004Y186205D01*
X347727Y186349D01*
X347727Y179562D01*
X347730Y179542D01*
X347728Y179523D01*
X347750Y179421D01*
X347767Y179319D01*
X347776Y179302D01*
X347780Y179282D01*
X347833Y179193D01*
X347882Y179102D01*
X347896Y179088D01*
X347906Y179071D01*
X347985Y179004D01*
X348060Y178933D01*
X348078Y178924D01*
X348093Y178911D01*
X348189Y178873D01*
X348283Y178829D01*
X348303Y178827D01*
X348321Y178819D01*
X348488Y178801D01*
X350012Y178801D01*
X350032Y178804D01*
X350051Y178802D01*
X350153Y178824D01*
X350255Y178841D01*
X350272Y178850D01*
X350292Y178854D01*
X350381Y178907D01*
X350472Y178956D01*
X350486Y178970D01*
X350503Y178980D01*
X350570Y179059D01*
X350641Y179134D01*
X350650Y179152D01*
X350663Y179167D01*
X350702Y179263D01*
X350745Y179357D01*
X350747Y179377D01*
X350755Y179395D01*
X350773Y179562D01*
X350773Y186349D01*
X351496Y186205D01*
X352898Y185624D01*
X354159Y184781D01*
X355231Y183709D01*
X355578Y183191D01*
X355642Y183122D01*
X355701Y183048D01*
X355726Y183032D01*
X355746Y183011D01*
X355829Y182966D01*
X355908Y182915D01*
X355936Y182908D01*
X355962Y182894D01*
X356055Y182878D01*
X356147Y182855D01*
X356176Y182857D01*
X356205Y182852D01*
X356298Y182867D01*
X356392Y182874D01*
X356419Y182886D01*
X356448Y182890D01*
X356531Y182934D01*
X356618Y182971D01*
X356647Y182994D01*
X356666Y183003D01*
X356689Y183027D01*
X356749Y183075D01*
X358154Y184481D01*
X360617Y185501D01*
X363283Y185501D01*
X365746Y184481D01*
X367151Y183075D01*
X367228Y183020D01*
X367300Y182960D01*
X367327Y182949D01*
X367351Y182932D01*
X367441Y182904D01*
X367529Y182870D01*
X367558Y182868D01*
X367586Y182859D01*
X367680Y182862D01*
X367774Y182857D01*
X367802Y182865D01*
X367832Y182866D01*
X367920Y182898D01*
X368011Y182924D01*
X368035Y182940D01*
X368063Y182950D01*
X368136Y183009D01*
X368214Y183062D01*
X368238Y183091D01*
X368255Y183104D01*
X368272Y183131D01*
X368322Y183191D01*
X368669Y183709D01*
X369741Y184781D01*
X371002Y185624D01*
X372404Y186205D01*
X373127Y186349D01*
X373127Y179562D01*
X373130Y179542D01*
X373128Y179523D01*
X373150Y179421D01*
X373167Y179319D01*
X373176Y179302D01*
X373180Y179282D01*
X373233Y179193D01*
X373282Y179102D01*
X373296Y179088D01*
X373306Y179071D01*
X373385Y179004D01*
X373460Y178933D01*
X373478Y178924D01*
X373493Y178911D01*
X373589Y178873D01*
X373683Y178829D01*
X373703Y178827D01*
X373721Y178819D01*
X373888Y178801D01*
X374651Y178801D01*
X374651Y178799D01*
X373888Y178799D01*
X373868Y178796D01*
X373849Y178798D01*
X373747Y178776D01*
X373645Y178759D01*
X373628Y178750D01*
X373608Y178746D01*
X373519Y178693D01*
X373428Y178644D01*
X373414Y178630D01*
X373397Y178620D01*
X373330Y178541D01*
X373259Y178466D01*
X373250Y178448D01*
X373237Y178433D01*
X373198Y178337D01*
X373155Y178243D01*
X373153Y178223D01*
X373145Y178205D01*
X373127Y178038D01*
X373127Y171251D01*
X372404Y171395D01*
G37*
%LPD*%
%LPC*%
G36*
X22835Y477349D02*
X22835Y477349D01*
X22249Y477935D01*
X22249Y497265D01*
X22835Y497851D01*
X42165Y497851D01*
X42751Y497265D01*
X42751Y477935D01*
X42165Y477349D01*
X22835Y477349D01*
G37*
%LPD*%
%LPC*%
G36*
X581635Y238589D02*
X581635Y238589D01*
X581049Y239175D01*
X581049Y258505D01*
X581635Y259091D01*
X600965Y259091D01*
X601551Y258505D01*
X601551Y239175D01*
X600965Y238589D01*
X581635Y238589D01*
G37*
%LPD*%
%LPC*%
G36*
X632435Y477099D02*
X632435Y477099D01*
X631849Y477686D01*
X631849Y497015D01*
X632435Y497601D01*
X651765Y497601D01*
X652351Y497015D01*
X652351Y477686D01*
X651765Y477099D01*
X632435Y477099D01*
G37*
%LPD*%
%LPC*%
G36*
X99035Y375749D02*
X99035Y375749D01*
X98449Y376335D01*
X98449Y395665D01*
X99035Y396251D01*
X118365Y396251D01*
X118951Y395665D01*
X118951Y376335D01*
X118365Y375749D01*
X99035Y375749D01*
G37*
%LPD*%
%LPC*%
G36*
X581635Y20149D02*
X581635Y20149D01*
X581049Y20735D01*
X581049Y40065D01*
X581635Y40651D01*
X600965Y40651D01*
X601551Y40065D01*
X601551Y20735D01*
X600965Y20149D01*
X581635Y20149D01*
G37*
%LPD*%
%LPC*%
G36*
X99035Y147149D02*
X99035Y147149D01*
X98449Y147735D01*
X98449Y167065D01*
X99035Y167651D01*
X118365Y167651D01*
X118951Y167065D01*
X118951Y147735D01*
X118365Y147149D01*
X99035Y147149D01*
G37*
%LPD*%
%LPC*%
G36*
X55861Y477349D02*
X55861Y477349D01*
X52093Y478910D01*
X49210Y481793D01*
X47649Y485561D01*
X47649Y489639D01*
X49210Y493407D01*
X52093Y496290D01*
X55861Y497851D01*
X59939Y497851D01*
X63707Y496290D01*
X66590Y493407D01*
X68151Y489639D01*
X68151Y485561D01*
X66590Y481793D01*
X63707Y478910D01*
X59939Y477349D01*
X55861Y477349D01*
G37*
%LPD*%
%LPC*%
G36*
X665461Y477099D02*
X665461Y477099D01*
X661693Y478660D01*
X658810Y481543D01*
X657249Y485311D01*
X657249Y489389D01*
X658810Y493157D01*
X661693Y496040D01*
X665461Y497601D01*
X669539Y497601D01*
X673307Y496040D01*
X676190Y493157D01*
X677751Y489389D01*
X677751Y485311D01*
X676190Y481543D01*
X673307Y478660D01*
X669539Y477099D01*
X665461Y477099D01*
G37*
%LPD*%
%LPC*%
G36*
X589261Y467189D02*
X589261Y467189D01*
X585493Y468750D01*
X582610Y471633D01*
X581049Y475401D01*
X581049Y479479D01*
X582610Y483247D01*
X585493Y486130D01*
X589261Y487691D01*
X593339Y487691D01*
X597107Y486130D01*
X599990Y483247D01*
X601551Y479479D01*
X601551Y475401D01*
X599990Y471633D01*
X597107Y468750D01*
X593339Y467189D01*
X589261Y467189D01*
G37*
%LPD*%
%LPC*%
G36*
X55861Y451949D02*
X55861Y451949D01*
X52093Y453510D01*
X49210Y456393D01*
X47649Y460161D01*
X47649Y464239D01*
X49210Y468007D01*
X52093Y470890D01*
X55861Y472451D01*
X59939Y472451D01*
X63707Y470890D01*
X66590Y468007D01*
X68151Y464239D01*
X68151Y460161D01*
X66590Y456393D01*
X63707Y453510D01*
X59939Y451949D01*
X55861Y451949D01*
G37*
%LPD*%
%LPC*%
G36*
X30461Y451949D02*
X30461Y451949D01*
X26693Y453510D01*
X23810Y456393D01*
X22249Y460161D01*
X22249Y464239D01*
X23810Y468007D01*
X26693Y470890D01*
X30461Y472451D01*
X34539Y472451D01*
X38307Y470890D01*
X41190Y468007D01*
X42751Y464239D01*
X42751Y460161D01*
X41190Y456393D01*
X38307Y453510D01*
X34539Y451949D01*
X30461Y451949D01*
G37*
%LPD*%
%LPC*%
G36*
X665461Y451699D02*
X665461Y451699D01*
X661693Y453260D01*
X658810Y456143D01*
X657249Y459911D01*
X657249Y463989D01*
X658810Y467757D01*
X661693Y470640D01*
X665461Y472201D01*
X669539Y472201D01*
X673307Y470640D01*
X676190Y467757D01*
X677751Y463989D01*
X677751Y459911D01*
X676190Y456143D01*
X673307Y453260D01*
X669539Y451699D01*
X665461Y451699D01*
G37*
%LPD*%
%LPC*%
G36*
X640061Y451699D02*
X640061Y451699D01*
X636293Y453260D01*
X633410Y456143D01*
X631849Y459911D01*
X631849Y463989D01*
X633410Y467757D01*
X636293Y470640D01*
X640061Y472201D01*
X644139Y472201D01*
X647907Y470640D01*
X650790Y467757D01*
X652351Y463989D01*
X652351Y459911D01*
X650790Y456143D01*
X647907Y453260D01*
X644139Y451699D01*
X640061Y451699D01*
G37*
%LPD*%
%LPC*%
G36*
X589261Y441789D02*
X589261Y441789D01*
X585493Y443350D01*
X582610Y446233D01*
X581049Y450001D01*
X581049Y454079D01*
X582610Y457847D01*
X585493Y460730D01*
X589261Y462291D01*
X593339Y462291D01*
X597107Y460730D01*
X599990Y457847D01*
X601551Y454079D01*
X601551Y450001D01*
X599990Y446233D01*
X597107Y443350D01*
X593339Y441789D01*
X589261Y441789D01*
G37*
%LPD*%
%LPC*%
G36*
X55861Y426549D02*
X55861Y426549D01*
X52093Y428110D01*
X49210Y430993D01*
X47649Y434761D01*
X47649Y438839D01*
X49210Y442607D01*
X52093Y445490D01*
X55861Y447051D01*
X59939Y447051D01*
X63707Y445490D01*
X66590Y442607D01*
X68151Y438839D01*
X68151Y434761D01*
X66590Y430993D01*
X63707Y428110D01*
X59939Y426549D01*
X55861Y426549D01*
G37*
%LPD*%
%LPC*%
G36*
X30461Y426549D02*
X30461Y426549D01*
X26693Y428110D01*
X23810Y430993D01*
X22249Y434761D01*
X22249Y438839D01*
X23810Y442607D01*
X26693Y445490D01*
X30461Y447051D01*
X34539Y447051D01*
X38307Y445490D01*
X41190Y442607D01*
X42751Y438839D01*
X42751Y434761D01*
X41190Y430993D01*
X38307Y428110D01*
X34539Y426549D01*
X30461Y426549D01*
G37*
%LPD*%
%LPC*%
G36*
X665461Y426299D02*
X665461Y426299D01*
X661693Y427860D01*
X658810Y430743D01*
X657249Y434511D01*
X657249Y438589D01*
X658810Y442357D01*
X661693Y445240D01*
X665461Y446801D01*
X669539Y446801D01*
X673307Y445240D01*
X676190Y442357D01*
X677751Y438589D01*
X677751Y434511D01*
X676190Y430743D01*
X673307Y427860D01*
X669539Y426299D01*
X665461Y426299D01*
G37*
%LPD*%
%LPC*%
G36*
X640061Y426299D02*
X640061Y426299D01*
X636293Y427860D01*
X633410Y430743D01*
X631849Y434511D01*
X631849Y438589D01*
X633410Y442357D01*
X636293Y445240D01*
X640061Y446801D01*
X644139Y446801D01*
X647907Y445240D01*
X650790Y442357D01*
X652351Y438589D01*
X652351Y434511D01*
X650790Y430743D01*
X647907Y427860D01*
X644139Y426299D01*
X640061Y426299D01*
G37*
%LPD*%
%LPC*%
G36*
X589261Y416389D02*
X589261Y416389D01*
X585493Y417950D01*
X582610Y420833D01*
X581049Y424601D01*
X581049Y428679D01*
X582610Y432447D01*
X585493Y435330D01*
X589261Y436891D01*
X593339Y436891D01*
X597107Y435330D01*
X599990Y432447D01*
X601551Y428679D01*
X601551Y424601D01*
X599990Y420833D01*
X597107Y417950D01*
X593339Y416389D01*
X589261Y416389D01*
G37*
%LPD*%
%LPC*%
G36*
X665461Y121499D02*
X665461Y121499D01*
X661693Y123060D01*
X658810Y125943D01*
X657249Y129711D01*
X657249Y133789D01*
X658810Y137557D01*
X661693Y140440D01*
X665461Y142001D01*
X669539Y142001D01*
X673307Y140440D01*
X676190Y137557D01*
X677751Y133789D01*
X677751Y129711D01*
X676190Y125943D01*
X673307Y123060D01*
X669539Y121499D01*
X665461Y121499D01*
G37*
%LPD*%
%LPC*%
G36*
X55861Y375749D02*
X55861Y375749D01*
X52093Y377310D01*
X49210Y380193D01*
X47649Y383961D01*
X47649Y388039D01*
X49210Y391807D01*
X52093Y394690D01*
X55861Y396251D01*
X59939Y396251D01*
X63707Y394690D01*
X66590Y391807D01*
X68151Y388039D01*
X68151Y383961D01*
X66590Y380193D01*
X63707Y377310D01*
X59939Y375749D01*
X55861Y375749D01*
G37*
%LPD*%
%LPC*%
G36*
X640061Y121499D02*
X640061Y121499D01*
X636293Y123060D01*
X633410Y125943D01*
X631849Y129711D01*
X631849Y133789D01*
X633410Y137557D01*
X636293Y140440D01*
X640061Y142001D01*
X644139Y142001D01*
X647907Y140440D01*
X650790Y137557D01*
X652351Y133789D01*
X652351Y129711D01*
X650790Y125943D01*
X647907Y123060D01*
X644139Y121499D01*
X640061Y121499D01*
G37*
%LPD*%
%LPC*%
G36*
X589261Y96349D02*
X589261Y96349D01*
X585493Y97910D01*
X582610Y100793D01*
X581049Y104561D01*
X581049Y108639D01*
X582610Y112407D01*
X585493Y115290D01*
X589261Y116851D01*
X593339Y116851D01*
X597107Y115290D01*
X599990Y112407D01*
X601551Y108639D01*
X601551Y104561D01*
X599990Y100793D01*
X597107Y97910D01*
X593339Y96349D01*
X589261Y96349D01*
G37*
%LPD*%
%LPC*%
G36*
X665461Y400899D02*
X665461Y400899D01*
X661693Y402460D01*
X658810Y405343D01*
X657249Y409111D01*
X657249Y413189D01*
X658810Y416957D01*
X661693Y419840D01*
X665461Y421401D01*
X669539Y421401D01*
X673307Y419840D01*
X676190Y416957D01*
X677751Y413189D01*
X677751Y409111D01*
X676190Y405343D01*
X673307Y402460D01*
X669539Y400899D01*
X665461Y400899D01*
G37*
%LPD*%
%LPC*%
G36*
X640061Y400899D02*
X640061Y400899D01*
X636293Y402460D01*
X633410Y405343D01*
X631849Y409111D01*
X631849Y413189D01*
X633410Y416957D01*
X636293Y419840D01*
X640061Y421401D01*
X644139Y421401D01*
X647907Y419840D01*
X650790Y416957D01*
X652351Y413189D01*
X652351Y409111D01*
X650790Y405343D01*
X647907Y402460D01*
X644139Y400899D01*
X640061Y400899D01*
G37*
%LPD*%
%LPC*%
G36*
X106661Y96349D02*
X106661Y96349D01*
X102893Y97910D01*
X100010Y100793D01*
X98449Y104561D01*
X98449Y108639D01*
X100010Y112407D01*
X102893Y115290D01*
X106661Y116851D01*
X110739Y116851D01*
X114507Y115290D01*
X117390Y112407D01*
X118951Y108639D01*
X118951Y104561D01*
X117390Y100793D01*
X114507Y97910D01*
X110739Y96349D01*
X106661Y96349D01*
G37*
%LPD*%
%LPC*%
G36*
X55861Y96349D02*
X55861Y96349D01*
X52093Y97910D01*
X49210Y100793D01*
X47649Y104561D01*
X47649Y108639D01*
X49210Y112407D01*
X52093Y115290D01*
X55861Y116851D01*
X59939Y116851D01*
X63707Y115290D01*
X66590Y112407D01*
X68151Y108639D01*
X68151Y104561D01*
X66590Y100793D01*
X63707Y97910D01*
X59939Y96349D01*
X55861Y96349D01*
G37*
%LPD*%
%LPC*%
G36*
X30461Y96349D02*
X30461Y96349D01*
X26693Y97910D01*
X23810Y100793D01*
X22249Y104561D01*
X22249Y108639D01*
X23810Y112407D01*
X26693Y115290D01*
X30461Y116851D01*
X34539Y116851D01*
X38307Y115290D01*
X41190Y112407D01*
X42751Y108639D01*
X42751Y104561D01*
X41190Y100793D01*
X38307Y97910D01*
X34539Y96349D01*
X30461Y96349D01*
G37*
%LPD*%
%LPC*%
G36*
X665461Y96099D02*
X665461Y96099D01*
X661693Y97660D01*
X658810Y100543D01*
X657249Y104311D01*
X657249Y108389D01*
X658810Y112157D01*
X661693Y115040D01*
X665461Y116601D01*
X669539Y116601D01*
X673307Y115040D01*
X676190Y112157D01*
X677751Y108389D01*
X677751Y104311D01*
X676190Y100543D01*
X673307Y97660D01*
X669539Y96099D01*
X665461Y96099D01*
G37*
%LPD*%
%LPC*%
G36*
X640061Y96099D02*
X640061Y96099D01*
X636293Y97660D01*
X633410Y100543D01*
X631849Y104311D01*
X631849Y108389D01*
X633410Y112157D01*
X636293Y115040D01*
X640061Y116601D01*
X644139Y116601D01*
X647907Y115040D01*
X650790Y112157D01*
X652351Y108389D01*
X652351Y104311D01*
X650790Y100543D01*
X647907Y97660D01*
X644139Y96099D01*
X640061Y96099D01*
G37*
%LPD*%
%LPC*%
G36*
X589261Y70949D02*
X589261Y70949D01*
X585493Y72510D01*
X582610Y75393D01*
X581049Y79161D01*
X581049Y83239D01*
X582610Y87007D01*
X585493Y89890D01*
X589261Y91451D01*
X593339Y91451D01*
X597107Y89890D01*
X599990Y87007D01*
X601551Y83239D01*
X601551Y79161D01*
X599990Y75393D01*
X597107Y72510D01*
X593339Y70949D01*
X589261Y70949D01*
G37*
%LPD*%
%LPC*%
G36*
X30461Y70949D02*
X30461Y70949D01*
X26693Y72510D01*
X23810Y75393D01*
X22249Y79161D01*
X22249Y83239D01*
X23810Y87007D01*
X26693Y89890D01*
X30461Y91451D01*
X34539Y91451D01*
X38307Y89890D01*
X41190Y87007D01*
X42751Y83239D01*
X42751Y79161D01*
X41190Y75393D01*
X38307Y72510D01*
X34539Y70949D01*
X30461Y70949D01*
G37*
%LPD*%
%LPC*%
G36*
X665461Y70699D02*
X665461Y70699D01*
X661693Y72260D01*
X658810Y75143D01*
X657249Y78911D01*
X657249Y82989D01*
X658810Y86757D01*
X661693Y89640D01*
X665461Y91201D01*
X669539Y91201D01*
X673307Y89640D01*
X676190Y86757D01*
X677751Y82989D01*
X677751Y78911D01*
X676190Y75143D01*
X673307Y72260D01*
X669539Y70699D01*
X665461Y70699D01*
G37*
%LPD*%
%LPC*%
G36*
X640061Y70699D02*
X640061Y70699D01*
X636293Y72260D01*
X633410Y75143D01*
X631849Y78911D01*
X631849Y82989D01*
X633410Y86757D01*
X636293Y89640D01*
X640061Y91201D01*
X644139Y91201D01*
X647907Y89640D01*
X650790Y86757D01*
X652351Y82989D01*
X652351Y78911D01*
X650790Y75143D01*
X647907Y72260D01*
X644139Y70699D01*
X640061Y70699D01*
G37*
%LPD*%
%LPC*%
G36*
X589261Y45549D02*
X589261Y45549D01*
X585493Y47110D01*
X582610Y49993D01*
X581049Y53761D01*
X581049Y57839D01*
X582610Y61607D01*
X585493Y64490D01*
X589261Y66051D01*
X593339Y66051D01*
X597107Y64490D01*
X599990Y61607D01*
X601551Y57839D01*
X601551Y53761D01*
X599990Y49993D01*
X597107Y47110D01*
X593339Y45549D01*
X589261Y45549D01*
G37*
%LPD*%
%LPC*%
G36*
X106661Y45549D02*
X106661Y45549D01*
X102893Y47110D01*
X100010Y49993D01*
X98449Y53761D01*
X98449Y57839D01*
X100010Y61607D01*
X102893Y64490D01*
X106661Y66051D01*
X110739Y66051D01*
X114507Y64490D01*
X117390Y61607D01*
X118951Y57839D01*
X118951Y53761D01*
X117390Y49993D01*
X114507Y47110D01*
X110739Y45549D01*
X106661Y45549D01*
G37*
%LPD*%
%LPC*%
G36*
X55861Y45549D02*
X55861Y45549D01*
X52093Y47110D01*
X49210Y49993D01*
X47649Y53761D01*
X47649Y57839D01*
X49210Y61607D01*
X52093Y64490D01*
X55861Y66051D01*
X59939Y66051D01*
X63707Y64490D01*
X66590Y61607D01*
X68151Y57839D01*
X68151Y53761D01*
X66590Y49993D01*
X63707Y47110D01*
X59939Y45549D01*
X55861Y45549D01*
G37*
%LPD*%
%LPC*%
G36*
X30461Y45549D02*
X30461Y45549D01*
X26693Y47110D01*
X23810Y49993D01*
X22249Y53761D01*
X22249Y57839D01*
X23810Y61607D01*
X26693Y64490D01*
X30461Y66051D01*
X34539Y66051D01*
X38307Y64490D01*
X41190Y61607D01*
X42751Y57839D01*
X42751Y53761D01*
X41190Y49993D01*
X38307Y47110D01*
X34539Y45549D01*
X30461Y45549D01*
G37*
%LPD*%
%LPC*%
G36*
X665461Y45299D02*
X665461Y45299D01*
X661693Y46860D01*
X658810Y49743D01*
X657249Y53511D01*
X657249Y57589D01*
X658810Y61357D01*
X661693Y64240D01*
X665461Y65801D01*
X669539Y65801D01*
X673307Y64240D01*
X676190Y61357D01*
X677751Y57589D01*
X677751Y53511D01*
X676190Y49743D01*
X673307Y46860D01*
X669539Y45299D01*
X665461Y45299D01*
G37*
%LPD*%
%LPC*%
G36*
X30461Y375749D02*
X30461Y375749D01*
X26693Y377310D01*
X23810Y380193D01*
X22249Y383961D01*
X22249Y388039D01*
X23810Y391807D01*
X26693Y394690D01*
X30461Y396251D01*
X34539Y396251D01*
X38307Y394690D01*
X41190Y391807D01*
X42751Y388039D01*
X42751Y383961D01*
X41190Y380193D01*
X38307Y377310D01*
X34539Y375749D01*
X30461Y375749D01*
G37*
%LPD*%
%LPC*%
G36*
X665461Y375499D02*
X665461Y375499D01*
X661693Y377060D01*
X658810Y379943D01*
X657249Y383711D01*
X657249Y387789D01*
X658810Y391557D01*
X661693Y394440D01*
X665461Y396001D01*
X669539Y396001D01*
X673307Y394440D01*
X676190Y391557D01*
X677751Y387789D01*
X677751Y383711D01*
X676190Y379943D01*
X673307Y377060D01*
X669539Y375499D01*
X665461Y375499D01*
G37*
%LPD*%
%LPC*%
G36*
X589261Y365589D02*
X589261Y365589D01*
X585493Y367150D01*
X582610Y370033D01*
X581049Y373801D01*
X581049Y377879D01*
X582610Y381647D01*
X585493Y384530D01*
X589261Y386091D01*
X593339Y386091D01*
X597107Y384530D01*
X599990Y381647D01*
X601551Y377879D01*
X601551Y373801D01*
X599990Y370033D01*
X597107Y367150D01*
X593339Y365589D01*
X589261Y365589D01*
G37*
%LPD*%
%LPC*%
G36*
X640061Y45299D02*
X640061Y45299D01*
X636293Y46860D01*
X633410Y49743D01*
X631849Y53511D01*
X631849Y57589D01*
X633410Y61357D01*
X636293Y64240D01*
X640061Y65801D01*
X644139Y65801D01*
X647907Y64240D01*
X650790Y61357D01*
X652351Y57589D01*
X652351Y53511D01*
X650790Y49743D01*
X647907Y46860D01*
X644139Y45299D01*
X640061Y45299D01*
G37*
%LPD*%
%LPC*%
G36*
X106661Y20149D02*
X106661Y20149D01*
X102893Y21710D01*
X100010Y24593D01*
X98449Y28361D01*
X98449Y32439D01*
X100010Y36207D01*
X102893Y39090D01*
X106661Y40651D01*
X110739Y40651D01*
X114507Y39090D01*
X117390Y36207D01*
X118951Y32439D01*
X118951Y28361D01*
X117390Y24593D01*
X114507Y21710D01*
X110739Y20149D01*
X106661Y20149D01*
G37*
%LPD*%
%LPC*%
G36*
X55861Y20149D02*
X55861Y20149D01*
X52093Y21710D01*
X49210Y24593D01*
X47649Y28361D01*
X47649Y32439D01*
X49210Y36207D01*
X52093Y39090D01*
X55861Y40651D01*
X59939Y40651D01*
X63707Y39090D01*
X66590Y36207D01*
X68151Y32439D01*
X68151Y28361D01*
X66590Y24593D01*
X63707Y21710D01*
X59939Y20149D01*
X55861Y20149D01*
G37*
%LPD*%
%LPC*%
G36*
X106661Y350349D02*
X106661Y350349D01*
X102893Y351910D01*
X100010Y354793D01*
X98449Y358561D01*
X98449Y362639D01*
X100010Y366407D01*
X102893Y369290D01*
X106661Y370851D01*
X110739Y370851D01*
X114507Y369290D01*
X117390Y366407D01*
X118951Y362639D01*
X118951Y358561D01*
X117390Y354793D01*
X114507Y351910D01*
X110739Y350349D01*
X106661Y350349D01*
G37*
%LPD*%
%LPC*%
G36*
X55861Y350349D02*
X55861Y350349D01*
X52093Y351910D01*
X49210Y354793D01*
X47649Y358561D01*
X47649Y362639D01*
X49210Y366407D01*
X52093Y369290D01*
X55861Y370851D01*
X59939Y370851D01*
X63707Y369290D01*
X66590Y366407D01*
X68151Y362639D01*
X68151Y358561D01*
X66590Y354793D01*
X63707Y351910D01*
X59939Y350349D01*
X55861Y350349D01*
G37*
%LPD*%
%LPC*%
G36*
X30461Y350349D02*
X30461Y350349D01*
X26693Y351910D01*
X23810Y354793D01*
X22249Y358561D01*
X22249Y362639D01*
X23810Y366407D01*
X26693Y369290D01*
X30461Y370851D01*
X34539Y370851D01*
X38307Y369290D01*
X41190Y366407D01*
X42751Y362639D01*
X42751Y358561D01*
X41190Y354793D01*
X38307Y351910D01*
X34539Y350349D01*
X30461Y350349D01*
G37*
%LPD*%
%LPC*%
G36*
X665461Y350099D02*
X665461Y350099D01*
X661693Y351660D01*
X658810Y354543D01*
X657249Y358311D01*
X657249Y362389D01*
X658810Y366157D01*
X661693Y369040D01*
X665461Y370601D01*
X669539Y370601D01*
X673307Y369040D01*
X676190Y366157D01*
X677751Y362389D01*
X677751Y358311D01*
X676190Y354543D01*
X673307Y351660D01*
X669539Y350099D01*
X665461Y350099D01*
G37*
%LPD*%
%LPC*%
G36*
X640061Y350099D02*
X640061Y350099D01*
X636293Y351660D01*
X633410Y354543D01*
X631849Y358311D01*
X631849Y362389D01*
X633410Y366157D01*
X636293Y369040D01*
X640061Y370601D01*
X644139Y370601D01*
X647907Y369040D01*
X650790Y366157D01*
X652351Y362389D01*
X652351Y358311D01*
X650790Y354543D01*
X647907Y351660D01*
X644139Y350099D01*
X640061Y350099D01*
G37*
%LPD*%
%LPC*%
G36*
X589261Y340189D02*
X589261Y340189D01*
X585493Y341750D01*
X582610Y344633D01*
X581049Y348401D01*
X581049Y352479D01*
X582610Y356247D01*
X585493Y359130D01*
X589261Y360691D01*
X593339Y360691D01*
X597107Y359130D01*
X599990Y356247D01*
X601551Y352479D01*
X601551Y348401D01*
X599990Y344633D01*
X597107Y341750D01*
X593339Y340189D01*
X589261Y340189D01*
G37*
%LPD*%
%LPC*%
G36*
X106661Y324949D02*
X106661Y324949D01*
X102893Y326510D01*
X100010Y329393D01*
X98449Y333161D01*
X98449Y337239D01*
X100010Y341007D01*
X102893Y343890D01*
X106661Y345451D01*
X110739Y345451D01*
X114507Y343890D01*
X117390Y341007D01*
X118951Y337239D01*
X118951Y333161D01*
X117390Y329393D01*
X114507Y326510D01*
X110739Y324949D01*
X106661Y324949D01*
G37*
%LPD*%
%LPC*%
G36*
X55861Y324949D02*
X55861Y324949D01*
X52093Y326510D01*
X49210Y329393D01*
X47649Y333161D01*
X47649Y337239D01*
X49210Y341007D01*
X52093Y343890D01*
X55861Y345451D01*
X59939Y345451D01*
X63707Y343890D01*
X66590Y341007D01*
X68151Y337239D01*
X68151Y333161D01*
X66590Y329393D01*
X63707Y326510D01*
X59939Y324949D01*
X55861Y324949D01*
G37*
%LPD*%
%LPC*%
G36*
X30461Y324949D02*
X30461Y324949D01*
X26693Y326510D01*
X23810Y329393D01*
X22249Y333161D01*
X22249Y337239D01*
X23810Y341007D01*
X26693Y343890D01*
X30461Y345451D01*
X34539Y345451D01*
X38307Y343890D01*
X41190Y341007D01*
X42751Y337239D01*
X42751Y333161D01*
X41190Y329393D01*
X38307Y326510D01*
X34539Y324949D01*
X30461Y324949D01*
G37*
%LPD*%
%LPC*%
G36*
X665461Y324699D02*
X665461Y324699D01*
X661693Y326260D01*
X658810Y329143D01*
X657249Y332911D01*
X657249Y336989D01*
X658810Y340757D01*
X661693Y343640D01*
X665461Y345201D01*
X669539Y345201D01*
X673307Y343640D01*
X676190Y340757D01*
X677751Y336989D01*
X677751Y332911D01*
X676190Y329143D01*
X673307Y326260D01*
X669539Y324699D01*
X665461Y324699D01*
G37*
%LPD*%
%LPC*%
G36*
X640061Y324699D02*
X640061Y324699D01*
X636293Y326260D01*
X633410Y329143D01*
X631849Y332911D01*
X631849Y336989D01*
X633410Y340757D01*
X636293Y343640D01*
X640061Y345201D01*
X644139Y345201D01*
X647907Y343640D01*
X650790Y340757D01*
X652351Y336989D01*
X652351Y332911D01*
X650790Y329143D01*
X647907Y326260D01*
X644139Y324699D01*
X640061Y324699D01*
G37*
%LPD*%
%LPC*%
G36*
X589261Y314789D02*
X589261Y314789D01*
X585493Y316350D01*
X582610Y319233D01*
X581049Y323001D01*
X581049Y327079D01*
X582610Y330847D01*
X585493Y333730D01*
X589261Y335291D01*
X593339Y335291D01*
X597107Y333730D01*
X599990Y330847D01*
X601551Y327079D01*
X601551Y323001D01*
X599990Y319233D01*
X597107Y316350D01*
X593339Y314789D01*
X589261Y314789D01*
G37*
%LPD*%
%LPC*%
G36*
X106661Y299549D02*
X106661Y299549D01*
X102893Y301110D01*
X100010Y303993D01*
X98449Y307761D01*
X98449Y311839D01*
X100010Y315607D01*
X102893Y318490D01*
X106661Y320051D01*
X110739Y320051D01*
X114507Y318490D01*
X117390Y315607D01*
X118951Y311839D01*
X118951Y307761D01*
X117390Y303993D01*
X114507Y301110D01*
X110739Y299549D01*
X106661Y299549D01*
G37*
%LPD*%
%LPC*%
G36*
X55861Y299549D02*
X55861Y299549D01*
X52093Y301110D01*
X49210Y303993D01*
X47649Y307761D01*
X47649Y311839D01*
X49210Y315607D01*
X52093Y318490D01*
X55861Y320051D01*
X59939Y320051D01*
X63707Y318490D01*
X66590Y315607D01*
X68151Y311839D01*
X68151Y307761D01*
X66590Y303993D01*
X63707Y301110D01*
X59939Y299549D01*
X55861Y299549D01*
G37*
%LPD*%
%LPC*%
G36*
X30461Y299549D02*
X30461Y299549D01*
X26693Y301110D01*
X23810Y303993D01*
X22249Y307761D01*
X22249Y311839D01*
X23810Y315607D01*
X26693Y318490D01*
X30461Y320051D01*
X34539Y320051D01*
X38307Y318490D01*
X41190Y315607D01*
X42751Y311839D01*
X42751Y307761D01*
X41190Y303993D01*
X38307Y301110D01*
X34539Y299549D01*
X30461Y299549D01*
G37*
%LPD*%
%LPC*%
G36*
X665461Y299299D02*
X665461Y299299D01*
X661693Y300860D01*
X658810Y303743D01*
X657249Y307511D01*
X657249Y311589D01*
X658810Y315357D01*
X661693Y318240D01*
X665461Y319801D01*
X669539Y319801D01*
X673307Y318240D01*
X676190Y315357D01*
X677751Y311589D01*
X677751Y307511D01*
X676190Y303743D01*
X673307Y300860D01*
X669539Y299299D01*
X665461Y299299D01*
G37*
%LPD*%
%LPC*%
G36*
X640061Y299299D02*
X640061Y299299D01*
X636293Y300860D01*
X633410Y303743D01*
X631849Y307511D01*
X631849Y311589D01*
X633410Y315357D01*
X636293Y318240D01*
X640061Y319801D01*
X644139Y319801D01*
X647907Y318240D01*
X650790Y315357D01*
X652351Y311589D01*
X652351Y307511D01*
X650790Y303743D01*
X647907Y300860D01*
X644139Y299299D01*
X640061Y299299D01*
G37*
%LPD*%
%LPC*%
G36*
X589261Y289389D02*
X589261Y289389D01*
X585493Y290950D01*
X582610Y293833D01*
X581049Y297601D01*
X581049Y301679D01*
X582610Y305447D01*
X585493Y308330D01*
X589261Y309891D01*
X593339Y309891D01*
X597107Y308330D01*
X599990Y305447D01*
X601551Y301679D01*
X601551Y297601D01*
X599990Y293833D01*
X597107Y290950D01*
X593339Y289389D01*
X589261Y289389D01*
G37*
%LPD*%
%LPC*%
G36*
X106661Y274149D02*
X106661Y274149D01*
X102893Y275710D01*
X100010Y278593D01*
X98449Y282361D01*
X98449Y286439D01*
X100010Y290207D01*
X102893Y293090D01*
X106661Y294651D01*
X110739Y294651D01*
X114507Y293090D01*
X117390Y290207D01*
X118951Y286439D01*
X118951Y282361D01*
X117390Y278593D01*
X114507Y275710D01*
X110739Y274149D01*
X106661Y274149D01*
G37*
%LPD*%
%LPC*%
G36*
X55861Y274149D02*
X55861Y274149D01*
X52093Y275710D01*
X49210Y278593D01*
X47649Y282361D01*
X47649Y286439D01*
X49210Y290207D01*
X52093Y293090D01*
X55861Y294651D01*
X59939Y294651D01*
X63707Y293090D01*
X66590Y290207D01*
X68151Y286439D01*
X68151Y282361D01*
X66590Y278593D01*
X63707Y275710D01*
X59939Y274149D01*
X55861Y274149D01*
G37*
%LPD*%
%LPC*%
G36*
X30461Y274149D02*
X30461Y274149D01*
X26693Y275710D01*
X23810Y278593D01*
X22249Y282361D01*
X22249Y286439D01*
X23810Y290207D01*
X26693Y293090D01*
X30461Y294651D01*
X34539Y294651D01*
X38307Y293090D01*
X41190Y290207D01*
X42751Y286439D01*
X42751Y282361D01*
X41190Y278593D01*
X38307Y275710D01*
X34539Y274149D01*
X30461Y274149D01*
G37*
%LPD*%
%LPC*%
G36*
X665461Y273899D02*
X665461Y273899D01*
X661693Y275460D01*
X658810Y278343D01*
X657249Y282111D01*
X657249Y286189D01*
X658810Y289957D01*
X661693Y292840D01*
X665461Y294401D01*
X669539Y294401D01*
X673307Y292840D01*
X676190Y289957D01*
X677751Y286189D01*
X677751Y282111D01*
X676190Y278343D01*
X673307Y275460D01*
X669539Y273899D01*
X665461Y273899D01*
G37*
%LPD*%
%LPC*%
G36*
X640061Y273899D02*
X640061Y273899D01*
X636293Y275460D01*
X633410Y278343D01*
X631849Y282111D01*
X631849Y286189D01*
X633410Y289957D01*
X636293Y292840D01*
X640061Y294401D01*
X644139Y294401D01*
X647907Y292840D01*
X650790Y289957D01*
X652351Y286189D01*
X652351Y282111D01*
X650790Y278343D01*
X647907Y275460D01*
X644139Y273899D01*
X640061Y273899D01*
G37*
%LPD*%
%LPC*%
G36*
X589261Y263989D02*
X589261Y263989D01*
X585493Y265550D01*
X582610Y268433D01*
X581049Y272201D01*
X581049Y276279D01*
X582610Y280047D01*
X585493Y282930D01*
X589261Y284491D01*
X593339Y284491D01*
X597107Y282930D01*
X599990Y280047D01*
X601551Y276279D01*
X601551Y272201D01*
X599990Y268433D01*
X597107Y265550D01*
X593339Y263989D01*
X589261Y263989D01*
G37*
%LPD*%
%LPC*%
G36*
X30461Y20149D02*
X30461Y20149D01*
X26693Y21710D01*
X23810Y24593D01*
X22249Y28361D01*
X22249Y32439D01*
X23810Y36207D01*
X26693Y39090D01*
X30461Y40651D01*
X34539Y40651D01*
X38307Y39090D01*
X41190Y36207D01*
X42751Y32439D01*
X42751Y28361D01*
X41190Y24593D01*
X38307Y21710D01*
X34539Y20149D01*
X30461Y20149D01*
G37*
%LPD*%
%LPC*%
G36*
X665461Y19899D02*
X665461Y19899D01*
X661693Y21460D01*
X658810Y24343D01*
X657249Y28111D01*
X657249Y32189D01*
X658810Y35957D01*
X661693Y38840D01*
X665461Y40401D01*
X669539Y40401D01*
X673307Y38840D01*
X676190Y35957D01*
X677751Y32189D01*
X677751Y28111D01*
X676190Y24343D01*
X673307Y21460D01*
X669539Y19899D01*
X665461Y19899D01*
G37*
%LPD*%
%LPC*%
G36*
X640061Y19899D02*
X640061Y19899D01*
X636293Y21460D01*
X633410Y24343D01*
X631849Y28111D01*
X631849Y32189D01*
X633410Y35957D01*
X636293Y38840D01*
X640061Y40401D01*
X644139Y40401D01*
X647907Y38840D01*
X650790Y35957D01*
X652351Y32189D01*
X652351Y28111D01*
X650790Y24343D01*
X647907Y21460D01*
X644139Y19899D01*
X640061Y19899D01*
G37*
%LPD*%
%LPC*%
G36*
X55861Y70949D02*
X55861Y70949D01*
X52093Y72510D01*
X49210Y75393D01*
X47649Y79161D01*
X47649Y83239D01*
X49210Y87007D01*
X52093Y89890D01*
X55861Y91451D01*
X59939Y91451D01*
X63707Y89890D01*
X66590Y87007D01*
X68151Y83239D01*
X68151Y79161D01*
X66590Y75393D01*
X63707Y72510D01*
X59939Y70949D01*
X55861Y70949D01*
G37*
%LPD*%
%LPC*%
G36*
X640061Y248499D02*
X640061Y248499D01*
X636293Y250060D01*
X633410Y252943D01*
X631849Y256711D01*
X631849Y260789D01*
X633410Y264557D01*
X636293Y267440D01*
X640061Y269001D01*
X644139Y269001D01*
X647907Y267440D01*
X650790Y264557D01*
X652351Y260789D01*
X652351Y256711D01*
X650790Y252943D01*
X647907Y250060D01*
X644139Y248499D01*
X640061Y248499D01*
G37*
%LPD*%
%LPC*%
G36*
X55861Y147149D02*
X55861Y147149D01*
X52093Y148710D01*
X49210Y151593D01*
X47649Y155361D01*
X47649Y159439D01*
X49210Y163207D01*
X52093Y166090D01*
X55861Y167651D01*
X59939Y167651D01*
X63707Y166090D01*
X66590Y163207D01*
X68151Y159439D01*
X68151Y155361D01*
X66590Y151593D01*
X63707Y148710D01*
X59939Y147149D01*
X55861Y147149D01*
G37*
%LPD*%
%LPC*%
G36*
X30461Y223349D02*
X30461Y223349D01*
X26693Y224910D01*
X23810Y227793D01*
X22249Y231561D01*
X22249Y235639D01*
X23810Y239407D01*
X26693Y242290D01*
X30461Y243851D01*
X34539Y243851D01*
X38307Y242290D01*
X41190Y239407D01*
X42751Y235639D01*
X42751Y231561D01*
X41190Y227793D01*
X38307Y224910D01*
X34539Y223349D01*
X30461Y223349D01*
G37*
%LPD*%
%LPC*%
G36*
X665461Y223099D02*
X665461Y223099D01*
X661693Y224660D01*
X658810Y227543D01*
X657249Y231311D01*
X657249Y235389D01*
X658810Y239157D01*
X661693Y242040D01*
X665461Y243601D01*
X669539Y243601D01*
X673307Y242040D01*
X676190Y239157D01*
X677751Y235389D01*
X677751Y231311D01*
X676190Y227543D01*
X673307Y224660D01*
X669539Y223099D01*
X665461Y223099D01*
G37*
%LPD*%
%LPC*%
G36*
X640061Y223099D02*
X640061Y223099D01*
X636293Y224660D01*
X633410Y227543D01*
X631849Y231311D01*
X631849Y235389D01*
X633410Y239157D01*
X636293Y242040D01*
X640061Y243601D01*
X644139Y243601D01*
X647907Y242040D01*
X650790Y239157D01*
X652351Y235389D01*
X652351Y231311D01*
X650790Y227543D01*
X647907Y224660D01*
X644139Y223099D01*
X640061Y223099D01*
G37*
%LPD*%
%LPC*%
G36*
X589261Y197949D02*
X589261Y197949D01*
X585493Y199510D01*
X582610Y202393D01*
X581049Y206161D01*
X581049Y210239D01*
X582610Y214007D01*
X585493Y216890D01*
X589261Y218451D01*
X593339Y218451D01*
X597107Y216890D01*
X599990Y214007D01*
X601551Y210239D01*
X601551Y206161D01*
X599990Y202393D01*
X597107Y199510D01*
X593339Y197949D01*
X589261Y197949D01*
G37*
%LPD*%
%LPC*%
G36*
X106661Y197949D02*
X106661Y197949D01*
X102893Y199510D01*
X100010Y202393D01*
X98449Y206161D01*
X98449Y210239D01*
X100010Y214007D01*
X102893Y216890D01*
X106661Y218451D01*
X110739Y218451D01*
X114507Y216890D01*
X117390Y214007D01*
X118951Y210239D01*
X118951Y206161D01*
X117390Y202393D01*
X114507Y199510D01*
X110739Y197949D01*
X106661Y197949D01*
G37*
%LPD*%
%LPC*%
G36*
X55861Y197949D02*
X55861Y197949D01*
X52093Y199510D01*
X49210Y202393D01*
X47649Y206161D01*
X47649Y210239D01*
X49210Y214007D01*
X52093Y216890D01*
X55861Y218451D01*
X59939Y218451D01*
X63707Y216890D01*
X66590Y214007D01*
X68151Y210239D01*
X68151Y206161D01*
X66590Y202393D01*
X63707Y199510D01*
X59939Y197949D01*
X55861Y197949D01*
G37*
%LPD*%
%LPC*%
G36*
X30461Y197949D02*
X30461Y197949D01*
X26693Y199510D01*
X23810Y202393D01*
X22249Y206161D01*
X22249Y210239D01*
X23810Y214007D01*
X26693Y216890D01*
X30461Y218451D01*
X34539Y218451D01*
X38307Y216890D01*
X41190Y214007D01*
X42751Y210239D01*
X42751Y206161D01*
X41190Y202393D01*
X38307Y199510D01*
X34539Y197949D01*
X30461Y197949D01*
G37*
%LPD*%
%LPC*%
G36*
X665461Y197699D02*
X665461Y197699D01*
X661693Y199260D01*
X658810Y202143D01*
X657249Y205911D01*
X657249Y209989D01*
X658810Y213757D01*
X661693Y216640D01*
X665461Y218201D01*
X669539Y218201D01*
X673307Y216640D01*
X676190Y213757D01*
X677751Y209989D01*
X677751Y205911D01*
X676190Y202143D01*
X673307Y199260D01*
X669539Y197699D01*
X665461Y197699D01*
G37*
%LPD*%
%LPC*%
G36*
X640061Y197699D02*
X640061Y197699D01*
X636293Y199260D01*
X633410Y202143D01*
X631849Y205911D01*
X631849Y209989D01*
X633410Y213757D01*
X636293Y216640D01*
X640061Y218201D01*
X644139Y218201D01*
X647907Y216640D01*
X650790Y213757D01*
X652351Y209989D01*
X652351Y205911D01*
X650790Y202143D01*
X647907Y199260D01*
X644139Y197699D01*
X640061Y197699D01*
G37*
%LPD*%
%LPC*%
G36*
X589261Y172549D02*
X589261Y172549D01*
X585493Y174110D01*
X582610Y176993D01*
X581049Y180761D01*
X581049Y184839D01*
X582610Y188607D01*
X585493Y191490D01*
X589261Y193051D01*
X593339Y193051D01*
X597107Y191490D01*
X599990Y188607D01*
X601551Y184839D01*
X601551Y180761D01*
X599990Y176993D01*
X597107Y174110D01*
X593339Y172549D01*
X589261Y172549D01*
G37*
%LPD*%
%LPC*%
G36*
X55861Y172549D02*
X55861Y172549D01*
X52093Y174110D01*
X49210Y176993D01*
X47649Y180761D01*
X47649Y184839D01*
X49210Y188607D01*
X52093Y191490D01*
X55861Y193051D01*
X59939Y193051D01*
X63707Y191490D01*
X66590Y188607D01*
X68151Y184839D01*
X68151Y180761D01*
X66590Y176993D01*
X63707Y174110D01*
X59939Y172549D01*
X55861Y172549D01*
G37*
%LPD*%
%LPC*%
G36*
X30461Y172549D02*
X30461Y172549D01*
X26693Y174110D01*
X23810Y176993D01*
X22249Y180761D01*
X22249Y184839D01*
X23810Y188607D01*
X26693Y191490D01*
X30461Y193051D01*
X34539Y193051D01*
X38307Y191490D01*
X41190Y188607D01*
X42751Y184839D01*
X42751Y180761D01*
X41190Y176993D01*
X38307Y174110D01*
X34539Y172549D01*
X30461Y172549D01*
G37*
%LPD*%
%LPC*%
G36*
X665461Y172299D02*
X665461Y172299D01*
X661693Y173860D01*
X658810Y176743D01*
X657249Y180511D01*
X657249Y184589D01*
X658810Y188357D01*
X661693Y191240D01*
X665461Y192801D01*
X669539Y192801D01*
X673307Y191240D01*
X676190Y188357D01*
X677751Y184589D01*
X677751Y180511D01*
X676190Y176743D01*
X673307Y173860D01*
X669539Y172299D01*
X665461Y172299D01*
G37*
%LPD*%
%LPC*%
G36*
X640061Y172299D02*
X640061Y172299D01*
X636293Y173860D01*
X633410Y176743D01*
X631849Y180511D01*
X631849Y184589D01*
X633410Y188357D01*
X636293Y191240D01*
X640061Y192801D01*
X644139Y192801D01*
X647907Y191240D01*
X650790Y188357D01*
X652351Y184589D01*
X652351Y180511D01*
X650790Y176743D01*
X647907Y173860D01*
X644139Y172299D01*
X640061Y172299D01*
G37*
%LPD*%
%LPC*%
G36*
X589261Y147149D02*
X589261Y147149D01*
X585493Y148710D01*
X582610Y151593D01*
X581049Y155361D01*
X581049Y159439D01*
X582610Y163207D01*
X585493Y166090D01*
X589261Y167651D01*
X593339Y167651D01*
X597107Y166090D01*
X599990Y163207D01*
X601551Y159439D01*
X601551Y155361D01*
X599990Y151593D01*
X597107Y148710D01*
X593339Y147149D01*
X589261Y147149D01*
G37*
%LPD*%
%LPC*%
G36*
X30461Y147149D02*
X30461Y147149D01*
X26693Y148710D01*
X23810Y151593D01*
X22249Y155361D01*
X22249Y159439D01*
X23810Y163207D01*
X26693Y166090D01*
X30461Y167651D01*
X34539Y167651D01*
X38307Y166090D01*
X41190Y163207D01*
X42751Y159439D01*
X42751Y155361D01*
X41190Y151593D01*
X38307Y148710D01*
X34539Y147149D01*
X30461Y147149D01*
G37*
%LPD*%
%LPC*%
G36*
X665461Y146899D02*
X665461Y146899D01*
X661693Y148460D01*
X658810Y151343D01*
X657249Y155111D01*
X657249Y159189D01*
X658810Y162957D01*
X661693Y165840D01*
X665461Y167401D01*
X669539Y167401D01*
X673307Y165840D01*
X676190Y162957D01*
X677751Y159189D01*
X677751Y155111D01*
X676190Y151343D01*
X673307Y148460D01*
X669539Y146899D01*
X665461Y146899D01*
G37*
%LPD*%
%LPC*%
G36*
X640061Y146899D02*
X640061Y146899D01*
X636293Y148460D01*
X633410Y151343D01*
X631849Y155111D01*
X631849Y159189D01*
X633410Y162957D01*
X636293Y165840D01*
X640061Y167401D01*
X644139Y167401D01*
X647907Y165840D01*
X650790Y162957D01*
X652351Y159189D01*
X652351Y155111D01*
X650790Y151343D01*
X647907Y148460D01*
X644139Y146899D01*
X640061Y146899D01*
G37*
%LPD*%
%LPC*%
G36*
X589261Y121749D02*
X589261Y121749D01*
X585493Y123310D01*
X582610Y126193D01*
X581049Y129961D01*
X581049Y134039D01*
X582610Y137807D01*
X585493Y140690D01*
X589261Y142251D01*
X593339Y142251D01*
X597107Y140690D01*
X599990Y137807D01*
X601551Y134039D01*
X601551Y129961D01*
X599990Y126193D01*
X597107Y123310D01*
X593339Y121749D01*
X589261Y121749D01*
G37*
%LPD*%
%LPC*%
G36*
X106661Y121749D02*
X106661Y121749D01*
X102893Y123310D01*
X100010Y126193D01*
X98449Y129961D01*
X98449Y134039D01*
X100010Y137807D01*
X102893Y140690D01*
X106661Y142251D01*
X110739Y142251D01*
X114507Y140690D01*
X117390Y137807D01*
X118951Y134039D01*
X118951Y129961D01*
X117390Y126193D01*
X114507Y123310D01*
X110739Y121749D01*
X106661Y121749D01*
G37*
%LPD*%
%LPC*%
G36*
X55861Y121749D02*
X55861Y121749D01*
X52093Y123310D01*
X49210Y126193D01*
X47649Y129961D01*
X47649Y134039D01*
X49210Y137807D01*
X52093Y140690D01*
X55861Y142251D01*
X59939Y142251D01*
X63707Y140690D01*
X66590Y137807D01*
X68151Y134039D01*
X68151Y129961D01*
X66590Y126193D01*
X63707Y123310D01*
X59939Y121749D01*
X55861Y121749D01*
G37*
%LPD*%
%LPC*%
G36*
X30461Y121749D02*
X30461Y121749D01*
X26693Y123310D01*
X23810Y126193D01*
X22249Y129961D01*
X22249Y134039D01*
X23810Y137807D01*
X26693Y140690D01*
X30461Y142251D01*
X34539Y142251D01*
X38307Y140690D01*
X41190Y137807D01*
X42751Y134039D01*
X42751Y129961D01*
X41190Y126193D01*
X38307Y123310D01*
X34539Y121749D01*
X30461Y121749D01*
G37*
%LPD*%
%LPC*%
G36*
X59423Y235123D02*
X59423Y235123D01*
X59423Y244750D01*
X60535Y244574D01*
X62219Y244026D01*
X63797Y243223D01*
X65229Y242181D01*
X66481Y240929D01*
X67523Y239497D01*
X68326Y237919D01*
X68874Y236235D01*
X69050Y235123D01*
X59423Y235123D01*
G37*
%LPD*%
%LPC*%
G36*
X34023Y412923D02*
X34023Y412923D01*
X34023Y422550D01*
X35135Y422374D01*
X36819Y421826D01*
X38397Y421023D01*
X39829Y419981D01*
X41081Y418729D01*
X42123Y417297D01*
X42926Y415719D01*
X43474Y414035D01*
X43650Y412923D01*
X34023Y412923D01*
G37*
%LPD*%
%LPC*%
G36*
X59423Y412923D02*
X59423Y412923D01*
X59423Y422550D01*
X60535Y422374D01*
X62219Y421826D01*
X63797Y421023D01*
X65229Y419981D01*
X66481Y418729D01*
X67523Y417297D01*
X68326Y415719D01*
X68874Y414035D01*
X69050Y412923D01*
X59423Y412923D01*
G37*
%LPD*%
%LPC*%
G36*
X592823Y402763D02*
X592823Y402763D01*
X592823Y412390D01*
X593935Y412214D01*
X595619Y411666D01*
X597197Y410863D01*
X598629Y409821D01*
X599881Y408569D01*
X600923Y407137D01*
X601726Y405559D01*
X602274Y403875D01*
X602450Y402763D01*
X592823Y402763D01*
G37*
%LPD*%
%LPC*%
G36*
X110223Y260523D02*
X110223Y260523D01*
X110223Y270150D01*
X111335Y269974D01*
X113019Y269426D01*
X114597Y268623D01*
X116029Y267581D01*
X117281Y266329D01*
X118323Y264897D01*
X119126Y263319D01*
X119674Y261635D01*
X119850Y260523D01*
X110223Y260523D01*
G37*
%LPD*%
%LPC*%
G36*
X669023Y260273D02*
X669023Y260273D01*
X669023Y269900D01*
X670135Y269724D01*
X671819Y269177D01*
X673397Y268373D01*
X674829Y267332D01*
X676081Y266080D01*
X677123Y264647D01*
X677926Y263069D01*
X678474Y261385D01*
X678650Y260273D01*
X669023Y260273D01*
G37*
%LPD*%
%LPC*%
G36*
X34023Y260523D02*
X34023Y260523D01*
X34023Y270150D01*
X35135Y269974D01*
X36819Y269426D01*
X38397Y268623D01*
X39829Y267581D01*
X41081Y266329D01*
X42123Y264897D01*
X42926Y263319D01*
X43474Y261635D01*
X43650Y260523D01*
X34023Y260523D01*
G37*
%LPD*%
%LPC*%
G36*
X643623Y387273D02*
X643623Y387273D01*
X643623Y396900D01*
X644735Y396724D01*
X646419Y396177D01*
X647997Y395373D01*
X649429Y394332D01*
X650681Y393080D01*
X651723Y391647D01*
X652526Y390069D01*
X653074Y388385D01*
X653250Y387273D01*
X643623Y387273D01*
G37*
%LPD*%
%LPC*%
G36*
X59423Y260523D02*
X59423Y260523D01*
X59423Y270150D01*
X60535Y269974D01*
X62219Y269426D01*
X63797Y268623D01*
X65229Y267581D01*
X66481Y266329D01*
X67523Y264897D01*
X68326Y263319D01*
X68874Y261635D01*
X69050Y260523D01*
X59423Y260523D01*
G37*
%LPD*%
%LPC*%
G36*
X110223Y235123D02*
X110223Y235123D01*
X110223Y244750D01*
X111335Y244574D01*
X113019Y244026D01*
X114597Y243223D01*
X116029Y242181D01*
X117281Y240929D01*
X118323Y239497D01*
X119126Y237919D01*
X119674Y236235D01*
X119850Y235123D01*
X110223Y235123D01*
G37*
%LPD*%
%LPC*%
G36*
X110223Y82723D02*
X110223Y82723D01*
X110223Y92350D01*
X111335Y92174D01*
X113019Y91626D01*
X114597Y90823D01*
X116029Y89781D01*
X117281Y88529D01*
X118323Y87097D01*
X119126Y85519D01*
X119674Y83835D01*
X119850Y82723D01*
X110223Y82723D01*
G37*
%LPD*%
%LPC*%
G36*
X21350Y412923D02*
X21350Y412923D01*
X21526Y414035D01*
X22074Y415719D01*
X22877Y417297D01*
X23919Y418729D01*
X25171Y419981D01*
X26603Y421023D01*
X28181Y421826D01*
X29865Y422374D01*
X30977Y422550D01*
X30977Y412923D01*
X21350Y412923D01*
G37*
%LPD*%
%LPC*%
G36*
X580150Y402763D02*
X580150Y402763D01*
X580326Y403875D01*
X580874Y405559D01*
X581677Y407137D01*
X582719Y408569D01*
X583971Y409821D01*
X585403Y410863D01*
X586981Y411666D01*
X588665Y412214D01*
X589777Y412390D01*
X589777Y402763D01*
X580150Y402763D01*
G37*
%LPD*%
%LPC*%
G36*
X46750Y235123D02*
X46750Y235123D01*
X46926Y236235D01*
X47474Y237919D01*
X48277Y239497D01*
X49319Y240929D01*
X50571Y242181D01*
X52003Y243223D01*
X53581Y244026D01*
X55265Y244574D01*
X56377Y244750D01*
X56377Y235123D01*
X46750Y235123D01*
G37*
%LPD*%
%LPC*%
G36*
X97550Y235123D02*
X97550Y235123D01*
X97726Y236235D01*
X98274Y237919D01*
X99077Y239497D01*
X100119Y240929D01*
X101371Y242181D01*
X102803Y243223D01*
X104381Y244026D01*
X106065Y244574D01*
X107177Y244750D01*
X107177Y235123D01*
X97550Y235123D01*
G37*
%LPD*%
%LPC*%
G36*
X59423Y409877D02*
X59423Y409877D01*
X69050Y409877D01*
X68874Y408765D01*
X68326Y407081D01*
X67523Y405503D01*
X66481Y404071D01*
X65229Y402819D01*
X63797Y401777D01*
X62219Y400974D01*
X60535Y400426D01*
X59423Y400250D01*
X59423Y409877D01*
G37*
%LPD*%
%LPC*%
G36*
X656350Y260273D02*
X656350Y260273D01*
X656526Y261385D01*
X657074Y263069D01*
X657877Y264647D01*
X658919Y266080D01*
X660171Y267332D01*
X661603Y268373D01*
X663181Y269177D01*
X664865Y269724D01*
X665977Y269900D01*
X665977Y260273D01*
X656350Y260273D01*
G37*
%LPD*%
%LPC*%
G36*
X34023Y409877D02*
X34023Y409877D01*
X43650Y409877D01*
X43474Y408765D01*
X42926Y407081D01*
X42123Y405503D01*
X41081Y404071D01*
X39829Y402819D01*
X38397Y401777D01*
X36819Y400974D01*
X35135Y400426D01*
X34023Y400250D01*
X34023Y409877D01*
G37*
%LPD*%
%LPC*%
G36*
X110223Y79677D02*
X110223Y79677D01*
X119850Y79677D01*
X119674Y78565D01*
X119126Y76881D01*
X118323Y75303D01*
X117281Y73871D01*
X116029Y72619D01*
X114597Y71577D01*
X113019Y70774D01*
X111335Y70226D01*
X110223Y70050D01*
X110223Y79677D01*
G37*
%LPD*%
%LPC*%
G36*
X46750Y260523D02*
X46750Y260523D01*
X46926Y261635D01*
X47474Y263319D01*
X48277Y264897D01*
X49319Y266329D01*
X50571Y267581D01*
X52003Y268623D01*
X53581Y269426D01*
X55265Y269974D01*
X56377Y270150D01*
X56377Y260523D01*
X46750Y260523D01*
G37*
%LPD*%
%LPC*%
G36*
X592823Y399717D02*
X592823Y399717D01*
X602450Y399717D01*
X602274Y398605D01*
X601726Y396921D01*
X600923Y395343D01*
X599881Y393911D01*
X598629Y392659D01*
X597197Y391617D01*
X595619Y390814D01*
X593935Y390266D01*
X592823Y390090D01*
X592823Y399717D01*
G37*
%LPD*%
%LPC*%
G36*
X97550Y260523D02*
X97550Y260523D01*
X97726Y261635D01*
X98274Y263319D01*
X99077Y264897D01*
X100119Y266329D01*
X101371Y267581D01*
X102803Y268623D01*
X104381Y269426D01*
X106065Y269974D01*
X107177Y270150D01*
X107177Y260523D01*
X97550Y260523D01*
G37*
%LPD*%
%LPC*%
G36*
X630950Y387273D02*
X630950Y387273D01*
X631126Y388385D01*
X631674Y390069D01*
X632477Y391647D01*
X633519Y393080D01*
X634771Y394332D01*
X636203Y395373D01*
X637781Y396177D01*
X639465Y396724D01*
X640577Y396900D01*
X640577Y387273D01*
X630950Y387273D01*
G37*
%LPD*%
%LPC*%
G36*
X46750Y412923D02*
X46750Y412923D01*
X46926Y414035D01*
X47474Y415719D01*
X48277Y417297D01*
X49319Y418729D01*
X50571Y419981D01*
X52003Y421023D01*
X53581Y421826D01*
X55265Y422374D01*
X56377Y422550D01*
X56377Y412923D01*
X46750Y412923D01*
G37*
%LPD*%
%LPC*%
G36*
X643623Y384227D02*
X643623Y384227D01*
X653250Y384227D01*
X653074Y383116D01*
X652526Y381431D01*
X651723Y379853D01*
X650681Y378421D01*
X649429Y377169D01*
X647997Y376128D01*
X646419Y375324D01*
X644735Y374776D01*
X643623Y374600D01*
X643623Y384227D01*
G37*
%LPD*%
%LPC*%
G36*
X21350Y260523D02*
X21350Y260523D01*
X21526Y261635D01*
X22074Y263319D01*
X22877Y264897D01*
X23919Y266329D01*
X25171Y267581D01*
X26603Y268623D01*
X28181Y269426D01*
X29865Y269974D01*
X30977Y270150D01*
X30977Y260523D01*
X21350Y260523D01*
G37*
%LPD*%
%LPC*%
G36*
X110223Y232077D02*
X110223Y232077D01*
X119850Y232077D01*
X119674Y230965D01*
X119126Y229281D01*
X118323Y227703D01*
X117281Y226271D01*
X116029Y225019D01*
X114597Y223977D01*
X113019Y223174D01*
X111335Y222626D01*
X110223Y222450D01*
X110223Y232077D01*
G37*
%LPD*%
%LPC*%
G36*
X59423Y232077D02*
X59423Y232077D01*
X69050Y232077D01*
X68874Y230965D01*
X68326Y229281D01*
X67523Y227703D01*
X66481Y226271D01*
X65229Y225019D01*
X63797Y223977D01*
X62219Y223174D01*
X60535Y222626D01*
X59423Y222450D01*
X59423Y232077D01*
G37*
%LPD*%
%LPC*%
G36*
X110223Y257477D02*
X110223Y257477D01*
X119850Y257477D01*
X119674Y256365D01*
X119126Y254681D01*
X118323Y253103D01*
X117281Y251671D01*
X116029Y250419D01*
X114597Y249377D01*
X113019Y248574D01*
X111335Y248026D01*
X110223Y247850D01*
X110223Y257477D01*
G37*
%LPD*%
%LPC*%
G36*
X59423Y257477D02*
X59423Y257477D01*
X69050Y257477D01*
X68874Y256365D01*
X68326Y254681D01*
X67523Y253103D01*
X66481Y251671D01*
X65229Y250419D01*
X63797Y249377D01*
X62219Y248574D01*
X60535Y248026D01*
X59423Y247850D01*
X59423Y257477D01*
G37*
%LPD*%
%LPC*%
G36*
X34023Y257477D02*
X34023Y257477D01*
X43650Y257477D01*
X43474Y256365D01*
X42926Y254681D01*
X42123Y253103D01*
X41081Y251671D01*
X39829Y250419D01*
X38397Y249377D01*
X36819Y248574D01*
X35135Y248026D01*
X34023Y247850D01*
X34023Y257477D01*
G37*
%LPD*%
%LPC*%
G36*
X97550Y82723D02*
X97550Y82723D01*
X97726Y83835D01*
X98274Y85519D01*
X99077Y87097D01*
X100119Y88529D01*
X101371Y89781D01*
X102803Y90823D01*
X104381Y91626D01*
X106065Y92174D01*
X107177Y92350D01*
X107177Y82723D01*
X97550Y82723D01*
G37*
%LPD*%
%LPC*%
G36*
X669023Y257227D02*
X669023Y257227D01*
X678650Y257227D01*
X678474Y256116D01*
X677926Y254431D01*
X677123Y252853D01*
X676081Y251421D01*
X674829Y250169D01*
X673397Y249128D01*
X671819Y248324D01*
X670135Y247776D01*
X669023Y247600D01*
X669023Y257227D01*
G37*
%LPD*%
%LPC*%
G36*
X55265Y400426D02*
X55265Y400426D01*
X53581Y400974D01*
X52003Y401777D01*
X50571Y402819D01*
X49319Y404071D01*
X48277Y405503D01*
X47474Y407081D01*
X46926Y408765D01*
X46750Y409877D01*
X56377Y409877D01*
X56377Y400250D01*
X55265Y400426D01*
G37*
%LPD*%
%LPC*%
G36*
X29865Y400426D02*
X29865Y400426D01*
X28181Y400974D01*
X26603Y401777D01*
X25171Y402819D01*
X23919Y404071D01*
X22877Y405503D01*
X22074Y407081D01*
X21526Y408765D01*
X21350Y409877D01*
X30977Y409877D01*
X30977Y400250D01*
X29865Y400426D01*
G37*
%LPD*%
%LPC*%
G36*
X588665Y390266D02*
X588665Y390266D01*
X586981Y390814D01*
X585403Y391617D01*
X583971Y392659D01*
X582719Y393911D01*
X581677Y395343D01*
X580874Y396921D01*
X580326Y398605D01*
X580150Y399717D01*
X589777Y399717D01*
X589777Y390090D01*
X588665Y390266D01*
G37*
%LPD*%
%LPC*%
G36*
X29865Y248026D02*
X29865Y248026D01*
X28181Y248574D01*
X26603Y249377D01*
X25171Y250419D01*
X23919Y251671D01*
X22877Y253103D01*
X22074Y254681D01*
X21526Y256365D01*
X21350Y257477D01*
X30977Y257477D01*
X30977Y247850D01*
X29865Y248026D01*
G37*
%LPD*%
%LPC*%
G36*
X55265Y222626D02*
X55265Y222626D01*
X53581Y223174D01*
X52003Y223977D01*
X50571Y225019D01*
X49319Y226271D01*
X48277Y227703D01*
X47474Y229281D01*
X46926Y230965D01*
X46750Y232077D01*
X56377Y232077D01*
X56377Y222450D01*
X55265Y222626D01*
G37*
%LPD*%
%LPC*%
G36*
X106065Y222626D02*
X106065Y222626D01*
X104381Y223174D01*
X102803Y223977D01*
X101371Y225019D01*
X100119Y226271D01*
X99077Y227703D01*
X98274Y229281D01*
X97726Y230965D01*
X97550Y232077D01*
X107177Y232077D01*
X107177Y222450D01*
X106065Y222626D01*
G37*
%LPD*%
%LPC*%
G36*
X106065Y70226D02*
X106065Y70226D01*
X104381Y70774D01*
X102803Y71577D01*
X101371Y72619D01*
X100119Y73871D01*
X99077Y75303D01*
X98274Y76881D01*
X97726Y78565D01*
X97550Y79677D01*
X107177Y79677D01*
X107177Y70050D01*
X106065Y70226D01*
G37*
%LPD*%
%LPC*%
G36*
X639465Y374776D02*
X639465Y374776D01*
X637781Y375324D01*
X636203Y376128D01*
X634771Y377169D01*
X633519Y378421D01*
X632477Y379853D01*
X631674Y381431D01*
X631126Y383116D01*
X630950Y384227D01*
X640577Y384227D01*
X640577Y374600D01*
X639465Y374776D01*
G37*
%LPD*%
%LPC*%
G36*
X55265Y248026D02*
X55265Y248026D01*
X53581Y248574D01*
X52003Y249377D01*
X50571Y250419D01*
X49319Y251671D01*
X48277Y253103D01*
X47474Y254681D01*
X46926Y256365D01*
X46750Y257477D01*
X56377Y257477D01*
X56377Y247850D01*
X55265Y248026D01*
G37*
%LPD*%
%LPC*%
G36*
X106065Y248026D02*
X106065Y248026D01*
X104381Y248574D01*
X102803Y249377D01*
X101371Y250419D01*
X100119Y251671D01*
X99077Y253103D01*
X98274Y254681D01*
X97726Y256365D01*
X97550Y257477D01*
X107177Y257477D01*
X107177Y247850D01*
X106065Y248026D01*
G37*
%LPD*%
%LPC*%
G36*
X664865Y247776D02*
X664865Y247776D01*
X663181Y248324D01*
X661603Y249128D01*
X660171Y250169D01*
X658919Y251421D01*
X657877Y252853D01*
X657074Y254431D01*
X656526Y256116D01*
X656350Y257227D01*
X665977Y257227D01*
X665977Y247600D01*
X664865Y247776D01*
G37*
%LPD*%
%LPC*%
G36*
X376173Y180323D02*
X376173Y180323D01*
X376173Y186349D01*
X376896Y186205D01*
X378298Y185624D01*
X379559Y184781D01*
X380631Y183709D01*
X381474Y182448D01*
X382055Y181046D01*
X382199Y180323D01*
X376173Y180323D01*
G37*
%LPD*%
%LPC*%
G36*
X376173Y177277D02*
X376173Y177277D01*
X382199Y177277D01*
X382055Y176554D01*
X381474Y175152D01*
X380631Y173891D01*
X379559Y172819D01*
X378298Y171976D01*
X376896Y171395D01*
X376173Y171251D01*
X376173Y177277D01*
G37*
%LPD*%
%LPC*%
G36*
X57899Y411399D02*
X57899Y411399D01*
X57899Y411401D01*
X57901Y411401D01*
X57901Y411399D01*
X57899Y411399D01*
G37*
%LPD*%
%LPC*%
G36*
X32499Y411399D02*
X32499Y411399D01*
X32499Y411401D01*
X32501Y411401D01*
X32501Y411399D01*
X32499Y411399D01*
G37*
%LPD*%
%LPC*%
G36*
X591299Y401239D02*
X591299Y401239D01*
X591299Y401241D01*
X591301Y401241D01*
X591301Y401239D01*
X591299Y401239D01*
G37*
%LPD*%
%LPC*%
G36*
X108699Y81199D02*
X108699Y81199D01*
X108699Y81201D01*
X108701Y81201D01*
X108701Y81199D01*
X108699Y81199D01*
G37*
%LPD*%
%LPC*%
G36*
X642099Y385749D02*
X642099Y385749D01*
X642099Y385751D01*
X642101Y385751D01*
X642101Y385749D01*
X642099Y385749D01*
G37*
%LPD*%
%LPC*%
G36*
X108699Y258999D02*
X108699Y258999D01*
X108699Y259001D01*
X108701Y259001D01*
X108701Y258999D01*
X108699Y258999D01*
G37*
%LPD*%
%LPC*%
G36*
X57899Y258999D02*
X57899Y258999D01*
X57899Y259001D01*
X57901Y259001D01*
X57901Y258999D01*
X57899Y258999D01*
G37*
%LPD*%
%LPC*%
G36*
X32499Y258999D02*
X32499Y258999D01*
X32499Y259001D01*
X32501Y259001D01*
X32501Y258999D01*
X32499Y258999D01*
G37*
%LPD*%
%LPC*%
G36*
X667499Y258749D02*
X667499Y258749D01*
X667499Y258751D01*
X667501Y258751D01*
X667501Y258749D01*
X667499Y258749D01*
G37*
%LPD*%
%LPC*%
G36*
X108699Y233599D02*
X108699Y233599D01*
X108699Y233601D01*
X108701Y233601D01*
X108701Y233599D01*
X108699Y233599D01*
G37*
%LPD*%
%LPC*%
G36*
X57899Y233599D02*
X57899Y233599D01*
X57899Y233601D01*
X57901Y233601D01*
X57901Y233599D01*
X57899Y233599D01*
G37*
%LPD*%
D10*
X374650Y178800D03*
X361950Y178800D03*
X349250Y178800D03*
X336550Y178800D03*
X323850Y178800D03*
X311150Y178800D03*
D11*
X108700Y157400D03*
D12*
X108700Y132000D03*
X108700Y106600D03*
X108700Y81200D03*
X108700Y55800D03*
X108700Y30400D03*
D11*
X108700Y386000D03*
D12*
X108700Y360600D03*
X108700Y335200D03*
X108700Y309800D03*
X108700Y284400D03*
X108700Y259000D03*
X108700Y233600D03*
X108700Y208200D03*
D11*
X32500Y487600D03*
D12*
X57900Y487600D03*
X32500Y462200D03*
X57900Y462200D03*
X32500Y436800D03*
X57900Y436800D03*
X32500Y411400D03*
X57900Y411400D03*
X32500Y386000D03*
X57900Y386000D03*
X32500Y360600D03*
X57900Y360600D03*
X32500Y335200D03*
X57900Y335200D03*
X32500Y309800D03*
X57900Y309800D03*
X32500Y284400D03*
X57900Y284400D03*
X32500Y259000D03*
X57900Y259000D03*
X32500Y233600D03*
X57900Y233600D03*
X32500Y208200D03*
X57900Y208200D03*
X32500Y182800D03*
X57900Y182800D03*
X32500Y157400D03*
X57900Y157400D03*
X32500Y132000D03*
X57900Y132000D03*
X32500Y106600D03*
X57900Y106600D03*
X32500Y81200D03*
X57900Y81200D03*
X32500Y55800D03*
X57900Y55800D03*
X32500Y30400D03*
X57900Y30400D03*
D11*
X591300Y248840D03*
D12*
X591300Y274240D03*
X591300Y299640D03*
X591300Y325040D03*
X591300Y350440D03*
X591300Y375840D03*
X591300Y401240D03*
X591300Y426640D03*
X591300Y452040D03*
X591300Y477440D03*
X591300Y81200D03*
X591300Y106600D03*
X591300Y132000D03*
X591300Y157400D03*
X591300Y182800D03*
X591300Y208200D03*
D11*
X591300Y30400D03*
D12*
X591300Y55800D03*
D11*
X642100Y487350D03*
D12*
X667500Y487350D03*
X642100Y461950D03*
X667500Y461950D03*
X642100Y436550D03*
X667500Y436550D03*
X642100Y411150D03*
X667500Y411150D03*
X642100Y385750D03*
X667500Y385750D03*
X642100Y360350D03*
X667500Y360350D03*
X642100Y334950D03*
X667500Y334950D03*
X642100Y309550D03*
X667500Y309550D03*
X642100Y284150D03*
X667500Y284150D03*
X642100Y258750D03*
X667500Y258750D03*
X642100Y233350D03*
X667500Y233350D03*
X642100Y207950D03*
X667500Y207950D03*
X642100Y182550D03*
X667500Y182550D03*
X642100Y157150D03*
X667500Y157150D03*
X642100Y131750D03*
X667500Y131750D03*
X642100Y106350D03*
X667500Y106350D03*
X642100Y80950D03*
X667500Y80950D03*
X642100Y55550D03*
X667500Y55550D03*
X642100Y30150D03*
X667500Y30150D03*
D13*
X170180Y312420D03*
X167640Y289560D03*
X200660Y226060D03*
X378460Y35560D03*
X556260Y223520D03*
X378460Y401320D03*
X373380Y160020D03*
X347980Y160020D03*
M02*
