G04 EAGLE Gerber RS-274X export*
G75*
%MOMM*%
%FSLAX34Y34*%
%LPD*%
%INSolderpaste Top*%
%IPPOS*%
%AMOC8*
5,1,8,0,0,1.08239X$1,22.5*%
G01*
%ADD10R,1.300000X1.500000*%
%ADD11R,1.100000X1.000000*%
%ADD12C,0.450000*%


D10*
X134747Y313868D03*
X153747Y313868D03*
D11*
X135112Y289433D03*
X152112Y289433D03*
D12*
X319150Y65050D02*
X323650Y65050D01*
X319150Y65050D02*
X319150Y69550D01*
X323650Y69550D01*
X323650Y65050D01*
X323650Y69325D02*
X319150Y69325D01*
X319150Y32050D02*
X323650Y32050D01*
X319150Y32050D02*
X319150Y36550D01*
X323650Y36550D01*
X323650Y32050D01*
X323650Y36325D02*
X319150Y36325D01*
X362150Y65050D02*
X366650Y65050D01*
X362150Y65050D02*
X362150Y69550D01*
X366650Y69550D01*
X366650Y65050D01*
X366650Y69325D02*
X362150Y69325D01*
X362150Y32050D02*
X366650Y32050D01*
X362150Y32050D02*
X362150Y36550D01*
X366650Y36550D01*
X366650Y32050D01*
X366650Y36325D02*
X362150Y36325D01*
X145850Y255550D02*
X141350Y255550D01*
X141350Y260050D01*
X145850Y260050D01*
X145850Y255550D01*
X145850Y259825D02*
X141350Y259825D01*
X141350Y222550D02*
X145850Y222550D01*
X141350Y222550D02*
X141350Y227050D01*
X145850Y227050D01*
X145850Y222550D01*
X145850Y226825D02*
X141350Y226825D01*
X184350Y255550D02*
X188850Y255550D01*
X184350Y255550D02*
X184350Y260050D01*
X188850Y260050D01*
X188850Y255550D01*
X188850Y259825D02*
X184350Y259825D01*
X184350Y222550D02*
X188850Y222550D01*
X184350Y222550D02*
X184350Y227050D01*
X188850Y227050D01*
X188850Y222550D01*
X188850Y226825D02*
X184350Y226825D01*
X319150Y433350D02*
X323650Y433350D01*
X319150Y433350D02*
X319150Y437850D01*
X323650Y437850D01*
X323650Y433350D01*
X323650Y437625D02*
X319150Y437625D01*
X319150Y400350D02*
X323650Y400350D01*
X319150Y400350D02*
X319150Y404850D01*
X323650Y404850D01*
X323650Y400350D01*
X323650Y404625D02*
X319150Y404625D01*
X362150Y433350D02*
X366650Y433350D01*
X362150Y433350D02*
X362150Y437850D01*
X366650Y437850D01*
X366650Y433350D01*
X366650Y437625D02*
X362150Y437625D01*
X362150Y400350D02*
X366650Y400350D01*
X362150Y400350D02*
X362150Y404850D01*
X366650Y404850D01*
X366650Y400350D01*
X366650Y404625D02*
X362150Y404625D01*
X496950Y255550D02*
X501450Y255550D01*
X496950Y255550D02*
X496950Y260050D01*
X501450Y260050D01*
X501450Y255550D01*
X501450Y259825D02*
X496950Y259825D01*
X496950Y222550D02*
X501450Y222550D01*
X496950Y222550D02*
X496950Y227050D01*
X501450Y227050D01*
X501450Y222550D01*
X501450Y226825D02*
X496950Y226825D01*
X539950Y255550D02*
X544450Y255550D01*
X539950Y255550D02*
X539950Y260050D01*
X544450Y260050D01*
X544450Y255550D01*
X544450Y259825D02*
X539950Y259825D01*
X539950Y222550D02*
X544450Y222550D01*
X539950Y222550D02*
X539950Y227050D01*
X544450Y227050D01*
X544450Y222550D01*
X544450Y226825D02*
X539950Y226825D01*
D10*
X282600Y114300D03*
X301600Y114300D03*
X333400Y114300D03*
X352400Y114300D03*
X384200Y114300D03*
X403200Y114300D03*
M02*
