G04 EAGLE Gerber RS-274X export*
G75*
%MOMM*%
%FSLAX34Y34*%
%LPD*%
%INTop Copper*%
%IPPOS*%
%AMOC8*
5,1,8,0,0,1.08239X$1,22.5*%
G01*
%ADD10R,1.300000X1.500000*%
%ADD11R,1.100000X1.000000*%
%ADD12C,1.140000*%
%ADD13C,0.450000*%
%ADD14R,1.850000X1.850000*%
%ADD15C,1.850000*%
%ADD16C,0.254000*%
%ADD17C,0.500000*%


D10*
X134747Y313868D03*
X153747Y313868D03*
D11*
X135112Y289433D03*
X152112Y289433D03*
D12*
X374650Y178800D03*
X361950Y178800D03*
X349250Y178800D03*
X336550Y178800D03*
X323850Y178800D03*
X311150Y178800D03*
D13*
X319150Y65050D02*
X323650Y65050D01*
X319150Y65050D02*
X319150Y69550D01*
X323650Y69550D01*
X323650Y65050D01*
X323650Y69325D02*
X319150Y69325D01*
X319150Y32050D02*
X323650Y32050D01*
X319150Y32050D02*
X319150Y36550D01*
X323650Y36550D01*
X323650Y32050D01*
X323650Y36325D02*
X319150Y36325D01*
X362150Y65050D02*
X366650Y65050D01*
X362150Y65050D02*
X362150Y69550D01*
X366650Y69550D01*
X366650Y65050D01*
X366650Y69325D02*
X362150Y69325D01*
X362150Y32050D02*
X366650Y32050D01*
X362150Y32050D02*
X362150Y36550D01*
X366650Y36550D01*
X366650Y32050D01*
X366650Y36325D02*
X362150Y36325D01*
X145850Y255550D02*
X141350Y255550D01*
X141350Y260050D01*
X145850Y260050D01*
X145850Y255550D01*
X145850Y259825D02*
X141350Y259825D01*
X141350Y222550D02*
X145850Y222550D01*
X141350Y222550D02*
X141350Y227050D01*
X145850Y227050D01*
X145850Y222550D01*
X145850Y226825D02*
X141350Y226825D01*
X184350Y255550D02*
X188850Y255550D01*
X184350Y255550D02*
X184350Y260050D01*
X188850Y260050D01*
X188850Y255550D01*
X188850Y259825D02*
X184350Y259825D01*
X184350Y222550D02*
X188850Y222550D01*
X184350Y222550D02*
X184350Y227050D01*
X188850Y227050D01*
X188850Y222550D01*
X188850Y226825D02*
X184350Y226825D01*
X319150Y433350D02*
X323650Y433350D01*
X319150Y433350D02*
X319150Y437850D01*
X323650Y437850D01*
X323650Y433350D01*
X323650Y437625D02*
X319150Y437625D01*
X319150Y400350D02*
X323650Y400350D01*
X319150Y400350D02*
X319150Y404850D01*
X323650Y404850D01*
X323650Y400350D01*
X323650Y404625D02*
X319150Y404625D01*
X362150Y433350D02*
X366650Y433350D01*
X362150Y433350D02*
X362150Y437850D01*
X366650Y437850D01*
X366650Y433350D01*
X366650Y437625D02*
X362150Y437625D01*
X362150Y400350D02*
X366650Y400350D01*
X362150Y400350D02*
X362150Y404850D01*
X366650Y404850D01*
X366650Y400350D01*
X366650Y404625D02*
X362150Y404625D01*
X496950Y255550D02*
X501450Y255550D01*
X496950Y255550D02*
X496950Y260050D01*
X501450Y260050D01*
X501450Y255550D01*
X501450Y259825D02*
X496950Y259825D01*
X496950Y222550D02*
X501450Y222550D01*
X496950Y222550D02*
X496950Y227050D01*
X501450Y227050D01*
X501450Y222550D01*
X501450Y226825D02*
X496950Y226825D01*
X539950Y255550D02*
X544450Y255550D01*
X539950Y255550D02*
X539950Y260050D01*
X544450Y260050D01*
X544450Y255550D01*
X544450Y259825D02*
X539950Y259825D01*
X539950Y222550D02*
X544450Y222550D01*
X539950Y222550D02*
X539950Y227050D01*
X544450Y227050D01*
X544450Y222550D01*
X544450Y226825D02*
X539950Y226825D01*
D14*
X108700Y157400D03*
D15*
X108700Y132000D03*
X108700Y106600D03*
X108700Y81200D03*
X108700Y55800D03*
X108700Y30400D03*
D14*
X108700Y386000D03*
D15*
X108700Y360600D03*
X108700Y335200D03*
X108700Y309800D03*
X108700Y284400D03*
X108700Y259000D03*
X108700Y233600D03*
X108700Y208200D03*
D14*
X32500Y487600D03*
D15*
X57900Y487600D03*
X32500Y462200D03*
X57900Y462200D03*
X32500Y436800D03*
X57900Y436800D03*
X32500Y411400D03*
X57900Y411400D03*
X32500Y386000D03*
X57900Y386000D03*
X32500Y360600D03*
X57900Y360600D03*
X32500Y335200D03*
X57900Y335200D03*
X32500Y309800D03*
X57900Y309800D03*
X32500Y284400D03*
X57900Y284400D03*
X32500Y259000D03*
X57900Y259000D03*
X32500Y233600D03*
X57900Y233600D03*
X32500Y208200D03*
X57900Y208200D03*
X32500Y182800D03*
X57900Y182800D03*
X32500Y157400D03*
X57900Y157400D03*
X32500Y132000D03*
X57900Y132000D03*
X32500Y106600D03*
X57900Y106600D03*
X32500Y81200D03*
X57900Y81200D03*
X32500Y55800D03*
X57900Y55800D03*
X32500Y30400D03*
X57900Y30400D03*
D14*
X591300Y248840D03*
D15*
X591300Y274240D03*
X591300Y299640D03*
X591300Y325040D03*
X591300Y350440D03*
X591300Y375840D03*
X591300Y401240D03*
X591300Y426640D03*
X591300Y452040D03*
X591300Y477440D03*
X591300Y81200D03*
X591300Y106600D03*
X591300Y132000D03*
X591300Y157400D03*
X591300Y182800D03*
X591300Y208200D03*
D14*
X591300Y30400D03*
D15*
X591300Y55800D03*
D14*
X642100Y487350D03*
D15*
X667500Y487350D03*
X642100Y461950D03*
X667500Y461950D03*
X642100Y436550D03*
X667500Y436550D03*
X642100Y411150D03*
X667500Y411150D03*
X642100Y385750D03*
X667500Y385750D03*
X642100Y360350D03*
X667500Y360350D03*
X642100Y334950D03*
X667500Y334950D03*
X642100Y309550D03*
X667500Y309550D03*
X642100Y284150D03*
X667500Y284150D03*
X642100Y258750D03*
X667500Y258750D03*
X642100Y233350D03*
X667500Y233350D03*
X642100Y207950D03*
X667500Y207950D03*
X642100Y182550D03*
X667500Y182550D03*
X642100Y157150D03*
X667500Y157150D03*
X642100Y131750D03*
X667500Y131750D03*
X642100Y106350D03*
X667500Y106350D03*
X642100Y80950D03*
X667500Y80950D03*
X642100Y55550D03*
X667500Y55550D03*
X642100Y30150D03*
X667500Y30150D03*
D10*
X282600Y114300D03*
X301600Y114300D03*
X333400Y114300D03*
X352400Y114300D03*
X384200Y114300D03*
X403200Y114300D03*
D16*
X108700Y309800D02*
X57900Y309800D01*
X135980Y257800D02*
X143600Y257800D01*
X135980Y257800D02*
X135112Y258668D01*
X135112Y279400D01*
X135112Y289433D01*
X135112Y313503D01*
X134747Y313868D01*
X108700Y287821D01*
X108700Y284400D01*
X301600Y114300D02*
X301600Y69100D01*
X321400Y67300D02*
X322680Y68580D01*
X351880Y68580D01*
X321400Y67300D02*
X319600Y69100D01*
X301600Y69100D01*
X383260Y113360D02*
X384200Y114300D01*
X383260Y113360D02*
X353340Y113360D01*
X351880Y113360D01*
X352400Y114300D02*
X353340Y113360D01*
X499200Y257800D02*
X509360Y247640D01*
X509360Y96520D01*
X401980Y96520D02*
X384200Y114300D01*
X401980Y96520D02*
X509360Y96520D01*
X321400Y435600D02*
X331560Y445760D01*
X509360Y445760D01*
X509360Y267960D01*
X499200Y257800D01*
X321400Y435600D02*
X311240Y445760D01*
X179160Y445760D01*
X179160Y279434D01*
X179126Y279400D01*
X135112Y279400D01*
X301600Y169250D02*
X301600Y114300D01*
X301600Y169250D02*
X311150Y178800D01*
X351880Y113360D02*
X351880Y68580D01*
X108700Y284400D02*
X57900Y284400D01*
X57900Y208200D02*
X108700Y208200D01*
X606790Y411150D02*
X642100Y411150D01*
X606790Y411150D02*
X591300Y426640D01*
X364400Y67300D02*
X352980Y55880D01*
X137160Y55880D01*
X137160Y7620D01*
X81280Y7620D01*
X81280Y187960D01*
X86360Y193040D01*
X134620Y193040D01*
X143600Y202020D01*
X143600Y224800D01*
X189140Y260340D02*
X189140Y402600D01*
X189140Y260340D02*
X186600Y257800D01*
X189140Y402600D02*
X321400Y402600D01*
X499200Y238547D02*
X499200Y224800D01*
X499200Y238547D02*
X489366Y248381D01*
X489366Y268386D01*
X500380Y279400D01*
X500380Y436880D01*
X365680Y436880D01*
X364400Y435600D01*
X155194Y312420D02*
X153747Y313868D01*
X155194Y312420D02*
X170180Y312420D01*
D17*
X170180Y312420D03*
D16*
X167513Y289433D02*
X152112Y289433D01*
X167513Y289433D02*
X167640Y289560D01*
D17*
X167640Y289560D03*
D16*
X187860Y226060D02*
X186600Y224800D01*
X187860Y226060D02*
X200660Y226060D01*
D17*
X200660Y226060D03*
D16*
X365660Y35560D02*
X364400Y34300D01*
X365660Y35560D02*
X378460Y35560D01*
D17*
X378460Y35560D03*
D16*
X543480Y223520D02*
X542200Y224800D01*
X543480Y223520D02*
X556260Y223520D01*
D17*
X556260Y223520D03*
D16*
X365680Y401320D02*
X364400Y402600D01*
X365680Y401320D02*
X378460Y401320D01*
D17*
X378460Y401320D03*
D16*
X374650Y178800D02*
X374650Y161290D01*
X373380Y160020D01*
D17*
X373380Y160020D03*
D16*
X349250Y161290D02*
X349250Y178800D01*
X349250Y161290D02*
X347980Y160020D01*
D17*
X347980Y160020D03*
D16*
X239500Y157400D02*
X108700Y157400D01*
X239500Y157400D02*
X282600Y114300D01*
X282600Y193040D01*
X325120Y193040D01*
X325120Y180070D01*
X323850Y178800D01*
X336550Y117450D02*
X333400Y114300D01*
X336550Y117450D02*
X336550Y178800D01*
X336550Y201930D01*
X335280Y203200D01*
X179900Y203200D01*
X158530Y181830D01*
X90920Y181830D01*
X90920Y149780D01*
X108700Y132000D01*
X403200Y114300D02*
X403200Y200660D01*
X363220Y200660D01*
X361950Y199390D02*
X361950Y178800D01*
X361950Y199390D02*
X363220Y200660D01*
X326480Y34300D02*
X321400Y34300D01*
X326480Y34300D02*
X338916Y46736D01*
X583263Y46736D01*
X591300Y54773D02*
X591300Y55800D01*
X591300Y54773D02*
X583263Y46736D01*
M02*
