G04 EAGLE Gerber RS-274X export*
G75*
%MOMM*%
%FSLAX34Y34*%
%LPD*%
%INSilkscreen Top*%
%IPPOS*%
%AMOC8*
5,1,8,0,0,1.08239X$1,22.5*%
G01*
%ADD10C,0.152400*%
%ADD11C,0.101600*%
%ADD12C,0.127000*%


D10*
X189004Y518922D02*
X181102Y518922D01*
X181102Y536702D01*
X189004Y536702D01*
X187029Y528800D02*
X181102Y528800D01*
X195590Y536702D02*
X195590Y518922D01*
X205468Y518922D02*
X195590Y536702D01*
X205468Y536702D02*
X205468Y518922D01*
X216814Y518922D02*
X220765Y518922D01*
X216814Y518922D02*
X216690Y518924D01*
X216566Y518930D01*
X216442Y518940D01*
X216319Y518953D01*
X216196Y518971D01*
X216074Y518992D01*
X215952Y519017D01*
X215831Y519046D01*
X215712Y519079D01*
X215593Y519115D01*
X215476Y519156D01*
X215360Y519199D01*
X215245Y519247D01*
X215132Y519298D01*
X215020Y519353D01*
X214911Y519411D01*
X214803Y519472D01*
X214697Y519537D01*
X214593Y519605D01*
X214492Y519677D01*
X214392Y519751D01*
X214296Y519829D01*
X214201Y519909D01*
X214109Y519993D01*
X214020Y520079D01*
X213934Y520168D01*
X213850Y520260D01*
X213770Y520355D01*
X213692Y520451D01*
X213618Y520551D01*
X213546Y520652D01*
X213478Y520756D01*
X213413Y520862D01*
X213352Y520970D01*
X213294Y521079D01*
X213239Y521191D01*
X213188Y521304D01*
X213140Y521419D01*
X213097Y521535D01*
X213056Y521652D01*
X213020Y521771D01*
X212987Y521890D01*
X212958Y522011D01*
X212933Y522133D01*
X212912Y522255D01*
X212894Y522378D01*
X212881Y522501D01*
X212871Y522625D01*
X212865Y522749D01*
X212863Y522873D01*
X212863Y532751D01*
X212865Y532875D01*
X212871Y532999D01*
X212881Y533123D01*
X212894Y533246D01*
X212912Y533369D01*
X212933Y533491D01*
X212958Y533613D01*
X212987Y533734D01*
X213020Y533853D01*
X213056Y533972D01*
X213097Y534089D01*
X213140Y534205D01*
X213188Y534320D01*
X213239Y534433D01*
X213294Y534545D01*
X213352Y534654D01*
X213413Y534762D01*
X213478Y534868D01*
X213546Y534972D01*
X213618Y535073D01*
X213692Y535173D01*
X213770Y535269D01*
X213850Y535364D01*
X213934Y535456D01*
X214020Y535545D01*
X214109Y535631D01*
X214201Y535715D01*
X214296Y535795D01*
X214392Y535873D01*
X214492Y535947D01*
X214593Y536019D01*
X214697Y536087D01*
X214803Y536152D01*
X214911Y536213D01*
X215020Y536271D01*
X215132Y536326D01*
X215245Y536377D01*
X215360Y536425D01*
X215476Y536468D01*
X215593Y536509D01*
X215712Y536545D01*
X215831Y536578D01*
X215952Y536607D01*
X216074Y536632D01*
X216196Y536653D01*
X216319Y536671D01*
X216442Y536684D01*
X216566Y536694D01*
X216690Y536700D01*
X216814Y536702D01*
X220765Y536702D01*
X226858Y531763D02*
X226858Y523861D01*
X226858Y531763D02*
X226860Y531903D01*
X226866Y532042D01*
X226876Y532182D01*
X226890Y532321D01*
X226907Y532460D01*
X226929Y532598D01*
X226955Y532735D01*
X226984Y532872D01*
X227017Y533008D01*
X227054Y533142D01*
X227095Y533276D01*
X227140Y533408D01*
X227189Y533540D01*
X227241Y533669D01*
X227296Y533797D01*
X227356Y533924D01*
X227419Y534049D01*
X227485Y534172D01*
X227555Y534293D01*
X227628Y534412D01*
X227705Y534529D01*
X227785Y534643D01*
X227868Y534756D01*
X227954Y534866D01*
X228044Y534973D01*
X228136Y535078D01*
X228231Y535180D01*
X228329Y535280D01*
X228430Y535377D01*
X228534Y535471D01*
X228640Y535561D01*
X228749Y535649D01*
X228860Y535734D01*
X228974Y535815D01*
X229089Y535894D01*
X229207Y535969D01*
X229328Y536040D01*
X229450Y536108D01*
X229573Y536173D01*
X229699Y536234D01*
X229827Y536292D01*
X229955Y536346D01*
X230086Y536396D01*
X230218Y536443D01*
X230351Y536486D01*
X230485Y536525D01*
X230620Y536560D01*
X230756Y536591D01*
X230894Y536619D01*
X231031Y536642D01*
X231170Y536662D01*
X231309Y536678D01*
X231448Y536690D01*
X231587Y536698D01*
X231727Y536702D01*
X231867Y536702D01*
X232007Y536698D01*
X232146Y536690D01*
X232285Y536678D01*
X232424Y536662D01*
X232563Y536642D01*
X232700Y536619D01*
X232838Y536591D01*
X232974Y536560D01*
X233109Y536525D01*
X233243Y536486D01*
X233376Y536443D01*
X233508Y536396D01*
X233639Y536346D01*
X233767Y536292D01*
X233895Y536234D01*
X234021Y536173D01*
X234144Y536108D01*
X234267Y536040D01*
X234387Y535969D01*
X234505Y535894D01*
X234620Y535815D01*
X234734Y535734D01*
X234845Y535649D01*
X234954Y535561D01*
X235060Y535471D01*
X235164Y535377D01*
X235265Y535280D01*
X235363Y535180D01*
X235458Y535078D01*
X235550Y534973D01*
X235640Y534866D01*
X235726Y534756D01*
X235809Y534643D01*
X235889Y534529D01*
X235966Y534412D01*
X236039Y534293D01*
X236109Y534172D01*
X236175Y534049D01*
X236238Y533924D01*
X236298Y533797D01*
X236353Y533669D01*
X236405Y533540D01*
X236454Y533408D01*
X236499Y533276D01*
X236540Y533142D01*
X236577Y533008D01*
X236610Y532872D01*
X236639Y532735D01*
X236665Y532598D01*
X236687Y532460D01*
X236704Y532321D01*
X236718Y532182D01*
X236728Y532042D01*
X236734Y531903D01*
X236736Y531763D01*
X236736Y523861D01*
X236734Y523721D01*
X236728Y523582D01*
X236718Y523442D01*
X236704Y523303D01*
X236687Y523164D01*
X236665Y523026D01*
X236639Y522889D01*
X236610Y522752D01*
X236577Y522616D01*
X236540Y522482D01*
X236499Y522348D01*
X236454Y522216D01*
X236405Y522084D01*
X236353Y521955D01*
X236298Y521827D01*
X236238Y521700D01*
X236175Y521575D01*
X236109Y521452D01*
X236039Y521331D01*
X235966Y521212D01*
X235889Y521095D01*
X235809Y520981D01*
X235726Y520868D01*
X235640Y520758D01*
X235550Y520651D01*
X235458Y520546D01*
X235363Y520444D01*
X235265Y520344D01*
X235164Y520247D01*
X235060Y520153D01*
X234954Y520063D01*
X234845Y519975D01*
X234734Y519890D01*
X234620Y519809D01*
X234505Y519730D01*
X234387Y519655D01*
X234267Y519584D01*
X234144Y519516D01*
X234021Y519451D01*
X233895Y519390D01*
X233767Y519332D01*
X233639Y519278D01*
X233508Y519228D01*
X233376Y519181D01*
X233243Y519138D01*
X233109Y519099D01*
X232974Y519064D01*
X232838Y519033D01*
X232700Y519005D01*
X232563Y518982D01*
X232424Y518962D01*
X232285Y518946D01*
X232146Y518934D01*
X232007Y518926D01*
X231867Y518922D01*
X231727Y518922D01*
X231587Y518926D01*
X231448Y518934D01*
X231309Y518946D01*
X231170Y518962D01*
X231031Y518982D01*
X230894Y519005D01*
X230756Y519033D01*
X230620Y519064D01*
X230485Y519099D01*
X230351Y519138D01*
X230218Y519181D01*
X230086Y519228D01*
X229955Y519278D01*
X229827Y519332D01*
X229699Y519390D01*
X229573Y519451D01*
X229450Y519516D01*
X229328Y519584D01*
X229207Y519655D01*
X229089Y519730D01*
X228974Y519809D01*
X228860Y519890D01*
X228749Y519975D01*
X228640Y520063D01*
X228534Y520153D01*
X228430Y520247D01*
X228329Y520344D01*
X228231Y520444D01*
X228136Y520546D01*
X228044Y520651D01*
X227954Y520758D01*
X227868Y520868D01*
X227785Y520981D01*
X227705Y521095D01*
X227628Y521212D01*
X227555Y521331D01*
X227485Y521452D01*
X227419Y521575D01*
X227356Y521700D01*
X227296Y521827D01*
X227241Y521955D01*
X227189Y522084D01*
X227140Y522216D01*
X227095Y522348D01*
X227054Y522482D01*
X227017Y522616D01*
X226984Y522752D01*
X226955Y522889D01*
X226929Y523026D01*
X226907Y523164D01*
X226890Y523303D01*
X226876Y523442D01*
X226866Y523582D01*
X226860Y523721D01*
X226858Y523861D01*
X244167Y518922D02*
X244167Y536702D01*
X249106Y536702D01*
X249245Y536700D01*
X249383Y536694D01*
X249521Y536685D01*
X249659Y536671D01*
X249796Y536654D01*
X249933Y536632D01*
X250070Y536607D01*
X250205Y536578D01*
X250340Y536545D01*
X250473Y536509D01*
X250606Y536469D01*
X250737Y536425D01*
X250867Y536377D01*
X250996Y536326D01*
X251123Y536271D01*
X251249Y536213D01*
X251373Y536151D01*
X251495Y536086D01*
X251615Y536017D01*
X251734Y535945D01*
X251850Y535870D01*
X251964Y535791D01*
X252076Y535709D01*
X252185Y535624D01*
X252293Y535537D01*
X252397Y535446D01*
X252499Y535352D01*
X252598Y535255D01*
X252695Y535156D01*
X252789Y535054D01*
X252880Y534950D01*
X252967Y534842D01*
X253052Y534733D01*
X253134Y534621D01*
X253213Y534507D01*
X253288Y534391D01*
X253360Y534272D01*
X253429Y534152D01*
X253494Y534030D01*
X253556Y533906D01*
X253614Y533780D01*
X253669Y533653D01*
X253720Y533524D01*
X253768Y533394D01*
X253812Y533263D01*
X253852Y533130D01*
X253888Y532997D01*
X253921Y532862D01*
X253950Y532727D01*
X253975Y532590D01*
X253997Y532453D01*
X254014Y532316D01*
X254028Y532178D01*
X254037Y532040D01*
X254043Y531902D01*
X254045Y531763D01*
X254044Y531763D02*
X254044Y523861D01*
X254045Y523861D02*
X254043Y523722D01*
X254037Y523584D01*
X254028Y523446D01*
X254014Y523308D01*
X253997Y523171D01*
X253975Y523034D01*
X253950Y522897D01*
X253921Y522762D01*
X253888Y522627D01*
X253852Y522494D01*
X253812Y522361D01*
X253768Y522230D01*
X253720Y522100D01*
X253669Y521971D01*
X253614Y521844D01*
X253556Y521718D01*
X253494Y521594D01*
X253429Y521472D01*
X253360Y521352D01*
X253288Y521233D01*
X253213Y521117D01*
X253134Y521003D01*
X253052Y520891D01*
X252967Y520782D01*
X252880Y520674D01*
X252789Y520570D01*
X252695Y520468D01*
X252598Y520369D01*
X252499Y520272D01*
X252397Y520178D01*
X252293Y520087D01*
X252185Y520000D01*
X252076Y519915D01*
X251964Y519833D01*
X251850Y519754D01*
X251734Y519679D01*
X251615Y519607D01*
X251495Y519538D01*
X251373Y519473D01*
X251249Y519411D01*
X251123Y519353D01*
X250996Y519298D01*
X250867Y519247D01*
X250737Y519199D01*
X250606Y519155D01*
X250473Y519115D01*
X250340Y519079D01*
X250205Y519046D01*
X250070Y519017D01*
X249933Y518992D01*
X249796Y518970D01*
X249659Y518953D01*
X249521Y518939D01*
X249383Y518930D01*
X249245Y518924D01*
X249106Y518922D01*
X244167Y518922D01*
X262062Y518922D02*
X269965Y518922D01*
X262062Y518922D02*
X262062Y536702D01*
X269965Y536702D01*
X267989Y528800D02*
X262062Y528800D01*
X276636Y536702D02*
X276636Y518922D01*
X276636Y536702D02*
X281575Y536702D01*
X281715Y536700D01*
X281854Y536694D01*
X281994Y536684D01*
X282133Y536670D01*
X282272Y536653D01*
X282410Y536631D01*
X282547Y536605D01*
X282684Y536576D01*
X282820Y536543D01*
X282954Y536506D01*
X283088Y536465D01*
X283220Y536420D01*
X283352Y536371D01*
X283481Y536319D01*
X283609Y536264D01*
X283736Y536204D01*
X283861Y536141D01*
X283984Y536075D01*
X284105Y536005D01*
X284224Y535932D01*
X284341Y535855D01*
X284455Y535775D01*
X284568Y535692D01*
X284678Y535606D01*
X284785Y535516D01*
X284890Y535424D01*
X284992Y535329D01*
X285092Y535231D01*
X285189Y535130D01*
X285283Y535026D01*
X285373Y534920D01*
X285461Y534811D01*
X285546Y534700D01*
X285627Y534586D01*
X285706Y534471D01*
X285781Y534353D01*
X285852Y534233D01*
X285920Y534110D01*
X285985Y533987D01*
X286046Y533861D01*
X286104Y533733D01*
X286158Y533605D01*
X286208Y533474D01*
X286255Y533342D01*
X286298Y533209D01*
X286337Y533075D01*
X286372Y532940D01*
X286403Y532804D01*
X286431Y532666D01*
X286454Y532529D01*
X286474Y532390D01*
X286490Y532251D01*
X286502Y532112D01*
X286510Y531973D01*
X286514Y531833D01*
X286514Y531693D01*
X286510Y531553D01*
X286502Y531414D01*
X286490Y531275D01*
X286474Y531136D01*
X286454Y530997D01*
X286431Y530860D01*
X286403Y530722D01*
X286372Y530586D01*
X286337Y530451D01*
X286298Y530317D01*
X286255Y530184D01*
X286208Y530052D01*
X286158Y529921D01*
X286104Y529793D01*
X286046Y529665D01*
X285985Y529539D01*
X285920Y529416D01*
X285852Y529294D01*
X285781Y529173D01*
X285706Y529055D01*
X285627Y528940D01*
X285546Y528826D01*
X285461Y528715D01*
X285373Y528606D01*
X285283Y528500D01*
X285189Y528396D01*
X285092Y528295D01*
X284992Y528197D01*
X284890Y528102D01*
X284785Y528010D01*
X284678Y527920D01*
X284568Y527834D01*
X284455Y527751D01*
X284341Y527671D01*
X284224Y527594D01*
X284105Y527521D01*
X283984Y527451D01*
X283861Y527385D01*
X283736Y527322D01*
X283609Y527262D01*
X283481Y527207D01*
X283352Y527155D01*
X283220Y527106D01*
X283088Y527061D01*
X282954Y527020D01*
X282820Y526983D01*
X282684Y526950D01*
X282547Y526921D01*
X282410Y526895D01*
X282272Y526873D01*
X282133Y526856D01*
X281994Y526842D01*
X281854Y526832D01*
X281715Y526826D01*
X281575Y526824D01*
X276636Y526824D01*
X282563Y526824D02*
X286514Y518922D01*
X302235Y523861D02*
X302235Y531763D01*
X302237Y531903D01*
X302243Y532042D01*
X302253Y532182D01*
X302267Y532321D01*
X302284Y532460D01*
X302306Y532598D01*
X302332Y532735D01*
X302361Y532872D01*
X302394Y533008D01*
X302431Y533142D01*
X302472Y533276D01*
X302517Y533408D01*
X302566Y533540D01*
X302618Y533669D01*
X302673Y533797D01*
X302733Y533924D01*
X302796Y534049D01*
X302862Y534172D01*
X302932Y534293D01*
X303005Y534412D01*
X303082Y534529D01*
X303162Y534643D01*
X303245Y534756D01*
X303331Y534866D01*
X303421Y534973D01*
X303513Y535078D01*
X303608Y535180D01*
X303706Y535280D01*
X303807Y535377D01*
X303911Y535471D01*
X304017Y535561D01*
X304126Y535649D01*
X304237Y535734D01*
X304351Y535815D01*
X304466Y535894D01*
X304584Y535969D01*
X304705Y536040D01*
X304827Y536108D01*
X304950Y536173D01*
X305076Y536234D01*
X305204Y536292D01*
X305332Y536346D01*
X305463Y536396D01*
X305595Y536443D01*
X305728Y536486D01*
X305862Y536525D01*
X305997Y536560D01*
X306133Y536591D01*
X306271Y536619D01*
X306408Y536642D01*
X306547Y536662D01*
X306686Y536678D01*
X306825Y536690D01*
X306964Y536698D01*
X307104Y536702D01*
X307244Y536702D01*
X307384Y536698D01*
X307523Y536690D01*
X307662Y536678D01*
X307801Y536662D01*
X307940Y536642D01*
X308077Y536619D01*
X308215Y536591D01*
X308351Y536560D01*
X308486Y536525D01*
X308620Y536486D01*
X308753Y536443D01*
X308885Y536396D01*
X309016Y536346D01*
X309144Y536292D01*
X309272Y536234D01*
X309398Y536173D01*
X309521Y536108D01*
X309644Y536040D01*
X309764Y535969D01*
X309882Y535894D01*
X309997Y535815D01*
X310111Y535734D01*
X310222Y535649D01*
X310331Y535561D01*
X310437Y535471D01*
X310541Y535377D01*
X310642Y535280D01*
X310740Y535180D01*
X310835Y535078D01*
X310927Y534973D01*
X311017Y534866D01*
X311103Y534756D01*
X311186Y534643D01*
X311266Y534529D01*
X311343Y534412D01*
X311416Y534293D01*
X311486Y534172D01*
X311552Y534049D01*
X311615Y533924D01*
X311675Y533797D01*
X311730Y533669D01*
X311782Y533540D01*
X311831Y533408D01*
X311876Y533276D01*
X311917Y533142D01*
X311954Y533008D01*
X311987Y532872D01*
X312016Y532735D01*
X312042Y532598D01*
X312064Y532460D01*
X312081Y532321D01*
X312095Y532182D01*
X312105Y532042D01*
X312111Y531903D01*
X312113Y531763D01*
X312113Y523861D01*
X312111Y523721D01*
X312105Y523582D01*
X312095Y523442D01*
X312081Y523303D01*
X312064Y523164D01*
X312042Y523026D01*
X312016Y522889D01*
X311987Y522752D01*
X311954Y522616D01*
X311917Y522482D01*
X311876Y522348D01*
X311831Y522216D01*
X311782Y522084D01*
X311730Y521955D01*
X311675Y521827D01*
X311615Y521700D01*
X311552Y521575D01*
X311486Y521452D01*
X311416Y521331D01*
X311343Y521212D01*
X311266Y521095D01*
X311186Y520981D01*
X311103Y520868D01*
X311017Y520758D01*
X310927Y520651D01*
X310835Y520546D01*
X310740Y520444D01*
X310642Y520344D01*
X310541Y520247D01*
X310437Y520153D01*
X310331Y520063D01*
X310222Y519975D01*
X310111Y519890D01*
X309997Y519809D01*
X309882Y519730D01*
X309764Y519655D01*
X309644Y519584D01*
X309521Y519516D01*
X309398Y519451D01*
X309272Y519390D01*
X309144Y519332D01*
X309016Y519278D01*
X308885Y519228D01*
X308753Y519181D01*
X308620Y519138D01*
X308486Y519099D01*
X308351Y519064D01*
X308215Y519033D01*
X308077Y519005D01*
X307940Y518982D01*
X307801Y518962D01*
X307662Y518946D01*
X307523Y518934D01*
X307384Y518926D01*
X307244Y518922D01*
X307104Y518922D01*
X306964Y518926D01*
X306825Y518934D01*
X306686Y518946D01*
X306547Y518962D01*
X306408Y518982D01*
X306271Y519005D01*
X306133Y519033D01*
X305997Y519064D01*
X305862Y519099D01*
X305728Y519138D01*
X305595Y519181D01*
X305463Y519228D01*
X305332Y519278D01*
X305204Y519332D01*
X305076Y519390D01*
X304950Y519451D01*
X304827Y519516D01*
X304705Y519584D01*
X304584Y519655D01*
X304466Y519730D01*
X304351Y519809D01*
X304237Y519890D01*
X304126Y519975D01*
X304017Y520063D01*
X303911Y520153D01*
X303807Y520247D01*
X303706Y520344D01*
X303608Y520444D01*
X303513Y520546D01*
X303421Y520651D01*
X303331Y520758D01*
X303245Y520868D01*
X303162Y520981D01*
X303082Y521095D01*
X303005Y521212D01*
X302932Y521331D01*
X302862Y521452D01*
X302796Y521575D01*
X302733Y521700D01*
X302673Y521827D01*
X302618Y521955D01*
X302566Y522084D01*
X302517Y522216D01*
X302472Y522348D01*
X302431Y522482D01*
X302394Y522616D01*
X302361Y522752D01*
X302332Y522889D01*
X302306Y523026D01*
X302284Y523164D01*
X302267Y523303D01*
X302253Y523442D01*
X302243Y523582D01*
X302237Y523721D01*
X302235Y523861D01*
X319741Y518922D02*
X319741Y536702D01*
X324680Y536702D01*
X324820Y536700D01*
X324959Y536694D01*
X325099Y536684D01*
X325238Y536670D01*
X325377Y536653D01*
X325515Y536631D01*
X325652Y536605D01*
X325789Y536576D01*
X325925Y536543D01*
X326059Y536506D01*
X326193Y536465D01*
X326325Y536420D01*
X326457Y536371D01*
X326586Y536319D01*
X326714Y536264D01*
X326841Y536204D01*
X326966Y536141D01*
X327089Y536075D01*
X327210Y536005D01*
X327329Y535932D01*
X327446Y535855D01*
X327560Y535775D01*
X327673Y535692D01*
X327783Y535606D01*
X327890Y535516D01*
X327995Y535424D01*
X328097Y535329D01*
X328197Y535231D01*
X328294Y535130D01*
X328388Y535026D01*
X328478Y534920D01*
X328566Y534811D01*
X328651Y534700D01*
X328732Y534586D01*
X328811Y534471D01*
X328886Y534353D01*
X328957Y534233D01*
X329025Y534110D01*
X329090Y533987D01*
X329151Y533861D01*
X329209Y533733D01*
X329263Y533605D01*
X329313Y533474D01*
X329360Y533342D01*
X329403Y533209D01*
X329442Y533075D01*
X329477Y532940D01*
X329508Y532804D01*
X329536Y532666D01*
X329559Y532529D01*
X329579Y532390D01*
X329595Y532251D01*
X329607Y532112D01*
X329615Y531973D01*
X329619Y531833D01*
X329619Y531693D01*
X329615Y531553D01*
X329607Y531414D01*
X329595Y531275D01*
X329579Y531136D01*
X329559Y530997D01*
X329536Y530860D01*
X329508Y530722D01*
X329477Y530586D01*
X329442Y530451D01*
X329403Y530317D01*
X329360Y530184D01*
X329313Y530052D01*
X329263Y529921D01*
X329209Y529793D01*
X329151Y529665D01*
X329090Y529539D01*
X329025Y529416D01*
X328957Y529294D01*
X328886Y529173D01*
X328811Y529055D01*
X328732Y528940D01*
X328651Y528826D01*
X328566Y528715D01*
X328478Y528606D01*
X328388Y528500D01*
X328294Y528396D01*
X328197Y528295D01*
X328097Y528197D01*
X327995Y528102D01*
X327890Y528010D01*
X327783Y527920D01*
X327673Y527834D01*
X327560Y527751D01*
X327446Y527671D01*
X327329Y527594D01*
X327210Y527521D01*
X327089Y527451D01*
X326966Y527385D01*
X326841Y527322D01*
X326714Y527262D01*
X326586Y527207D01*
X326457Y527155D01*
X326325Y527106D01*
X326193Y527061D01*
X326059Y527020D01*
X325925Y526983D01*
X325789Y526950D01*
X325652Y526921D01*
X325515Y526895D01*
X325377Y526873D01*
X325238Y526856D01*
X325099Y526842D01*
X324959Y526832D01*
X324820Y526826D01*
X324680Y526824D01*
X319741Y526824D01*
X339558Y518922D02*
X339558Y536702D01*
X334619Y536702D02*
X344497Y536702D01*
X351842Y536702D02*
X351842Y518922D01*
X353817Y518922D02*
X349866Y518922D01*
X349866Y536702D02*
X353817Y536702D01*
X364218Y518922D02*
X368169Y518922D01*
X364218Y518922D02*
X364094Y518924D01*
X363970Y518930D01*
X363846Y518940D01*
X363723Y518953D01*
X363600Y518971D01*
X363478Y518992D01*
X363356Y519017D01*
X363235Y519046D01*
X363116Y519079D01*
X362997Y519115D01*
X362880Y519156D01*
X362764Y519199D01*
X362649Y519247D01*
X362536Y519298D01*
X362424Y519353D01*
X362315Y519411D01*
X362207Y519472D01*
X362101Y519537D01*
X361997Y519605D01*
X361896Y519677D01*
X361796Y519751D01*
X361700Y519829D01*
X361605Y519909D01*
X361513Y519993D01*
X361424Y520079D01*
X361338Y520168D01*
X361254Y520260D01*
X361174Y520355D01*
X361096Y520451D01*
X361022Y520551D01*
X360950Y520652D01*
X360882Y520756D01*
X360817Y520862D01*
X360756Y520970D01*
X360698Y521079D01*
X360643Y521191D01*
X360592Y521304D01*
X360544Y521419D01*
X360501Y521535D01*
X360460Y521652D01*
X360424Y521771D01*
X360391Y521890D01*
X360362Y522011D01*
X360337Y522133D01*
X360316Y522255D01*
X360298Y522378D01*
X360285Y522501D01*
X360275Y522625D01*
X360269Y522749D01*
X360267Y522873D01*
X360267Y532751D01*
X360269Y532875D01*
X360275Y532999D01*
X360285Y533123D01*
X360298Y533246D01*
X360316Y533369D01*
X360337Y533491D01*
X360362Y533613D01*
X360391Y533734D01*
X360424Y533853D01*
X360460Y533972D01*
X360501Y534089D01*
X360544Y534205D01*
X360592Y534320D01*
X360643Y534433D01*
X360698Y534545D01*
X360756Y534654D01*
X360817Y534762D01*
X360882Y534868D01*
X360950Y534972D01*
X361022Y535073D01*
X361096Y535173D01*
X361174Y535269D01*
X361254Y535364D01*
X361338Y535456D01*
X361424Y535545D01*
X361513Y535631D01*
X361605Y535715D01*
X361700Y535795D01*
X361796Y535873D01*
X361896Y535947D01*
X361997Y536019D01*
X362101Y536087D01*
X362207Y536152D01*
X362315Y536213D01*
X362424Y536271D01*
X362536Y536326D01*
X362649Y536377D01*
X362764Y536425D01*
X362880Y536468D01*
X362997Y536509D01*
X363116Y536545D01*
X363235Y536578D01*
X363356Y536607D01*
X363478Y536632D01*
X363600Y536653D01*
X363723Y536671D01*
X363846Y536684D01*
X363970Y536694D01*
X364094Y536700D01*
X364218Y536702D01*
X368169Y536702D01*
X374262Y531763D02*
X374262Y523861D01*
X374262Y531763D02*
X374264Y531903D01*
X374270Y532042D01*
X374280Y532182D01*
X374294Y532321D01*
X374311Y532460D01*
X374333Y532598D01*
X374359Y532735D01*
X374388Y532872D01*
X374421Y533008D01*
X374458Y533142D01*
X374499Y533276D01*
X374544Y533408D01*
X374593Y533540D01*
X374645Y533669D01*
X374700Y533797D01*
X374760Y533924D01*
X374823Y534049D01*
X374889Y534172D01*
X374959Y534293D01*
X375032Y534412D01*
X375109Y534529D01*
X375189Y534643D01*
X375272Y534756D01*
X375358Y534866D01*
X375448Y534973D01*
X375540Y535078D01*
X375635Y535180D01*
X375733Y535280D01*
X375834Y535377D01*
X375938Y535471D01*
X376044Y535561D01*
X376153Y535649D01*
X376264Y535734D01*
X376378Y535815D01*
X376493Y535894D01*
X376611Y535969D01*
X376732Y536040D01*
X376854Y536108D01*
X376977Y536173D01*
X377103Y536234D01*
X377231Y536292D01*
X377359Y536346D01*
X377490Y536396D01*
X377622Y536443D01*
X377755Y536486D01*
X377889Y536525D01*
X378024Y536560D01*
X378160Y536591D01*
X378298Y536619D01*
X378435Y536642D01*
X378574Y536662D01*
X378713Y536678D01*
X378852Y536690D01*
X378991Y536698D01*
X379131Y536702D01*
X379271Y536702D01*
X379411Y536698D01*
X379550Y536690D01*
X379689Y536678D01*
X379828Y536662D01*
X379967Y536642D01*
X380104Y536619D01*
X380242Y536591D01*
X380378Y536560D01*
X380513Y536525D01*
X380647Y536486D01*
X380780Y536443D01*
X380912Y536396D01*
X381043Y536346D01*
X381171Y536292D01*
X381299Y536234D01*
X381425Y536173D01*
X381548Y536108D01*
X381671Y536040D01*
X381791Y535969D01*
X381909Y535894D01*
X382024Y535815D01*
X382138Y535734D01*
X382249Y535649D01*
X382358Y535561D01*
X382464Y535471D01*
X382568Y535377D01*
X382669Y535280D01*
X382767Y535180D01*
X382862Y535078D01*
X382954Y534973D01*
X383044Y534866D01*
X383130Y534756D01*
X383213Y534643D01*
X383293Y534529D01*
X383370Y534412D01*
X383443Y534293D01*
X383513Y534172D01*
X383579Y534049D01*
X383642Y533924D01*
X383702Y533797D01*
X383757Y533669D01*
X383809Y533540D01*
X383858Y533408D01*
X383903Y533276D01*
X383944Y533142D01*
X383981Y533008D01*
X384014Y532872D01*
X384043Y532735D01*
X384069Y532598D01*
X384091Y532460D01*
X384108Y532321D01*
X384122Y532182D01*
X384132Y532042D01*
X384138Y531903D01*
X384140Y531763D01*
X384139Y531763D02*
X384139Y523861D01*
X384140Y523861D02*
X384138Y523721D01*
X384132Y523582D01*
X384122Y523442D01*
X384108Y523303D01*
X384091Y523164D01*
X384069Y523026D01*
X384043Y522889D01*
X384014Y522752D01*
X383981Y522616D01*
X383944Y522482D01*
X383903Y522348D01*
X383858Y522216D01*
X383809Y522084D01*
X383757Y521955D01*
X383702Y521827D01*
X383642Y521700D01*
X383579Y521575D01*
X383513Y521452D01*
X383443Y521331D01*
X383370Y521212D01*
X383293Y521095D01*
X383213Y520981D01*
X383130Y520868D01*
X383044Y520758D01*
X382954Y520651D01*
X382862Y520546D01*
X382767Y520444D01*
X382669Y520344D01*
X382568Y520247D01*
X382464Y520153D01*
X382358Y520063D01*
X382249Y519975D01*
X382138Y519890D01*
X382024Y519809D01*
X381909Y519730D01*
X381791Y519655D01*
X381671Y519584D01*
X381548Y519516D01*
X381425Y519451D01*
X381299Y519390D01*
X381171Y519332D01*
X381043Y519278D01*
X380912Y519228D01*
X380780Y519181D01*
X380647Y519138D01*
X380513Y519099D01*
X380378Y519064D01*
X380242Y519033D01*
X380104Y519005D01*
X379967Y518982D01*
X379828Y518962D01*
X379689Y518946D01*
X379550Y518934D01*
X379411Y518926D01*
X379271Y518922D01*
X379131Y518922D01*
X378991Y518926D01*
X378852Y518934D01*
X378713Y518946D01*
X378574Y518962D01*
X378435Y518982D01*
X378298Y519005D01*
X378160Y519033D01*
X378024Y519064D01*
X377889Y519099D01*
X377755Y519138D01*
X377622Y519181D01*
X377490Y519228D01*
X377359Y519278D01*
X377231Y519332D01*
X377103Y519390D01*
X376977Y519451D01*
X376854Y519516D01*
X376732Y519584D01*
X376611Y519655D01*
X376493Y519730D01*
X376378Y519809D01*
X376264Y519890D01*
X376153Y519975D01*
X376044Y520063D01*
X375938Y520153D01*
X375834Y520247D01*
X375733Y520344D01*
X375635Y520444D01*
X375540Y520546D01*
X375448Y520651D01*
X375358Y520758D01*
X375272Y520868D01*
X375189Y520981D01*
X375109Y521095D01*
X375032Y521212D01*
X374959Y521331D01*
X374889Y521452D01*
X374823Y521575D01*
X374760Y521700D01*
X374700Y521827D01*
X374645Y521955D01*
X374593Y522084D01*
X374544Y522216D01*
X374499Y522348D01*
X374458Y522482D01*
X374421Y522616D01*
X374388Y522752D01*
X374359Y522889D01*
X374333Y523026D01*
X374311Y523164D01*
X374294Y523303D01*
X374280Y523442D01*
X374270Y523582D01*
X374264Y523721D01*
X374262Y523861D01*
D11*
X186041Y488188D02*
X180848Y488188D01*
X180848Y499872D01*
X186041Y499872D01*
X184743Y494679D02*
X180848Y494679D01*
X190754Y499872D02*
X190754Y488188D01*
X195947Y488188D01*
X200256Y491434D02*
X200256Y496626D01*
X200258Y496739D01*
X200264Y496852D01*
X200274Y496965D01*
X200288Y497078D01*
X200305Y497190D01*
X200327Y497301D01*
X200352Y497411D01*
X200382Y497521D01*
X200415Y497629D01*
X200452Y497736D01*
X200492Y497842D01*
X200537Y497946D01*
X200585Y498049D01*
X200636Y498150D01*
X200691Y498249D01*
X200749Y498346D01*
X200811Y498441D01*
X200876Y498534D01*
X200944Y498624D01*
X201015Y498712D01*
X201090Y498798D01*
X201167Y498881D01*
X201247Y498961D01*
X201330Y499038D01*
X201416Y499113D01*
X201504Y499184D01*
X201594Y499252D01*
X201687Y499317D01*
X201782Y499379D01*
X201879Y499437D01*
X201978Y499492D01*
X202079Y499543D01*
X202182Y499591D01*
X202286Y499636D01*
X202392Y499676D01*
X202499Y499713D01*
X202607Y499746D01*
X202717Y499776D01*
X202827Y499801D01*
X202938Y499823D01*
X203050Y499840D01*
X203163Y499854D01*
X203276Y499864D01*
X203389Y499870D01*
X203502Y499872D01*
X203615Y499870D01*
X203728Y499864D01*
X203841Y499854D01*
X203954Y499840D01*
X204066Y499823D01*
X204177Y499801D01*
X204287Y499776D01*
X204397Y499746D01*
X204505Y499713D01*
X204612Y499676D01*
X204718Y499636D01*
X204822Y499591D01*
X204925Y499543D01*
X205026Y499492D01*
X205125Y499437D01*
X205222Y499379D01*
X205317Y499317D01*
X205410Y499252D01*
X205500Y499184D01*
X205588Y499113D01*
X205674Y499038D01*
X205757Y498961D01*
X205837Y498881D01*
X205914Y498798D01*
X205989Y498712D01*
X206060Y498624D01*
X206128Y498534D01*
X206193Y498441D01*
X206255Y498346D01*
X206313Y498249D01*
X206368Y498150D01*
X206419Y498049D01*
X206467Y497946D01*
X206512Y497842D01*
X206552Y497736D01*
X206589Y497629D01*
X206622Y497521D01*
X206652Y497411D01*
X206677Y497301D01*
X206699Y497190D01*
X206716Y497078D01*
X206730Y496965D01*
X206740Y496852D01*
X206746Y496739D01*
X206748Y496626D01*
X206748Y491434D01*
X206746Y491321D01*
X206740Y491208D01*
X206730Y491095D01*
X206716Y490982D01*
X206699Y490870D01*
X206677Y490759D01*
X206652Y490649D01*
X206622Y490539D01*
X206589Y490431D01*
X206552Y490324D01*
X206512Y490218D01*
X206467Y490114D01*
X206419Y490011D01*
X206368Y489910D01*
X206313Y489811D01*
X206255Y489714D01*
X206193Y489619D01*
X206128Y489526D01*
X206060Y489436D01*
X205989Y489348D01*
X205914Y489262D01*
X205837Y489179D01*
X205757Y489099D01*
X205674Y489022D01*
X205588Y488947D01*
X205500Y488876D01*
X205410Y488808D01*
X205317Y488743D01*
X205222Y488681D01*
X205125Y488623D01*
X205026Y488568D01*
X204925Y488517D01*
X204822Y488469D01*
X204718Y488424D01*
X204612Y488384D01*
X204505Y488347D01*
X204397Y488314D01*
X204287Y488284D01*
X204177Y488259D01*
X204066Y488237D01*
X203954Y488220D01*
X203841Y488206D01*
X203728Y488196D01*
X203615Y488190D01*
X203502Y488188D01*
X203389Y488190D01*
X203276Y488196D01*
X203163Y488206D01*
X203050Y488220D01*
X202938Y488237D01*
X202827Y488259D01*
X202717Y488284D01*
X202607Y488314D01*
X202499Y488347D01*
X202392Y488384D01*
X202286Y488424D01*
X202182Y488469D01*
X202079Y488517D01*
X201978Y488568D01*
X201879Y488623D01*
X201782Y488681D01*
X201687Y488743D01*
X201594Y488808D01*
X201504Y488876D01*
X201416Y488947D01*
X201330Y489022D01*
X201247Y489099D01*
X201167Y489179D01*
X201090Y489262D01*
X201015Y489348D01*
X200944Y489436D01*
X200876Y489526D01*
X200811Y489619D01*
X200749Y489714D01*
X200691Y489811D01*
X200636Y489910D01*
X200585Y490011D01*
X200537Y490114D01*
X200492Y490218D01*
X200452Y490324D01*
X200415Y490431D01*
X200382Y490539D01*
X200352Y490649D01*
X200327Y490759D01*
X200305Y490870D01*
X200288Y490982D01*
X200274Y491095D01*
X200264Y491208D01*
X200258Y491321D01*
X200256Y491434D01*
X217782Y488188D02*
X221028Y488188D01*
X221141Y488190D01*
X221254Y488196D01*
X221367Y488206D01*
X221480Y488220D01*
X221592Y488237D01*
X221703Y488259D01*
X221813Y488284D01*
X221923Y488314D01*
X222031Y488347D01*
X222138Y488384D01*
X222244Y488424D01*
X222348Y488469D01*
X222451Y488517D01*
X222552Y488568D01*
X222651Y488623D01*
X222748Y488681D01*
X222843Y488743D01*
X222936Y488808D01*
X223026Y488876D01*
X223114Y488947D01*
X223200Y489022D01*
X223283Y489099D01*
X223363Y489179D01*
X223440Y489262D01*
X223515Y489348D01*
X223586Y489436D01*
X223654Y489526D01*
X223719Y489619D01*
X223781Y489714D01*
X223839Y489811D01*
X223894Y489910D01*
X223945Y490011D01*
X223993Y490114D01*
X224038Y490218D01*
X224078Y490324D01*
X224115Y490431D01*
X224148Y490539D01*
X224178Y490649D01*
X224203Y490759D01*
X224225Y490870D01*
X224242Y490982D01*
X224256Y491095D01*
X224266Y491208D01*
X224272Y491321D01*
X224274Y491434D01*
X224272Y491547D01*
X224266Y491660D01*
X224256Y491773D01*
X224242Y491886D01*
X224225Y491998D01*
X224203Y492109D01*
X224178Y492219D01*
X224148Y492329D01*
X224115Y492437D01*
X224078Y492544D01*
X224038Y492650D01*
X223993Y492754D01*
X223945Y492857D01*
X223894Y492958D01*
X223839Y493057D01*
X223781Y493154D01*
X223719Y493249D01*
X223654Y493342D01*
X223586Y493432D01*
X223515Y493520D01*
X223440Y493606D01*
X223363Y493689D01*
X223283Y493769D01*
X223200Y493846D01*
X223114Y493921D01*
X223026Y493992D01*
X222936Y494060D01*
X222843Y494125D01*
X222748Y494187D01*
X222651Y494245D01*
X222552Y494300D01*
X222451Y494351D01*
X222348Y494399D01*
X222244Y494444D01*
X222138Y494484D01*
X222031Y494521D01*
X221923Y494554D01*
X221813Y494584D01*
X221703Y494609D01*
X221592Y494631D01*
X221480Y494648D01*
X221367Y494662D01*
X221254Y494672D01*
X221141Y494678D01*
X221028Y494680D01*
X221677Y499872D02*
X217782Y499872D01*
X221677Y499872D02*
X221778Y499870D01*
X221878Y499864D01*
X221978Y499854D01*
X222078Y499841D01*
X222177Y499823D01*
X222276Y499802D01*
X222373Y499777D01*
X222470Y499748D01*
X222565Y499715D01*
X222659Y499679D01*
X222751Y499639D01*
X222842Y499596D01*
X222931Y499549D01*
X223018Y499499D01*
X223104Y499445D01*
X223187Y499388D01*
X223267Y499328D01*
X223346Y499265D01*
X223422Y499198D01*
X223495Y499129D01*
X223565Y499057D01*
X223633Y498983D01*
X223698Y498906D01*
X223759Y498826D01*
X223818Y498744D01*
X223873Y498660D01*
X223925Y498574D01*
X223974Y498486D01*
X224019Y498396D01*
X224061Y498304D01*
X224099Y498211D01*
X224133Y498116D01*
X224164Y498021D01*
X224191Y497924D01*
X224214Y497826D01*
X224234Y497727D01*
X224249Y497627D01*
X224261Y497527D01*
X224269Y497427D01*
X224273Y497326D01*
X224273Y497226D01*
X224269Y497125D01*
X224261Y497025D01*
X224249Y496925D01*
X224234Y496825D01*
X224214Y496726D01*
X224191Y496628D01*
X224164Y496531D01*
X224133Y496436D01*
X224099Y496341D01*
X224061Y496248D01*
X224019Y496156D01*
X223974Y496066D01*
X223925Y495978D01*
X223873Y495892D01*
X223818Y495808D01*
X223759Y495726D01*
X223698Y495646D01*
X223633Y495569D01*
X223565Y495495D01*
X223495Y495423D01*
X223422Y495354D01*
X223346Y495287D01*
X223267Y495224D01*
X223187Y495164D01*
X223104Y495107D01*
X223018Y495053D01*
X222931Y495003D01*
X222842Y494956D01*
X222751Y494913D01*
X222659Y494873D01*
X222565Y494837D01*
X222470Y494804D01*
X222373Y494775D01*
X222276Y494750D01*
X222177Y494729D01*
X222078Y494711D01*
X221978Y494698D01*
X221878Y494688D01*
X221778Y494682D01*
X221677Y494680D01*
X221677Y494679D02*
X219081Y494679D01*
X229213Y494030D02*
X229216Y494260D01*
X229224Y494490D01*
X229238Y494719D01*
X229257Y494948D01*
X229282Y495177D01*
X229312Y495404D01*
X229347Y495632D01*
X229388Y495858D01*
X229434Y496083D01*
X229486Y496307D01*
X229543Y496529D01*
X229605Y496751D01*
X229673Y496970D01*
X229746Y497188D01*
X229824Y497405D01*
X229907Y497619D01*
X229995Y497831D01*
X230088Y498041D01*
X230187Y498249D01*
X230186Y498249D02*
X230219Y498339D01*
X230255Y498428D01*
X230295Y498516D01*
X230339Y498601D01*
X230386Y498685D01*
X230436Y498767D01*
X230490Y498847D01*
X230546Y498924D01*
X230606Y499000D01*
X230669Y499073D01*
X230734Y499143D01*
X230803Y499211D01*
X230874Y499275D01*
X230947Y499337D01*
X231023Y499396D01*
X231101Y499452D01*
X231182Y499505D01*
X231264Y499554D01*
X231348Y499600D01*
X231435Y499643D01*
X231522Y499682D01*
X231612Y499718D01*
X231702Y499750D01*
X231794Y499778D01*
X231887Y499803D01*
X231981Y499824D01*
X232075Y499841D01*
X232170Y499855D01*
X232266Y499864D01*
X232362Y499870D01*
X232458Y499872D01*
X232554Y499870D01*
X232650Y499864D01*
X232746Y499855D01*
X232841Y499841D01*
X232935Y499824D01*
X233029Y499803D01*
X233122Y499778D01*
X233214Y499750D01*
X233304Y499718D01*
X233394Y499682D01*
X233481Y499643D01*
X233568Y499600D01*
X233652Y499554D01*
X233734Y499505D01*
X233815Y499452D01*
X233893Y499396D01*
X233969Y499337D01*
X234042Y499275D01*
X234113Y499211D01*
X234182Y499143D01*
X234247Y499073D01*
X234310Y499000D01*
X234370Y498924D01*
X234426Y498847D01*
X234480Y498767D01*
X234530Y498685D01*
X234577Y498601D01*
X234621Y498516D01*
X234661Y498428D01*
X234697Y498339D01*
X234730Y498249D01*
X234829Y498042D01*
X234922Y497832D01*
X235010Y497619D01*
X235093Y497405D01*
X235171Y497189D01*
X235244Y496971D01*
X235312Y496751D01*
X235374Y496530D01*
X235431Y496307D01*
X235483Y496083D01*
X235529Y495858D01*
X235570Y495632D01*
X235605Y495405D01*
X235635Y495177D01*
X235660Y494948D01*
X235679Y494719D01*
X235693Y494490D01*
X235701Y494260D01*
X235704Y494030D01*
X229212Y494030D02*
X229215Y493800D01*
X229223Y493570D01*
X229237Y493341D01*
X229256Y493112D01*
X229281Y492883D01*
X229311Y492655D01*
X229346Y492428D01*
X229387Y492202D01*
X229433Y491977D01*
X229485Y491753D01*
X229542Y491530D01*
X229604Y491309D01*
X229672Y491089D01*
X229745Y490871D01*
X229823Y490655D01*
X229906Y490441D01*
X229994Y490229D01*
X230087Y490018D01*
X230186Y489811D01*
X230219Y489721D01*
X230255Y489632D01*
X230296Y489544D01*
X230339Y489459D01*
X230386Y489375D01*
X230436Y489293D01*
X230490Y489213D01*
X230546Y489136D01*
X230606Y489060D01*
X230669Y488987D01*
X230734Y488917D01*
X230803Y488849D01*
X230874Y488785D01*
X230947Y488723D01*
X231023Y488664D01*
X231101Y488608D01*
X231182Y488555D01*
X231264Y488506D01*
X231348Y488460D01*
X231435Y488417D01*
X231522Y488378D01*
X231612Y488342D01*
X231702Y488310D01*
X231794Y488282D01*
X231887Y488257D01*
X231981Y488236D01*
X232075Y488219D01*
X232170Y488205D01*
X232266Y488196D01*
X232362Y488190D01*
X232458Y488188D01*
X234730Y489811D02*
X234829Y490018D01*
X234922Y490229D01*
X235010Y490441D01*
X235093Y490655D01*
X235171Y490871D01*
X235244Y491089D01*
X235312Y491309D01*
X235374Y491530D01*
X235431Y491753D01*
X235483Y491977D01*
X235529Y492202D01*
X235570Y492428D01*
X235605Y492655D01*
X235635Y492883D01*
X235660Y493112D01*
X235679Y493341D01*
X235693Y493570D01*
X235701Y493800D01*
X235704Y494030D01*
X234730Y489811D02*
X234697Y489721D01*
X234661Y489632D01*
X234621Y489544D01*
X234577Y489459D01*
X234530Y489375D01*
X234480Y489293D01*
X234426Y489213D01*
X234370Y489136D01*
X234310Y489060D01*
X234247Y488987D01*
X234182Y488917D01*
X234113Y488849D01*
X234042Y488785D01*
X233969Y488723D01*
X233893Y488664D01*
X233815Y488608D01*
X233734Y488555D01*
X233652Y488506D01*
X233568Y488460D01*
X233481Y488417D01*
X233394Y488378D01*
X233304Y488342D01*
X233214Y488310D01*
X233122Y488282D01*
X233029Y488257D01*
X232935Y488236D01*
X232841Y488219D01*
X232746Y488205D01*
X232650Y488196D01*
X232554Y488190D01*
X232458Y488188D01*
X229861Y490784D02*
X235054Y497276D01*
X240642Y497276D02*
X243888Y499872D01*
X243888Y488188D01*
X247133Y488188D02*
X240642Y488188D01*
X261738Y499872D02*
X261845Y499870D01*
X261951Y499864D01*
X262057Y499854D01*
X262163Y499841D01*
X262269Y499823D01*
X262373Y499802D01*
X262477Y499777D01*
X262580Y499748D01*
X262681Y499716D01*
X262781Y499679D01*
X262880Y499639D01*
X262978Y499596D01*
X263074Y499549D01*
X263168Y499498D01*
X263260Y499444D01*
X263350Y499387D01*
X263438Y499327D01*
X263523Y499263D01*
X263606Y499196D01*
X263687Y499126D01*
X263765Y499054D01*
X263841Y498978D01*
X263913Y498900D01*
X263983Y498819D01*
X264050Y498736D01*
X264114Y498651D01*
X264174Y498563D01*
X264231Y498473D01*
X264285Y498381D01*
X264336Y498287D01*
X264383Y498191D01*
X264426Y498093D01*
X264466Y497994D01*
X264503Y497894D01*
X264535Y497793D01*
X264564Y497690D01*
X264589Y497586D01*
X264610Y497482D01*
X264628Y497376D01*
X264641Y497270D01*
X264651Y497164D01*
X264657Y497058D01*
X264659Y496951D01*
X261738Y499872D02*
X261617Y499870D01*
X261496Y499864D01*
X261376Y499854D01*
X261255Y499841D01*
X261136Y499823D01*
X261016Y499802D01*
X260898Y499777D01*
X260781Y499748D01*
X260664Y499715D01*
X260549Y499679D01*
X260435Y499638D01*
X260322Y499595D01*
X260210Y499547D01*
X260101Y499496D01*
X259993Y499441D01*
X259886Y499383D01*
X259782Y499322D01*
X259680Y499257D01*
X259580Y499189D01*
X259482Y499118D01*
X259386Y499044D01*
X259293Y498967D01*
X259203Y498886D01*
X259115Y498803D01*
X259030Y498717D01*
X258947Y498628D01*
X258868Y498537D01*
X258791Y498443D01*
X258718Y498347D01*
X258648Y498249D01*
X258581Y498148D01*
X258517Y498045D01*
X258457Y497940D01*
X258400Y497833D01*
X258346Y497725D01*
X258296Y497615D01*
X258250Y497503D01*
X258207Y497390D01*
X258168Y497275D01*
X263686Y494679D02*
X263765Y494756D01*
X263841Y494837D01*
X263914Y494920D01*
X263984Y495005D01*
X264051Y495093D01*
X264115Y495183D01*
X264175Y495275D01*
X264232Y495370D01*
X264286Y495466D01*
X264337Y495564D01*
X264384Y495664D01*
X264428Y495766D01*
X264468Y495869D01*
X264504Y495973D01*
X264536Y496079D01*
X264565Y496185D01*
X264590Y496293D01*
X264612Y496401D01*
X264629Y496511D01*
X264643Y496620D01*
X264652Y496730D01*
X264658Y496841D01*
X264660Y496951D01*
X263686Y494679D02*
X258168Y488188D01*
X264659Y488188D01*
X269599Y494030D02*
X269602Y494260D01*
X269610Y494490D01*
X269624Y494719D01*
X269643Y494948D01*
X269668Y495177D01*
X269698Y495404D01*
X269733Y495632D01*
X269774Y495858D01*
X269820Y496083D01*
X269872Y496307D01*
X269929Y496529D01*
X269991Y496751D01*
X270059Y496970D01*
X270132Y497188D01*
X270210Y497405D01*
X270293Y497619D01*
X270381Y497831D01*
X270474Y498041D01*
X270573Y498249D01*
X270572Y498249D02*
X270605Y498339D01*
X270641Y498428D01*
X270681Y498516D01*
X270725Y498601D01*
X270772Y498685D01*
X270822Y498767D01*
X270876Y498847D01*
X270932Y498924D01*
X270992Y499000D01*
X271055Y499073D01*
X271120Y499143D01*
X271189Y499211D01*
X271260Y499275D01*
X271333Y499337D01*
X271409Y499396D01*
X271487Y499452D01*
X271568Y499505D01*
X271650Y499554D01*
X271734Y499600D01*
X271821Y499643D01*
X271908Y499682D01*
X271998Y499718D01*
X272088Y499750D01*
X272180Y499778D01*
X272273Y499803D01*
X272367Y499824D01*
X272461Y499841D01*
X272556Y499855D01*
X272652Y499864D01*
X272748Y499870D01*
X272844Y499872D01*
X272940Y499870D01*
X273036Y499864D01*
X273132Y499855D01*
X273227Y499841D01*
X273321Y499824D01*
X273415Y499803D01*
X273508Y499778D01*
X273600Y499750D01*
X273690Y499718D01*
X273780Y499682D01*
X273867Y499643D01*
X273954Y499600D01*
X274038Y499554D01*
X274120Y499505D01*
X274201Y499452D01*
X274279Y499396D01*
X274355Y499337D01*
X274428Y499275D01*
X274499Y499211D01*
X274568Y499143D01*
X274633Y499073D01*
X274696Y499000D01*
X274756Y498924D01*
X274812Y498847D01*
X274866Y498767D01*
X274916Y498685D01*
X274963Y498601D01*
X275007Y498516D01*
X275047Y498428D01*
X275083Y498339D01*
X275116Y498249D01*
X275215Y498042D01*
X275308Y497832D01*
X275396Y497619D01*
X275479Y497405D01*
X275557Y497189D01*
X275630Y496971D01*
X275698Y496751D01*
X275760Y496530D01*
X275817Y496307D01*
X275869Y496083D01*
X275915Y495858D01*
X275956Y495632D01*
X275991Y495405D01*
X276021Y495177D01*
X276046Y494948D01*
X276065Y494719D01*
X276079Y494490D01*
X276087Y494260D01*
X276090Y494030D01*
X269598Y494030D02*
X269601Y493800D01*
X269609Y493570D01*
X269623Y493341D01*
X269642Y493112D01*
X269667Y492883D01*
X269697Y492655D01*
X269732Y492428D01*
X269773Y492202D01*
X269819Y491977D01*
X269871Y491753D01*
X269928Y491530D01*
X269990Y491309D01*
X270058Y491089D01*
X270131Y490871D01*
X270209Y490655D01*
X270292Y490441D01*
X270380Y490229D01*
X270473Y490018D01*
X270572Y489811D01*
X270605Y489721D01*
X270641Y489632D01*
X270682Y489544D01*
X270725Y489459D01*
X270772Y489375D01*
X270822Y489293D01*
X270876Y489213D01*
X270932Y489136D01*
X270992Y489060D01*
X271055Y488987D01*
X271120Y488917D01*
X271189Y488849D01*
X271260Y488785D01*
X271333Y488723D01*
X271409Y488664D01*
X271487Y488608D01*
X271568Y488555D01*
X271650Y488506D01*
X271734Y488460D01*
X271821Y488417D01*
X271908Y488378D01*
X271998Y488342D01*
X272088Y488310D01*
X272180Y488282D01*
X272273Y488257D01*
X272367Y488236D01*
X272461Y488219D01*
X272556Y488205D01*
X272652Y488196D01*
X272748Y488190D01*
X272844Y488188D01*
X275116Y489811D02*
X275215Y490018D01*
X275308Y490229D01*
X275396Y490441D01*
X275479Y490655D01*
X275557Y490871D01*
X275630Y491089D01*
X275698Y491309D01*
X275760Y491530D01*
X275817Y491753D01*
X275869Y491977D01*
X275915Y492202D01*
X275956Y492428D01*
X275991Y492655D01*
X276021Y492883D01*
X276046Y493112D01*
X276065Y493341D01*
X276079Y493570D01*
X276087Y493800D01*
X276090Y494030D01*
X275116Y489811D02*
X275083Y489721D01*
X275047Y489632D01*
X275007Y489544D01*
X274963Y489459D01*
X274916Y489375D01*
X274866Y489293D01*
X274812Y489213D01*
X274756Y489136D01*
X274696Y489060D01*
X274633Y488987D01*
X274568Y488917D01*
X274499Y488849D01*
X274428Y488785D01*
X274355Y488723D01*
X274279Y488664D01*
X274201Y488608D01*
X274120Y488555D01*
X274038Y488506D01*
X273954Y488460D01*
X273867Y488417D01*
X273780Y488378D01*
X273690Y488342D01*
X273600Y488310D01*
X273508Y488282D01*
X273415Y488257D01*
X273321Y488236D01*
X273227Y488219D01*
X273132Y488205D01*
X273036Y488196D01*
X272940Y488190D01*
X272844Y488188D01*
X270247Y490784D02*
X275440Y497276D01*
X284598Y499872D02*
X284705Y499870D01*
X284811Y499864D01*
X284917Y499854D01*
X285023Y499841D01*
X285129Y499823D01*
X285233Y499802D01*
X285337Y499777D01*
X285440Y499748D01*
X285541Y499716D01*
X285641Y499679D01*
X285740Y499639D01*
X285838Y499596D01*
X285934Y499549D01*
X286028Y499498D01*
X286120Y499444D01*
X286210Y499387D01*
X286298Y499327D01*
X286383Y499263D01*
X286466Y499196D01*
X286547Y499126D01*
X286625Y499054D01*
X286701Y498978D01*
X286773Y498900D01*
X286843Y498819D01*
X286910Y498736D01*
X286974Y498651D01*
X287034Y498563D01*
X287091Y498473D01*
X287145Y498381D01*
X287196Y498287D01*
X287243Y498191D01*
X287286Y498093D01*
X287326Y497994D01*
X287363Y497894D01*
X287395Y497793D01*
X287424Y497690D01*
X287449Y497586D01*
X287470Y497482D01*
X287488Y497376D01*
X287501Y497270D01*
X287511Y497164D01*
X287517Y497058D01*
X287519Y496951D01*
X284598Y499872D02*
X284477Y499870D01*
X284356Y499864D01*
X284236Y499854D01*
X284115Y499841D01*
X283996Y499823D01*
X283876Y499802D01*
X283758Y499777D01*
X283641Y499748D01*
X283524Y499715D01*
X283409Y499679D01*
X283295Y499638D01*
X283182Y499595D01*
X283070Y499547D01*
X282961Y499496D01*
X282853Y499441D01*
X282746Y499383D01*
X282642Y499322D01*
X282540Y499257D01*
X282440Y499189D01*
X282342Y499118D01*
X282246Y499044D01*
X282153Y498967D01*
X282063Y498886D01*
X281975Y498803D01*
X281890Y498717D01*
X281807Y498628D01*
X281728Y498537D01*
X281651Y498443D01*
X281578Y498347D01*
X281508Y498249D01*
X281441Y498148D01*
X281377Y498045D01*
X281317Y497940D01*
X281260Y497833D01*
X281206Y497725D01*
X281156Y497615D01*
X281110Y497503D01*
X281067Y497390D01*
X281028Y497275D01*
X286546Y494679D02*
X286625Y494756D01*
X286701Y494837D01*
X286774Y494920D01*
X286844Y495005D01*
X286911Y495093D01*
X286975Y495183D01*
X287035Y495275D01*
X287092Y495370D01*
X287146Y495466D01*
X287197Y495564D01*
X287244Y495664D01*
X287288Y495766D01*
X287328Y495869D01*
X287364Y495973D01*
X287396Y496079D01*
X287425Y496185D01*
X287450Y496293D01*
X287472Y496401D01*
X287489Y496511D01*
X287503Y496620D01*
X287512Y496730D01*
X287518Y496841D01*
X287520Y496951D01*
X286546Y494679D02*
X281028Y488188D01*
X287519Y488188D01*
X292458Y488188D02*
X295704Y488188D01*
X295817Y488190D01*
X295930Y488196D01*
X296043Y488206D01*
X296156Y488220D01*
X296268Y488237D01*
X296379Y488259D01*
X296489Y488284D01*
X296599Y488314D01*
X296707Y488347D01*
X296814Y488384D01*
X296920Y488424D01*
X297024Y488469D01*
X297127Y488517D01*
X297228Y488568D01*
X297327Y488623D01*
X297424Y488681D01*
X297519Y488743D01*
X297612Y488808D01*
X297702Y488876D01*
X297790Y488947D01*
X297876Y489022D01*
X297959Y489099D01*
X298039Y489179D01*
X298116Y489262D01*
X298191Y489348D01*
X298262Y489436D01*
X298330Y489526D01*
X298395Y489619D01*
X298457Y489714D01*
X298515Y489811D01*
X298570Y489910D01*
X298621Y490011D01*
X298669Y490114D01*
X298714Y490218D01*
X298754Y490324D01*
X298791Y490431D01*
X298824Y490539D01*
X298854Y490649D01*
X298879Y490759D01*
X298901Y490870D01*
X298918Y490982D01*
X298932Y491095D01*
X298942Y491208D01*
X298948Y491321D01*
X298950Y491434D01*
X298948Y491547D01*
X298942Y491660D01*
X298932Y491773D01*
X298918Y491886D01*
X298901Y491998D01*
X298879Y492109D01*
X298854Y492219D01*
X298824Y492329D01*
X298791Y492437D01*
X298754Y492544D01*
X298714Y492650D01*
X298669Y492754D01*
X298621Y492857D01*
X298570Y492958D01*
X298515Y493057D01*
X298457Y493154D01*
X298395Y493249D01*
X298330Y493342D01*
X298262Y493432D01*
X298191Y493520D01*
X298116Y493606D01*
X298039Y493689D01*
X297959Y493769D01*
X297876Y493846D01*
X297790Y493921D01*
X297702Y493992D01*
X297612Y494060D01*
X297519Y494125D01*
X297424Y494187D01*
X297327Y494245D01*
X297228Y494300D01*
X297127Y494351D01*
X297024Y494399D01*
X296920Y494444D01*
X296814Y494484D01*
X296707Y494521D01*
X296599Y494554D01*
X296489Y494584D01*
X296379Y494609D01*
X296268Y494631D01*
X296156Y494648D01*
X296043Y494662D01*
X295930Y494672D01*
X295817Y494678D01*
X295704Y494680D01*
X296353Y499872D02*
X292458Y499872D01*
X296353Y499872D02*
X296454Y499870D01*
X296554Y499864D01*
X296654Y499854D01*
X296754Y499841D01*
X296853Y499823D01*
X296952Y499802D01*
X297049Y499777D01*
X297146Y499748D01*
X297241Y499715D01*
X297335Y499679D01*
X297427Y499639D01*
X297518Y499596D01*
X297607Y499549D01*
X297694Y499499D01*
X297780Y499445D01*
X297863Y499388D01*
X297943Y499328D01*
X298022Y499265D01*
X298098Y499198D01*
X298171Y499129D01*
X298241Y499057D01*
X298309Y498983D01*
X298374Y498906D01*
X298435Y498826D01*
X298494Y498744D01*
X298549Y498660D01*
X298601Y498574D01*
X298650Y498486D01*
X298695Y498396D01*
X298737Y498304D01*
X298775Y498211D01*
X298809Y498116D01*
X298840Y498021D01*
X298867Y497924D01*
X298890Y497826D01*
X298910Y497727D01*
X298925Y497627D01*
X298937Y497527D01*
X298945Y497427D01*
X298949Y497326D01*
X298949Y497226D01*
X298945Y497125D01*
X298937Y497025D01*
X298925Y496925D01*
X298910Y496825D01*
X298890Y496726D01*
X298867Y496628D01*
X298840Y496531D01*
X298809Y496436D01*
X298775Y496341D01*
X298737Y496248D01*
X298695Y496156D01*
X298650Y496066D01*
X298601Y495978D01*
X298549Y495892D01*
X298494Y495808D01*
X298435Y495726D01*
X298374Y495646D01*
X298309Y495569D01*
X298241Y495495D01*
X298171Y495423D01*
X298098Y495354D01*
X298022Y495287D01*
X297943Y495224D01*
X297863Y495164D01*
X297780Y495107D01*
X297694Y495053D01*
X297607Y495003D01*
X297518Y494956D01*
X297427Y494913D01*
X297335Y494873D01*
X297241Y494837D01*
X297146Y494804D01*
X297049Y494775D01*
X296952Y494750D01*
X296853Y494729D01*
X296754Y494711D01*
X296654Y494698D01*
X296554Y494688D01*
X296454Y494682D01*
X296353Y494680D01*
X296353Y494679D02*
X293756Y494679D01*
X185507Y309296D02*
X182911Y309296D01*
X182812Y309298D01*
X182712Y309304D01*
X182613Y309313D01*
X182515Y309326D01*
X182417Y309343D01*
X182319Y309364D01*
X182223Y309389D01*
X182128Y309417D01*
X182034Y309449D01*
X181941Y309484D01*
X181849Y309523D01*
X181759Y309566D01*
X181671Y309611D01*
X181584Y309661D01*
X181500Y309713D01*
X181417Y309769D01*
X181337Y309827D01*
X181259Y309889D01*
X181184Y309954D01*
X181111Y310022D01*
X181041Y310092D01*
X180973Y310165D01*
X180908Y310240D01*
X180846Y310318D01*
X180788Y310398D01*
X180732Y310481D01*
X180680Y310565D01*
X180630Y310652D01*
X180585Y310740D01*
X180542Y310830D01*
X180503Y310922D01*
X180468Y311015D01*
X180436Y311109D01*
X180408Y311204D01*
X180383Y311300D01*
X180362Y311398D01*
X180345Y311496D01*
X180332Y311594D01*
X180323Y311693D01*
X180317Y311793D01*
X180315Y311892D01*
X180315Y318383D01*
X180317Y318482D01*
X180323Y318582D01*
X180332Y318681D01*
X180345Y318779D01*
X180362Y318877D01*
X180383Y318975D01*
X180408Y319071D01*
X180436Y319166D01*
X180468Y319260D01*
X180503Y319353D01*
X180542Y319445D01*
X180585Y319535D01*
X180630Y319623D01*
X180680Y319710D01*
X180732Y319794D01*
X180788Y319877D01*
X180846Y319957D01*
X180908Y320035D01*
X180973Y320110D01*
X181041Y320183D01*
X181111Y320253D01*
X181184Y320321D01*
X181259Y320386D01*
X181337Y320448D01*
X181417Y320506D01*
X181500Y320562D01*
X181584Y320614D01*
X181671Y320664D01*
X181759Y320709D01*
X181849Y320752D01*
X181941Y320791D01*
X182033Y320826D01*
X182128Y320858D01*
X182223Y320886D01*
X182319Y320911D01*
X182417Y320932D01*
X182515Y320949D01*
X182613Y320962D01*
X182712Y320971D01*
X182812Y320977D01*
X182911Y320979D01*
X182911Y320980D02*
X185507Y320980D01*
X189873Y318383D02*
X193118Y320980D01*
X193118Y309296D01*
X189873Y309296D02*
X196364Y309296D01*
X186142Y288671D02*
X183546Y288671D01*
X183447Y288673D01*
X183347Y288679D01*
X183248Y288688D01*
X183150Y288701D01*
X183052Y288718D01*
X182954Y288739D01*
X182858Y288764D01*
X182763Y288792D01*
X182669Y288824D01*
X182576Y288859D01*
X182484Y288898D01*
X182394Y288941D01*
X182306Y288986D01*
X182219Y289036D01*
X182135Y289088D01*
X182052Y289144D01*
X181972Y289202D01*
X181894Y289264D01*
X181819Y289329D01*
X181746Y289397D01*
X181676Y289467D01*
X181608Y289540D01*
X181543Y289615D01*
X181481Y289693D01*
X181423Y289773D01*
X181367Y289856D01*
X181315Y289940D01*
X181265Y290027D01*
X181220Y290115D01*
X181177Y290205D01*
X181138Y290297D01*
X181103Y290390D01*
X181071Y290484D01*
X181043Y290579D01*
X181018Y290675D01*
X180997Y290773D01*
X180980Y290871D01*
X180967Y290969D01*
X180958Y291068D01*
X180952Y291168D01*
X180950Y291267D01*
X180950Y297759D01*
X180952Y297858D01*
X180958Y297958D01*
X180967Y298057D01*
X180980Y298155D01*
X180997Y298253D01*
X181018Y298351D01*
X181043Y298447D01*
X181071Y298542D01*
X181103Y298636D01*
X181138Y298729D01*
X181177Y298821D01*
X181220Y298911D01*
X181265Y298999D01*
X181315Y299086D01*
X181367Y299170D01*
X181423Y299253D01*
X181481Y299333D01*
X181543Y299411D01*
X181608Y299486D01*
X181676Y299559D01*
X181746Y299629D01*
X181819Y299697D01*
X181894Y299762D01*
X181972Y299824D01*
X182052Y299882D01*
X182135Y299938D01*
X182219Y299990D01*
X182306Y300040D01*
X182394Y300085D01*
X182484Y300128D01*
X182576Y300167D01*
X182668Y300202D01*
X182763Y300234D01*
X182858Y300262D01*
X182954Y300287D01*
X183052Y300308D01*
X183150Y300325D01*
X183248Y300338D01*
X183347Y300347D01*
X183447Y300353D01*
X183546Y300355D01*
X186142Y300355D01*
X194078Y300355D02*
X194185Y300353D01*
X194291Y300347D01*
X194397Y300337D01*
X194503Y300324D01*
X194609Y300306D01*
X194713Y300285D01*
X194817Y300260D01*
X194920Y300231D01*
X195021Y300199D01*
X195121Y300162D01*
X195220Y300122D01*
X195318Y300079D01*
X195414Y300032D01*
X195508Y299981D01*
X195600Y299927D01*
X195690Y299870D01*
X195778Y299810D01*
X195863Y299746D01*
X195946Y299679D01*
X196027Y299609D01*
X196105Y299537D01*
X196181Y299461D01*
X196253Y299383D01*
X196323Y299302D01*
X196390Y299219D01*
X196454Y299134D01*
X196514Y299046D01*
X196571Y298956D01*
X196625Y298864D01*
X196676Y298770D01*
X196723Y298674D01*
X196766Y298576D01*
X196806Y298477D01*
X196843Y298377D01*
X196875Y298276D01*
X196904Y298173D01*
X196929Y298069D01*
X196950Y297965D01*
X196968Y297859D01*
X196981Y297753D01*
X196991Y297647D01*
X196997Y297541D01*
X196999Y297434D01*
X194078Y300355D02*
X193957Y300353D01*
X193836Y300347D01*
X193716Y300337D01*
X193595Y300324D01*
X193476Y300306D01*
X193356Y300285D01*
X193238Y300260D01*
X193121Y300231D01*
X193004Y300198D01*
X192889Y300162D01*
X192775Y300121D01*
X192662Y300078D01*
X192550Y300030D01*
X192441Y299979D01*
X192333Y299924D01*
X192226Y299866D01*
X192122Y299805D01*
X192020Y299740D01*
X191920Y299672D01*
X191822Y299601D01*
X191726Y299527D01*
X191633Y299450D01*
X191543Y299369D01*
X191455Y299286D01*
X191370Y299200D01*
X191287Y299111D01*
X191208Y299020D01*
X191131Y298926D01*
X191058Y298830D01*
X190988Y298732D01*
X190921Y298631D01*
X190857Y298528D01*
X190797Y298423D01*
X190740Y298316D01*
X190686Y298208D01*
X190636Y298098D01*
X190590Y297986D01*
X190547Y297873D01*
X190508Y297758D01*
X196025Y295162D02*
X196104Y295239D01*
X196180Y295320D01*
X196253Y295403D01*
X196323Y295488D01*
X196390Y295576D01*
X196454Y295666D01*
X196514Y295758D01*
X196571Y295853D01*
X196625Y295949D01*
X196676Y296047D01*
X196723Y296147D01*
X196767Y296249D01*
X196807Y296352D01*
X196843Y296456D01*
X196875Y296562D01*
X196904Y296668D01*
X196929Y296776D01*
X196951Y296884D01*
X196968Y296994D01*
X196982Y297103D01*
X196991Y297213D01*
X196997Y297324D01*
X196999Y297434D01*
X196025Y295162D02*
X190508Y288671D01*
X196999Y288671D01*
D10*
X280900Y167300D02*
X404900Y167300D01*
X404900Y304800D02*
X280900Y304800D01*
X380579Y173800D02*
X380581Y173898D01*
X380587Y173996D01*
X380597Y174094D01*
X380611Y174191D01*
X380629Y174287D01*
X380650Y174383D01*
X380676Y174478D01*
X380705Y174571D01*
X380738Y174664D01*
X380775Y174755D01*
X380816Y174844D01*
X380860Y174932D01*
X380907Y175018D01*
X380959Y175101D01*
X381013Y175183D01*
X381071Y175262D01*
X381131Y175339D01*
X381195Y175414D01*
X381262Y175486D01*
X381332Y175555D01*
X381404Y175621D01*
X381480Y175684D01*
X381557Y175744D01*
X381637Y175801D01*
X381719Y175855D01*
X381804Y175905D01*
X381890Y175952D01*
X381978Y175995D01*
X382068Y176034D01*
X382159Y176070D01*
X382252Y176103D01*
X382346Y176131D01*
X382441Y176156D01*
X382537Y176176D01*
X382633Y176193D01*
X382731Y176206D01*
X382828Y176215D01*
X382926Y176220D01*
X383025Y176221D01*
X383123Y176218D01*
X383221Y176211D01*
X383318Y176200D01*
X383415Y176185D01*
X383511Y176166D01*
X383607Y176144D01*
X383701Y176117D01*
X383795Y176087D01*
X383887Y176053D01*
X383977Y176015D01*
X384066Y175974D01*
X384153Y175929D01*
X384239Y175880D01*
X384322Y175828D01*
X384403Y175773D01*
X384482Y175714D01*
X384558Y175653D01*
X384632Y175588D01*
X384703Y175521D01*
X384772Y175450D01*
X384837Y175377D01*
X384899Y175301D01*
X384959Y175223D01*
X385015Y175142D01*
X385067Y175060D01*
X385117Y174975D01*
X385163Y174888D01*
X385205Y174800D01*
X385244Y174709D01*
X385279Y174618D01*
X385310Y174525D01*
X385337Y174431D01*
X385361Y174335D01*
X385381Y174239D01*
X385397Y174142D01*
X385409Y174045D01*
X385417Y173947D01*
X385421Y173849D01*
X385421Y173751D01*
X385417Y173653D01*
X385409Y173555D01*
X385397Y173458D01*
X385381Y173361D01*
X385361Y173265D01*
X385337Y173169D01*
X385310Y173075D01*
X385279Y172982D01*
X385244Y172891D01*
X385205Y172800D01*
X385163Y172712D01*
X385117Y172625D01*
X385067Y172540D01*
X385015Y172458D01*
X384959Y172377D01*
X384899Y172299D01*
X384837Y172223D01*
X384772Y172150D01*
X384703Y172079D01*
X384632Y172012D01*
X384558Y171947D01*
X384482Y171886D01*
X384403Y171827D01*
X384322Y171772D01*
X384239Y171720D01*
X384153Y171671D01*
X384066Y171626D01*
X383977Y171585D01*
X383887Y171547D01*
X383795Y171513D01*
X383701Y171483D01*
X383607Y171456D01*
X383511Y171434D01*
X383415Y171415D01*
X383318Y171400D01*
X383221Y171389D01*
X383123Y171382D01*
X383025Y171379D01*
X382926Y171380D01*
X382828Y171385D01*
X382731Y171394D01*
X382633Y171407D01*
X382537Y171424D01*
X382441Y171444D01*
X382346Y171469D01*
X382252Y171497D01*
X382159Y171530D01*
X382068Y171566D01*
X381978Y171605D01*
X381890Y171648D01*
X381804Y171695D01*
X381719Y171745D01*
X381637Y171799D01*
X381557Y171856D01*
X381480Y171916D01*
X381404Y171979D01*
X381332Y172045D01*
X381262Y172114D01*
X381195Y172186D01*
X381131Y172261D01*
X381071Y172338D01*
X381013Y172417D01*
X380959Y172499D01*
X380907Y172582D01*
X380860Y172668D01*
X380816Y172756D01*
X380775Y172845D01*
X380738Y172936D01*
X380705Y173029D01*
X380676Y173122D01*
X380650Y173217D01*
X380629Y173313D01*
X380611Y173409D01*
X380597Y173506D01*
X380587Y173604D01*
X380581Y173702D01*
X380579Y173800D01*
D11*
X297801Y312928D02*
X292608Y312928D01*
X292608Y324612D01*
X297801Y324612D01*
X296503Y319419D02*
X292608Y319419D01*
X302491Y324612D02*
X302491Y312928D01*
X308983Y312928D02*
X302491Y324612D01*
X308983Y324612D02*
X308983Y312928D01*
X316866Y312928D02*
X319462Y312928D01*
X316866Y312928D02*
X316767Y312930D01*
X316667Y312936D01*
X316568Y312945D01*
X316470Y312958D01*
X316372Y312975D01*
X316274Y312996D01*
X316178Y313021D01*
X316083Y313049D01*
X315989Y313081D01*
X315896Y313116D01*
X315804Y313155D01*
X315714Y313198D01*
X315626Y313243D01*
X315539Y313293D01*
X315455Y313345D01*
X315372Y313401D01*
X315292Y313459D01*
X315214Y313521D01*
X315139Y313586D01*
X315066Y313654D01*
X314996Y313724D01*
X314928Y313797D01*
X314863Y313872D01*
X314801Y313950D01*
X314743Y314030D01*
X314687Y314113D01*
X314635Y314197D01*
X314585Y314284D01*
X314540Y314372D01*
X314497Y314462D01*
X314458Y314554D01*
X314423Y314647D01*
X314391Y314741D01*
X314363Y314836D01*
X314338Y314932D01*
X314317Y315030D01*
X314300Y315128D01*
X314287Y315226D01*
X314278Y315325D01*
X314272Y315425D01*
X314270Y315524D01*
X314269Y315524D02*
X314269Y322016D01*
X314270Y322016D02*
X314272Y322115D01*
X314278Y322215D01*
X314287Y322314D01*
X314300Y322412D01*
X314317Y322510D01*
X314338Y322608D01*
X314363Y322704D01*
X314391Y322799D01*
X314423Y322893D01*
X314458Y322986D01*
X314497Y323078D01*
X314540Y323168D01*
X314585Y323256D01*
X314635Y323343D01*
X314687Y323427D01*
X314743Y323510D01*
X314801Y323590D01*
X314863Y323668D01*
X314928Y323743D01*
X314996Y323816D01*
X315066Y323886D01*
X315139Y323954D01*
X315214Y324019D01*
X315292Y324081D01*
X315372Y324139D01*
X315455Y324195D01*
X315539Y324247D01*
X315626Y324297D01*
X315714Y324342D01*
X315804Y324385D01*
X315896Y324424D01*
X315988Y324459D01*
X316083Y324491D01*
X316178Y324519D01*
X316274Y324544D01*
X316372Y324565D01*
X316470Y324582D01*
X316568Y324595D01*
X316667Y324604D01*
X316767Y324610D01*
X316866Y324612D01*
X319462Y324612D01*
X323827Y321366D02*
X323827Y316174D01*
X323827Y321366D02*
X323829Y321479D01*
X323835Y321592D01*
X323845Y321705D01*
X323859Y321818D01*
X323876Y321930D01*
X323898Y322041D01*
X323923Y322151D01*
X323953Y322261D01*
X323986Y322369D01*
X324023Y322476D01*
X324063Y322582D01*
X324108Y322686D01*
X324156Y322789D01*
X324207Y322890D01*
X324262Y322989D01*
X324320Y323086D01*
X324382Y323181D01*
X324447Y323274D01*
X324515Y323364D01*
X324586Y323452D01*
X324661Y323538D01*
X324738Y323621D01*
X324818Y323701D01*
X324901Y323778D01*
X324987Y323853D01*
X325075Y323924D01*
X325165Y323992D01*
X325258Y324057D01*
X325353Y324119D01*
X325450Y324177D01*
X325549Y324232D01*
X325650Y324283D01*
X325753Y324331D01*
X325857Y324376D01*
X325963Y324416D01*
X326070Y324453D01*
X326178Y324486D01*
X326288Y324516D01*
X326398Y324541D01*
X326509Y324563D01*
X326621Y324580D01*
X326734Y324594D01*
X326847Y324604D01*
X326960Y324610D01*
X327073Y324612D01*
X327186Y324610D01*
X327299Y324604D01*
X327412Y324594D01*
X327525Y324580D01*
X327637Y324563D01*
X327748Y324541D01*
X327858Y324516D01*
X327968Y324486D01*
X328076Y324453D01*
X328183Y324416D01*
X328289Y324376D01*
X328393Y324331D01*
X328496Y324283D01*
X328597Y324232D01*
X328696Y324177D01*
X328793Y324119D01*
X328888Y324057D01*
X328981Y323992D01*
X329071Y323924D01*
X329159Y323853D01*
X329245Y323778D01*
X329328Y323701D01*
X329408Y323621D01*
X329485Y323538D01*
X329560Y323452D01*
X329631Y323364D01*
X329699Y323274D01*
X329764Y323181D01*
X329826Y323086D01*
X329884Y322989D01*
X329939Y322890D01*
X329990Y322789D01*
X330038Y322686D01*
X330083Y322582D01*
X330123Y322476D01*
X330160Y322369D01*
X330193Y322261D01*
X330223Y322151D01*
X330248Y322041D01*
X330270Y321930D01*
X330287Y321818D01*
X330301Y321705D01*
X330311Y321592D01*
X330317Y321479D01*
X330319Y321366D01*
X330318Y321366D02*
X330318Y316174D01*
X330319Y316174D02*
X330317Y316061D01*
X330311Y315948D01*
X330301Y315835D01*
X330287Y315722D01*
X330270Y315610D01*
X330248Y315499D01*
X330223Y315389D01*
X330193Y315279D01*
X330160Y315171D01*
X330123Y315064D01*
X330083Y314958D01*
X330038Y314854D01*
X329990Y314751D01*
X329939Y314650D01*
X329884Y314551D01*
X329826Y314454D01*
X329764Y314359D01*
X329699Y314266D01*
X329631Y314176D01*
X329560Y314088D01*
X329485Y314002D01*
X329408Y313919D01*
X329328Y313839D01*
X329245Y313762D01*
X329159Y313687D01*
X329071Y313616D01*
X328981Y313548D01*
X328888Y313483D01*
X328793Y313421D01*
X328696Y313363D01*
X328597Y313308D01*
X328496Y313257D01*
X328393Y313209D01*
X328289Y313164D01*
X328183Y313124D01*
X328076Y313087D01*
X327968Y313054D01*
X327858Y313024D01*
X327748Y312999D01*
X327637Y312977D01*
X327525Y312960D01*
X327412Y312946D01*
X327299Y312936D01*
X327186Y312930D01*
X327073Y312928D01*
X326960Y312930D01*
X326847Y312936D01*
X326734Y312946D01*
X326621Y312960D01*
X326509Y312977D01*
X326398Y312999D01*
X326288Y313024D01*
X326178Y313054D01*
X326070Y313087D01*
X325963Y313124D01*
X325857Y313164D01*
X325753Y313209D01*
X325650Y313257D01*
X325549Y313308D01*
X325450Y313363D01*
X325353Y313421D01*
X325258Y313483D01*
X325165Y313548D01*
X325075Y313616D01*
X324987Y313687D01*
X324901Y313762D01*
X324818Y313839D01*
X324738Y313919D01*
X324661Y314002D01*
X324586Y314088D01*
X324515Y314176D01*
X324447Y314266D01*
X324382Y314359D01*
X324320Y314454D01*
X324262Y314551D01*
X324207Y314650D01*
X324156Y314751D01*
X324108Y314854D01*
X324063Y314958D01*
X324023Y315064D01*
X323986Y315171D01*
X323953Y315279D01*
X323923Y315389D01*
X323898Y315499D01*
X323876Y315610D01*
X323859Y315722D01*
X323845Y315835D01*
X323835Y315948D01*
X323829Y316061D01*
X323827Y316174D01*
X335638Y312928D02*
X335638Y324612D01*
X338884Y324612D01*
X338997Y324610D01*
X339110Y324604D01*
X339223Y324594D01*
X339336Y324580D01*
X339448Y324563D01*
X339559Y324541D01*
X339669Y324516D01*
X339779Y324486D01*
X339887Y324453D01*
X339994Y324416D01*
X340100Y324376D01*
X340204Y324331D01*
X340307Y324283D01*
X340408Y324232D01*
X340507Y324177D01*
X340604Y324119D01*
X340699Y324057D01*
X340792Y323992D01*
X340882Y323924D01*
X340970Y323853D01*
X341056Y323778D01*
X341139Y323701D01*
X341219Y323621D01*
X341296Y323538D01*
X341371Y323452D01*
X341442Y323364D01*
X341510Y323274D01*
X341575Y323181D01*
X341637Y323086D01*
X341695Y322989D01*
X341750Y322890D01*
X341801Y322789D01*
X341849Y322686D01*
X341894Y322582D01*
X341934Y322476D01*
X341971Y322369D01*
X342004Y322261D01*
X342034Y322151D01*
X342059Y322041D01*
X342081Y321930D01*
X342098Y321818D01*
X342112Y321705D01*
X342122Y321592D01*
X342128Y321479D01*
X342130Y321366D01*
X342129Y321366D02*
X342129Y316174D01*
X342130Y316174D02*
X342128Y316061D01*
X342122Y315948D01*
X342112Y315835D01*
X342098Y315722D01*
X342081Y315610D01*
X342059Y315499D01*
X342034Y315389D01*
X342004Y315279D01*
X341971Y315171D01*
X341934Y315064D01*
X341894Y314958D01*
X341849Y314854D01*
X341801Y314751D01*
X341750Y314650D01*
X341695Y314551D01*
X341637Y314454D01*
X341575Y314359D01*
X341510Y314266D01*
X341442Y314176D01*
X341371Y314088D01*
X341296Y314002D01*
X341219Y313919D01*
X341139Y313839D01*
X341056Y313762D01*
X340970Y313687D01*
X340882Y313616D01*
X340792Y313548D01*
X340699Y313483D01*
X340604Y313421D01*
X340507Y313363D01*
X340408Y313308D01*
X340307Y313257D01*
X340204Y313209D01*
X340100Y313164D01*
X339994Y313124D01*
X339887Y313087D01*
X339779Y313054D01*
X339669Y313024D01*
X339559Y312999D01*
X339448Y312977D01*
X339336Y312960D01*
X339223Y312946D01*
X339110Y312936D01*
X338997Y312930D01*
X338884Y312928D01*
X335638Y312928D01*
X347853Y312928D02*
X353046Y312928D01*
X347853Y312928D02*
X347853Y324612D01*
X353046Y324612D01*
X351748Y319419D02*
X347853Y319419D01*
X357810Y324612D02*
X357810Y312928D01*
X357810Y324612D02*
X361055Y324612D01*
X361168Y324610D01*
X361281Y324604D01*
X361394Y324594D01*
X361507Y324580D01*
X361619Y324563D01*
X361730Y324541D01*
X361840Y324516D01*
X361950Y324486D01*
X362058Y324453D01*
X362165Y324416D01*
X362271Y324376D01*
X362375Y324331D01*
X362478Y324283D01*
X362579Y324232D01*
X362678Y324177D01*
X362775Y324119D01*
X362870Y324057D01*
X362963Y323992D01*
X363053Y323924D01*
X363141Y323853D01*
X363227Y323778D01*
X363310Y323701D01*
X363390Y323621D01*
X363467Y323538D01*
X363542Y323452D01*
X363613Y323364D01*
X363681Y323274D01*
X363746Y323181D01*
X363808Y323086D01*
X363866Y322989D01*
X363921Y322890D01*
X363972Y322789D01*
X364020Y322686D01*
X364065Y322582D01*
X364105Y322476D01*
X364142Y322369D01*
X364175Y322261D01*
X364205Y322151D01*
X364230Y322041D01*
X364252Y321930D01*
X364269Y321818D01*
X364283Y321705D01*
X364293Y321592D01*
X364299Y321479D01*
X364301Y321366D01*
X364299Y321253D01*
X364293Y321140D01*
X364283Y321027D01*
X364269Y320914D01*
X364252Y320802D01*
X364230Y320691D01*
X364205Y320581D01*
X364175Y320471D01*
X364142Y320363D01*
X364105Y320256D01*
X364065Y320150D01*
X364020Y320046D01*
X363972Y319943D01*
X363921Y319842D01*
X363866Y319743D01*
X363808Y319646D01*
X363746Y319551D01*
X363681Y319458D01*
X363613Y319368D01*
X363542Y319280D01*
X363467Y319194D01*
X363390Y319111D01*
X363310Y319031D01*
X363227Y318954D01*
X363141Y318879D01*
X363053Y318808D01*
X362963Y318740D01*
X362870Y318675D01*
X362775Y318613D01*
X362678Y318555D01*
X362579Y318500D01*
X362478Y318449D01*
X362375Y318401D01*
X362271Y318356D01*
X362165Y318316D01*
X362058Y318279D01*
X361950Y318246D01*
X361840Y318216D01*
X361730Y318191D01*
X361619Y318169D01*
X361507Y318152D01*
X361394Y318138D01*
X361281Y318128D01*
X361168Y318122D01*
X361055Y318120D01*
X361055Y318121D02*
X357810Y318121D01*
X361705Y318121D02*
X364301Y312928D01*
X371650Y312928D02*
X371650Y324612D01*
X370027Y319744D02*
X371650Y318770D01*
X370027Y319743D02*
X369954Y319790D01*
X369883Y319839D01*
X369813Y319892D01*
X369747Y319948D01*
X369683Y320007D01*
X369621Y320068D01*
X369563Y320132D01*
X369507Y320199D01*
X369455Y320268D01*
X369405Y320340D01*
X369359Y320414D01*
X369316Y320489D01*
X369277Y320567D01*
X369241Y320646D01*
X369209Y320727D01*
X369180Y320809D01*
X369155Y320892D01*
X369134Y320976D01*
X369117Y321061D01*
X369103Y321147D01*
X369094Y321233D01*
X369088Y321320D01*
X369086Y321407D01*
X369088Y321494D01*
X369094Y321581D01*
X369104Y321667D01*
X369117Y321753D01*
X369135Y321838D01*
X369156Y321922D01*
X369181Y322005D01*
X369210Y322088D01*
X369242Y322168D01*
X369278Y322247D01*
X369317Y322325D01*
X369360Y322400D01*
X369407Y322474D01*
X369456Y322545D01*
X369509Y322615D01*
X369564Y322681D01*
X369623Y322745D01*
X369684Y322807D01*
X369749Y322866D01*
X369815Y322921D01*
X369884Y322974D01*
X369956Y323024D01*
X370029Y323070D01*
X370105Y323113D01*
X370182Y323152D01*
X370261Y323188D01*
X370342Y323221D01*
X370424Y323249D01*
X370507Y323275D01*
X370591Y323296D01*
X370677Y323313D01*
X370676Y323314D02*
X370816Y323338D01*
X370958Y323358D01*
X371099Y323374D01*
X371241Y323385D01*
X371384Y323393D01*
X371526Y323397D01*
X371669Y323398D01*
X371812Y323394D01*
X371954Y323386D01*
X372096Y323374D01*
X372238Y323358D01*
X372379Y323339D01*
X372520Y323315D01*
X372660Y323288D01*
X372799Y323256D01*
X372937Y323221D01*
X373075Y323182D01*
X373211Y323139D01*
X373345Y323093D01*
X373479Y323042D01*
X373611Y322989D01*
X373741Y322931D01*
X373870Y322870D01*
X373997Y322805D01*
X374123Y322737D01*
X374246Y322665D01*
X371650Y318770D02*
X373273Y317796D01*
X373273Y317797D02*
X373346Y317750D01*
X373417Y317701D01*
X373487Y317648D01*
X373553Y317592D01*
X373617Y317533D01*
X373679Y317472D01*
X373737Y317408D01*
X373793Y317341D01*
X373845Y317272D01*
X373895Y317200D01*
X373941Y317126D01*
X373984Y317051D01*
X374023Y316973D01*
X374059Y316894D01*
X374091Y316813D01*
X374120Y316731D01*
X374145Y316648D01*
X374166Y316564D01*
X374183Y316479D01*
X374197Y316393D01*
X374206Y316307D01*
X374212Y316220D01*
X374214Y316133D01*
X374212Y316046D01*
X374206Y315959D01*
X374196Y315873D01*
X374183Y315787D01*
X374165Y315702D01*
X374144Y315618D01*
X374119Y315535D01*
X374090Y315452D01*
X374058Y315372D01*
X374022Y315293D01*
X373983Y315215D01*
X373940Y315140D01*
X373893Y315066D01*
X373844Y314995D01*
X373791Y314925D01*
X373736Y314859D01*
X373677Y314795D01*
X373616Y314733D01*
X373551Y314674D01*
X373485Y314619D01*
X373416Y314566D01*
X373344Y314516D01*
X373271Y314470D01*
X373195Y314427D01*
X373118Y314388D01*
X373039Y314352D01*
X372958Y314319D01*
X372876Y314291D01*
X372793Y314265D01*
X372709Y314244D01*
X372624Y314227D01*
X372623Y314226D02*
X372483Y314202D01*
X372341Y314182D01*
X372200Y314166D01*
X372058Y314155D01*
X371915Y314147D01*
X371773Y314143D01*
X371630Y314142D01*
X371487Y314146D01*
X371345Y314154D01*
X371203Y314166D01*
X371061Y314182D01*
X370920Y314201D01*
X370779Y314225D01*
X370639Y314252D01*
X370500Y314284D01*
X370362Y314319D01*
X370224Y314358D01*
X370088Y314401D01*
X369954Y314447D01*
X369820Y314498D01*
X369688Y314551D01*
X369558Y314609D01*
X369429Y314670D01*
X369302Y314735D01*
X369176Y314803D01*
X369053Y314875D01*
X379072Y322016D02*
X382318Y324612D01*
X382318Y312928D01*
X385563Y312928D02*
X379072Y312928D01*
D12*
X367900Y75800D02*
X317900Y75800D01*
X317900Y25800D02*
X367900Y25800D01*
X310664Y74800D02*
X310666Y74894D01*
X310672Y74988D01*
X310682Y75082D01*
X310696Y75175D01*
X310714Y75268D01*
X310735Y75360D01*
X310761Y75450D01*
X310790Y75540D01*
X310823Y75628D01*
X310860Y75715D01*
X310900Y75800D01*
X310944Y75884D01*
X310992Y75965D01*
X311042Y76045D01*
X311097Y76122D01*
X311154Y76197D01*
X311214Y76269D01*
X311278Y76339D01*
X311344Y76406D01*
X311413Y76470D01*
X311485Y76531D01*
X311559Y76589D01*
X311636Y76644D01*
X311715Y76696D01*
X311796Y76744D01*
X311879Y76789D01*
X311963Y76830D01*
X312050Y76868D01*
X312138Y76902D01*
X312227Y76932D01*
X312317Y76959D01*
X312409Y76981D01*
X312501Y77000D01*
X312595Y77015D01*
X312688Y77026D01*
X312782Y77033D01*
X312876Y77036D01*
X312971Y77035D01*
X313065Y77030D01*
X313159Y77021D01*
X313252Y77008D01*
X313345Y76991D01*
X313437Y76971D01*
X313528Y76946D01*
X313618Y76918D01*
X313706Y76886D01*
X313794Y76850D01*
X313879Y76810D01*
X313963Y76767D01*
X314045Y76721D01*
X314125Y76671D01*
X314203Y76617D01*
X314278Y76561D01*
X314351Y76501D01*
X314422Y76438D01*
X314489Y76373D01*
X314554Y76304D01*
X314616Y76233D01*
X314675Y76160D01*
X314731Y76084D01*
X314783Y76005D01*
X314832Y75925D01*
X314878Y75842D01*
X314920Y75758D01*
X314959Y75672D01*
X314994Y75584D01*
X315025Y75495D01*
X315053Y75405D01*
X315076Y75314D01*
X315096Y75222D01*
X315112Y75129D01*
X315124Y75035D01*
X315132Y74941D01*
X315136Y74847D01*
X315136Y74753D01*
X315132Y74659D01*
X315124Y74565D01*
X315112Y74471D01*
X315096Y74378D01*
X315076Y74286D01*
X315053Y74195D01*
X315025Y74105D01*
X314994Y74016D01*
X314959Y73928D01*
X314920Y73842D01*
X314878Y73758D01*
X314832Y73675D01*
X314783Y73595D01*
X314731Y73516D01*
X314675Y73440D01*
X314616Y73367D01*
X314554Y73296D01*
X314489Y73227D01*
X314422Y73162D01*
X314351Y73099D01*
X314278Y73039D01*
X314203Y72983D01*
X314125Y72929D01*
X314045Y72879D01*
X313963Y72833D01*
X313879Y72790D01*
X313794Y72750D01*
X313706Y72714D01*
X313618Y72682D01*
X313528Y72654D01*
X313437Y72629D01*
X313345Y72609D01*
X313252Y72592D01*
X313159Y72579D01*
X313065Y72570D01*
X312971Y72565D01*
X312876Y72564D01*
X312782Y72567D01*
X312688Y72574D01*
X312595Y72585D01*
X312501Y72600D01*
X312409Y72619D01*
X312317Y72641D01*
X312227Y72668D01*
X312138Y72698D01*
X312050Y72732D01*
X311963Y72770D01*
X311879Y72811D01*
X311796Y72856D01*
X311715Y72904D01*
X311636Y72956D01*
X311559Y73011D01*
X311485Y73069D01*
X311413Y73130D01*
X311344Y73194D01*
X311278Y73261D01*
X311214Y73331D01*
X311154Y73403D01*
X311097Y73478D01*
X311042Y73555D01*
X310992Y73635D01*
X310944Y73716D01*
X310900Y73800D01*
X310860Y73885D01*
X310823Y73972D01*
X310790Y74060D01*
X310761Y74150D01*
X310735Y74240D01*
X310714Y74332D01*
X310696Y74425D01*
X310682Y74518D01*
X310672Y74612D01*
X310666Y74706D01*
X310664Y74800D01*
D11*
X316328Y17332D02*
X316328Y5648D01*
X321521Y5648D01*
X326234Y5648D02*
X331427Y5648D01*
X326234Y5648D02*
X326234Y17332D01*
X331427Y17332D01*
X330129Y12139D02*
X326234Y12139D01*
X336117Y17332D02*
X336117Y5648D01*
X336117Y17332D02*
X339363Y17332D01*
X339476Y17330D01*
X339589Y17324D01*
X339702Y17314D01*
X339815Y17300D01*
X339927Y17283D01*
X340038Y17261D01*
X340148Y17236D01*
X340258Y17206D01*
X340366Y17173D01*
X340473Y17136D01*
X340579Y17096D01*
X340683Y17051D01*
X340786Y17003D01*
X340887Y16952D01*
X340986Y16897D01*
X341083Y16839D01*
X341178Y16777D01*
X341271Y16712D01*
X341361Y16644D01*
X341449Y16573D01*
X341535Y16498D01*
X341618Y16421D01*
X341698Y16341D01*
X341775Y16258D01*
X341850Y16172D01*
X341921Y16084D01*
X341989Y15994D01*
X342054Y15901D01*
X342116Y15806D01*
X342174Y15709D01*
X342229Y15610D01*
X342280Y15509D01*
X342328Y15406D01*
X342373Y15302D01*
X342413Y15196D01*
X342450Y15089D01*
X342483Y14981D01*
X342513Y14871D01*
X342538Y14761D01*
X342560Y14650D01*
X342577Y14538D01*
X342591Y14425D01*
X342601Y14312D01*
X342607Y14199D01*
X342609Y14086D01*
X342609Y8894D01*
X342607Y8781D01*
X342601Y8668D01*
X342591Y8555D01*
X342577Y8442D01*
X342560Y8330D01*
X342538Y8219D01*
X342513Y8109D01*
X342483Y7999D01*
X342450Y7891D01*
X342413Y7784D01*
X342373Y7678D01*
X342328Y7574D01*
X342280Y7471D01*
X342229Y7370D01*
X342174Y7271D01*
X342116Y7174D01*
X342054Y7079D01*
X341989Y6986D01*
X341921Y6896D01*
X341850Y6808D01*
X341775Y6722D01*
X341698Y6639D01*
X341618Y6559D01*
X341535Y6482D01*
X341449Y6407D01*
X341361Y6336D01*
X341271Y6268D01*
X341178Y6203D01*
X341083Y6141D01*
X340986Y6083D01*
X340887Y6028D01*
X340786Y5977D01*
X340683Y5929D01*
X340579Y5884D01*
X340473Y5844D01*
X340366Y5807D01*
X340258Y5774D01*
X340148Y5744D01*
X340038Y5719D01*
X339927Y5697D01*
X339815Y5680D01*
X339702Y5666D01*
X339589Y5656D01*
X339476Y5650D01*
X339363Y5648D01*
X336117Y5648D01*
X350412Y5648D02*
X350412Y17332D01*
X348789Y12464D02*
X350412Y11490D01*
X348789Y12463D02*
X348716Y12510D01*
X348645Y12559D01*
X348575Y12612D01*
X348509Y12668D01*
X348445Y12727D01*
X348383Y12788D01*
X348325Y12852D01*
X348269Y12919D01*
X348217Y12988D01*
X348167Y13060D01*
X348121Y13134D01*
X348078Y13209D01*
X348039Y13287D01*
X348003Y13366D01*
X347971Y13447D01*
X347942Y13529D01*
X347917Y13612D01*
X347896Y13696D01*
X347879Y13781D01*
X347865Y13867D01*
X347856Y13953D01*
X347850Y14040D01*
X347848Y14127D01*
X347850Y14214D01*
X347856Y14301D01*
X347866Y14387D01*
X347879Y14473D01*
X347897Y14558D01*
X347918Y14642D01*
X347943Y14725D01*
X347972Y14808D01*
X348004Y14888D01*
X348040Y14967D01*
X348079Y15045D01*
X348122Y15120D01*
X348169Y15194D01*
X348218Y15265D01*
X348271Y15335D01*
X348326Y15401D01*
X348385Y15465D01*
X348446Y15527D01*
X348511Y15586D01*
X348577Y15641D01*
X348646Y15694D01*
X348718Y15744D01*
X348791Y15790D01*
X348867Y15833D01*
X348944Y15872D01*
X349023Y15908D01*
X349104Y15941D01*
X349186Y15969D01*
X349269Y15995D01*
X349353Y16016D01*
X349439Y16033D01*
X349439Y16034D02*
X349579Y16058D01*
X349721Y16078D01*
X349862Y16094D01*
X350004Y16105D01*
X350147Y16113D01*
X350289Y16117D01*
X350432Y16118D01*
X350575Y16114D01*
X350717Y16106D01*
X350859Y16094D01*
X351001Y16078D01*
X351142Y16059D01*
X351283Y16035D01*
X351423Y16008D01*
X351562Y15976D01*
X351700Y15941D01*
X351838Y15902D01*
X351974Y15859D01*
X352108Y15813D01*
X352242Y15762D01*
X352374Y15709D01*
X352504Y15651D01*
X352633Y15590D01*
X352760Y15525D01*
X352886Y15457D01*
X353009Y15385D01*
X350412Y11490D02*
X352035Y10516D01*
X352035Y10517D02*
X352108Y10470D01*
X352179Y10421D01*
X352249Y10368D01*
X352315Y10312D01*
X352379Y10253D01*
X352441Y10192D01*
X352499Y10128D01*
X352555Y10061D01*
X352607Y9992D01*
X352657Y9920D01*
X352703Y9846D01*
X352746Y9771D01*
X352785Y9693D01*
X352821Y9614D01*
X352853Y9533D01*
X352882Y9451D01*
X352907Y9368D01*
X352928Y9284D01*
X352945Y9199D01*
X352959Y9113D01*
X352968Y9027D01*
X352974Y8940D01*
X352976Y8853D01*
X352974Y8766D01*
X352968Y8679D01*
X352958Y8593D01*
X352945Y8507D01*
X352927Y8422D01*
X352906Y8338D01*
X352881Y8255D01*
X352852Y8172D01*
X352820Y8092D01*
X352784Y8013D01*
X352745Y7935D01*
X352702Y7860D01*
X352655Y7786D01*
X352606Y7715D01*
X352553Y7645D01*
X352498Y7579D01*
X352439Y7515D01*
X352378Y7453D01*
X352313Y7394D01*
X352247Y7339D01*
X352178Y7286D01*
X352106Y7236D01*
X352033Y7190D01*
X351957Y7147D01*
X351880Y7108D01*
X351801Y7072D01*
X351720Y7039D01*
X351638Y7011D01*
X351555Y6985D01*
X351471Y6964D01*
X351386Y6947D01*
X351385Y6946D02*
X351245Y6922D01*
X351103Y6902D01*
X350962Y6886D01*
X350820Y6875D01*
X350677Y6867D01*
X350535Y6863D01*
X350392Y6862D01*
X350249Y6866D01*
X350107Y6874D01*
X349965Y6886D01*
X349823Y6902D01*
X349682Y6921D01*
X349541Y6945D01*
X349401Y6972D01*
X349262Y7004D01*
X349124Y7039D01*
X348986Y7078D01*
X348850Y7121D01*
X348716Y7167D01*
X348582Y7218D01*
X348450Y7271D01*
X348320Y7329D01*
X348191Y7390D01*
X348064Y7455D01*
X347938Y7523D01*
X347815Y7595D01*
X357834Y14736D02*
X361080Y17332D01*
X361080Y5648D01*
X364325Y5648D02*
X357834Y5648D01*
D12*
X190100Y266300D02*
X140100Y266300D01*
X140100Y216300D02*
X190100Y216300D01*
X132864Y265300D02*
X132866Y265394D01*
X132872Y265488D01*
X132882Y265582D01*
X132896Y265675D01*
X132914Y265768D01*
X132935Y265860D01*
X132961Y265950D01*
X132990Y266040D01*
X133023Y266128D01*
X133060Y266215D01*
X133100Y266300D01*
X133144Y266384D01*
X133192Y266465D01*
X133242Y266545D01*
X133297Y266622D01*
X133354Y266697D01*
X133414Y266769D01*
X133478Y266839D01*
X133544Y266906D01*
X133613Y266970D01*
X133685Y267031D01*
X133759Y267089D01*
X133836Y267144D01*
X133915Y267196D01*
X133996Y267244D01*
X134079Y267289D01*
X134163Y267330D01*
X134250Y267368D01*
X134338Y267402D01*
X134427Y267432D01*
X134517Y267459D01*
X134609Y267481D01*
X134701Y267500D01*
X134795Y267515D01*
X134888Y267526D01*
X134982Y267533D01*
X135076Y267536D01*
X135171Y267535D01*
X135265Y267530D01*
X135359Y267521D01*
X135452Y267508D01*
X135545Y267491D01*
X135637Y267471D01*
X135728Y267446D01*
X135818Y267418D01*
X135906Y267386D01*
X135994Y267350D01*
X136079Y267310D01*
X136163Y267267D01*
X136245Y267221D01*
X136325Y267171D01*
X136403Y267117D01*
X136478Y267061D01*
X136551Y267001D01*
X136622Y266938D01*
X136689Y266873D01*
X136754Y266804D01*
X136816Y266733D01*
X136875Y266660D01*
X136931Y266584D01*
X136983Y266505D01*
X137032Y266425D01*
X137078Y266342D01*
X137120Y266258D01*
X137159Y266172D01*
X137194Y266084D01*
X137225Y265995D01*
X137253Y265905D01*
X137276Y265814D01*
X137296Y265722D01*
X137312Y265629D01*
X137324Y265535D01*
X137332Y265441D01*
X137336Y265347D01*
X137336Y265253D01*
X137332Y265159D01*
X137324Y265065D01*
X137312Y264971D01*
X137296Y264878D01*
X137276Y264786D01*
X137253Y264695D01*
X137225Y264605D01*
X137194Y264516D01*
X137159Y264428D01*
X137120Y264342D01*
X137078Y264258D01*
X137032Y264175D01*
X136983Y264095D01*
X136931Y264016D01*
X136875Y263940D01*
X136816Y263867D01*
X136754Y263796D01*
X136689Y263727D01*
X136622Y263662D01*
X136551Y263599D01*
X136478Y263539D01*
X136403Y263483D01*
X136325Y263429D01*
X136245Y263379D01*
X136163Y263333D01*
X136079Y263290D01*
X135994Y263250D01*
X135906Y263214D01*
X135818Y263182D01*
X135728Y263154D01*
X135637Y263129D01*
X135545Y263109D01*
X135452Y263092D01*
X135359Y263079D01*
X135265Y263070D01*
X135171Y263065D01*
X135076Y263064D01*
X134982Y263067D01*
X134888Y263074D01*
X134795Y263085D01*
X134701Y263100D01*
X134609Y263119D01*
X134517Y263141D01*
X134427Y263168D01*
X134338Y263198D01*
X134250Y263232D01*
X134163Y263270D01*
X134079Y263311D01*
X133996Y263356D01*
X133915Y263404D01*
X133836Y263456D01*
X133759Y263511D01*
X133685Y263569D01*
X133613Y263630D01*
X133544Y263694D01*
X133478Y263761D01*
X133414Y263831D01*
X133354Y263903D01*
X133297Y263978D01*
X133242Y264055D01*
X133192Y264135D01*
X133144Y264216D01*
X133100Y264300D01*
X133060Y264385D01*
X133023Y264472D01*
X132990Y264560D01*
X132961Y264650D01*
X132935Y264740D01*
X132914Y264832D01*
X132896Y264925D01*
X132882Y265018D01*
X132872Y265112D01*
X132866Y265206D01*
X132864Y265300D01*
D11*
X138528Y207832D02*
X138528Y196148D01*
X143721Y196148D01*
X148434Y196148D02*
X153627Y196148D01*
X148434Y196148D02*
X148434Y207832D01*
X153627Y207832D01*
X152329Y202639D02*
X148434Y202639D01*
X158317Y207832D02*
X158317Y196148D01*
X158317Y207832D02*
X161563Y207832D01*
X161676Y207830D01*
X161789Y207824D01*
X161902Y207814D01*
X162015Y207800D01*
X162127Y207783D01*
X162238Y207761D01*
X162348Y207736D01*
X162458Y207706D01*
X162566Y207673D01*
X162673Y207636D01*
X162779Y207596D01*
X162883Y207551D01*
X162986Y207503D01*
X163087Y207452D01*
X163186Y207397D01*
X163283Y207339D01*
X163378Y207277D01*
X163471Y207212D01*
X163561Y207144D01*
X163649Y207073D01*
X163735Y206998D01*
X163818Y206921D01*
X163898Y206841D01*
X163975Y206758D01*
X164050Y206672D01*
X164121Y206584D01*
X164189Y206494D01*
X164254Y206401D01*
X164316Y206306D01*
X164374Y206209D01*
X164429Y206110D01*
X164480Y206009D01*
X164528Y205906D01*
X164573Y205802D01*
X164613Y205696D01*
X164650Y205589D01*
X164683Y205481D01*
X164713Y205371D01*
X164738Y205261D01*
X164760Y205150D01*
X164777Y205038D01*
X164791Y204925D01*
X164801Y204812D01*
X164807Y204699D01*
X164809Y204586D01*
X164809Y199394D01*
X164807Y199281D01*
X164801Y199168D01*
X164791Y199055D01*
X164777Y198942D01*
X164760Y198830D01*
X164738Y198719D01*
X164713Y198609D01*
X164683Y198499D01*
X164650Y198391D01*
X164613Y198284D01*
X164573Y198178D01*
X164528Y198074D01*
X164480Y197971D01*
X164429Y197870D01*
X164374Y197771D01*
X164316Y197674D01*
X164254Y197579D01*
X164189Y197486D01*
X164121Y197396D01*
X164050Y197308D01*
X163975Y197222D01*
X163898Y197139D01*
X163818Y197059D01*
X163735Y196982D01*
X163649Y196907D01*
X163561Y196836D01*
X163471Y196768D01*
X163378Y196703D01*
X163283Y196641D01*
X163186Y196583D01*
X163087Y196528D01*
X162986Y196477D01*
X162883Y196429D01*
X162779Y196384D01*
X162673Y196344D01*
X162566Y196307D01*
X162458Y196274D01*
X162348Y196244D01*
X162238Y196219D01*
X162127Y196197D01*
X162015Y196180D01*
X161902Y196166D01*
X161789Y196156D01*
X161676Y196150D01*
X161563Y196148D01*
X158317Y196148D01*
X172612Y196148D02*
X172612Y207832D01*
X170989Y202964D02*
X172612Y201990D01*
X170989Y202963D02*
X170916Y203010D01*
X170845Y203059D01*
X170775Y203112D01*
X170709Y203168D01*
X170645Y203227D01*
X170583Y203288D01*
X170525Y203352D01*
X170469Y203419D01*
X170417Y203488D01*
X170367Y203560D01*
X170321Y203634D01*
X170278Y203709D01*
X170239Y203787D01*
X170203Y203866D01*
X170171Y203947D01*
X170142Y204029D01*
X170117Y204112D01*
X170096Y204196D01*
X170079Y204281D01*
X170065Y204367D01*
X170056Y204453D01*
X170050Y204540D01*
X170048Y204627D01*
X170050Y204714D01*
X170056Y204801D01*
X170066Y204887D01*
X170079Y204973D01*
X170097Y205058D01*
X170118Y205142D01*
X170143Y205225D01*
X170172Y205308D01*
X170204Y205388D01*
X170240Y205467D01*
X170279Y205545D01*
X170322Y205620D01*
X170369Y205694D01*
X170418Y205765D01*
X170471Y205835D01*
X170526Y205901D01*
X170585Y205965D01*
X170646Y206027D01*
X170711Y206086D01*
X170777Y206141D01*
X170846Y206194D01*
X170918Y206244D01*
X170991Y206290D01*
X171067Y206333D01*
X171144Y206372D01*
X171223Y206408D01*
X171304Y206441D01*
X171386Y206469D01*
X171469Y206495D01*
X171553Y206516D01*
X171639Y206533D01*
X171639Y206534D02*
X171779Y206558D01*
X171921Y206578D01*
X172062Y206594D01*
X172204Y206605D01*
X172347Y206613D01*
X172489Y206617D01*
X172632Y206618D01*
X172775Y206614D01*
X172917Y206606D01*
X173059Y206594D01*
X173201Y206578D01*
X173342Y206559D01*
X173483Y206535D01*
X173623Y206508D01*
X173762Y206476D01*
X173900Y206441D01*
X174038Y206402D01*
X174174Y206359D01*
X174308Y206313D01*
X174442Y206262D01*
X174574Y206209D01*
X174704Y206151D01*
X174833Y206090D01*
X174960Y206025D01*
X175086Y205957D01*
X175209Y205885D01*
X172612Y201990D02*
X174235Y201016D01*
X174235Y201017D02*
X174308Y200970D01*
X174379Y200921D01*
X174449Y200868D01*
X174515Y200812D01*
X174579Y200753D01*
X174641Y200692D01*
X174699Y200628D01*
X174755Y200561D01*
X174807Y200492D01*
X174857Y200420D01*
X174903Y200346D01*
X174946Y200271D01*
X174985Y200193D01*
X175021Y200114D01*
X175053Y200033D01*
X175082Y199951D01*
X175107Y199868D01*
X175128Y199784D01*
X175145Y199699D01*
X175159Y199613D01*
X175168Y199527D01*
X175174Y199440D01*
X175176Y199353D01*
X175174Y199266D01*
X175168Y199179D01*
X175158Y199093D01*
X175145Y199007D01*
X175127Y198922D01*
X175106Y198838D01*
X175081Y198755D01*
X175052Y198672D01*
X175020Y198592D01*
X174984Y198513D01*
X174945Y198435D01*
X174902Y198360D01*
X174855Y198286D01*
X174806Y198215D01*
X174753Y198145D01*
X174698Y198079D01*
X174639Y198015D01*
X174578Y197953D01*
X174513Y197894D01*
X174447Y197839D01*
X174378Y197786D01*
X174306Y197736D01*
X174233Y197690D01*
X174157Y197647D01*
X174080Y197608D01*
X174001Y197572D01*
X173920Y197539D01*
X173838Y197511D01*
X173755Y197485D01*
X173671Y197464D01*
X173586Y197447D01*
X173585Y197446D02*
X173445Y197422D01*
X173303Y197402D01*
X173162Y197386D01*
X173020Y197375D01*
X172877Y197367D01*
X172735Y197363D01*
X172592Y197362D01*
X172449Y197366D01*
X172307Y197374D01*
X172165Y197386D01*
X172023Y197402D01*
X171882Y197421D01*
X171741Y197445D01*
X171601Y197472D01*
X171462Y197504D01*
X171324Y197539D01*
X171186Y197578D01*
X171050Y197621D01*
X170916Y197667D01*
X170782Y197718D01*
X170650Y197771D01*
X170520Y197829D01*
X170391Y197890D01*
X170264Y197955D01*
X170138Y198023D01*
X170015Y198095D01*
X183604Y207832D02*
X183711Y207830D01*
X183817Y207824D01*
X183923Y207814D01*
X184029Y207801D01*
X184135Y207783D01*
X184239Y207762D01*
X184343Y207737D01*
X184446Y207708D01*
X184547Y207676D01*
X184647Y207639D01*
X184746Y207599D01*
X184844Y207556D01*
X184940Y207509D01*
X185034Y207458D01*
X185126Y207404D01*
X185216Y207347D01*
X185304Y207287D01*
X185389Y207223D01*
X185472Y207156D01*
X185553Y207086D01*
X185631Y207014D01*
X185707Y206938D01*
X185779Y206860D01*
X185849Y206779D01*
X185916Y206696D01*
X185980Y206611D01*
X186040Y206523D01*
X186097Y206433D01*
X186151Y206341D01*
X186202Y206247D01*
X186249Y206151D01*
X186292Y206053D01*
X186332Y205954D01*
X186369Y205854D01*
X186401Y205753D01*
X186430Y205650D01*
X186455Y205546D01*
X186476Y205442D01*
X186494Y205336D01*
X186507Y205230D01*
X186517Y205124D01*
X186523Y205018D01*
X186525Y204911D01*
X183604Y207832D02*
X183483Y207830D01*
X183362Y207824D01*
X183242Y207814D01*
X183121Y207801D01*
X183002Y207783D01*
X182882Y207762D01*
X182764Y207737D01*
X182647Y207708D01*
X182530Y207675D01*
X182415Y207639D01*
X182301Y207598D01*
X182188Y207555D01*
X182076Y207507D01*
X181967Y207456D01*
X181859Y207401D01*
X181752Y207343D01*
X181648Y207282D01*
X181546Y207217D01*
X181446Y207149D01*
X181348Y207078D01*
X181252Y207004D01*
X181159Y206927D01*
X181069Y206846D01*
X180981Y206763D01*
X180896Y206677D01*
X180813Y206588D01*
X180734Y206497D01*
X180657Y206403D01*
X180584Y206307D01*
X180514Y206209D01*
X180447Y206108D01*
X180383Y206005D01*
X180323Y205900D01*
X180266Y205793D01*
X180212Y205685D01*
X180162Y205575D01*
X180116Y205463D01*
X180073Y205350D01*
X180034Y205235D01*
X185552Y202639D02*
X185631Y202716D01*
X185707Y202797D01*
X185780Y202880D01*
X185850Y202965D01*
X185917Y203053D01*
X185981Y203143D01*
X186041Y203235D01*
X186098Y203330D01*
X186152Y203426D01*
X186203Y203524D01*
X186250Y203624D01*
X186294Y203726D01*
X186334Y203829D01*
X186370Y203933D01*
X186402Y204039D01*
X186431Y204145D01*
X186456Y204253D01*
X186478Y204361D01*
X186495Y204471D01*
X186509Y204580D01*
X186518Y204690D01*
X186524Y204801D01*
X186526Y204911D01*
X185552Y202639D02*
X180034Y196148D01*
X186525Y196148D01*
D12*
X317900Y444100D02*
X367900Y444100D01*
X367900Y394100D02*
X317900Y394100D01*
X310664Y443100D02*
X310666Y443194D01*
X310672Y443288D01*
X310682Y443382D01*
X310696Y443475D01*
X310714Y443568D01*
X310735Y443660D01*
X310761Y443750D01*
X310790Y443840D01*
X310823Y443928D01*
X310860Y444015D01*
X310900Y444100D01*
X310944Y444184D01*
X310992Y444265D01*
X311042Y444345D01*
X311097Y444422D01*
X311154Y444497D01*
X311214Y444569D01*
X311278Y444639D01*
X311344Y444706D01*
X311413Y444770D01*
X311485Y444831D01*
X311559Y444889D01*
X311636Y444944D01*
X311715Y444996D01*
X311796Y445044D01*
X311879Y445089D01*
X311963Y445130D01*
X312050Y445168D01*
X312138Y445202D01*
X312227Y445232D01*
X312317Y445259D01*
X312409Y445281D01*
X312501Y445300D01*
X312595Y445315D01*
X312688Y445326D01*
X312782Y445333D01*
X312876Y445336D01*
X312971Y445335D01*
X313065Y445330D01*
X313159Y445321D01*
X313252Y445308D01*
X313345Y445291D01*
X313437Y445271D01*
X313528Y445246D01*
X313618Y445218D01*
X313706Y445186D01*
X313794Y445150D01*
X313879Y445110D01*
X313963Y445067D01*
X314045Y445021D01*
X314125Y444971D01*
X314203Y444917D01*
X314278Y444861D01*
X314351Y444801D01*
X314422Y444738D01*
X314489Y444673D01*
X314554Y444604D01*
X314616Y444533D01*
X314675Y444460D01*
X314731Y444384D01*
X314783Y444305D01*
X314832Y444225D01*
X314878Y444142D01*
X314920Y444058D01*
X314959Y443972D01*
X314994Y443884D01*
X315025Y443795D01*
X315053Y443705D01*
X315076Y443614D01*
X315096Y443522D01*
X315112Y443429D01*
X315124Y443335D01*
X315132Y443241D01*
X315136Y443147D01*
X315136Y443053D01*
X315132Y442959D01*
X315124Y442865D01*
X315112Y442771D01*
X315096Y442678D01*
X315076Y442586D01*
X315053Y442495D01*
X315025Y442405D01*
X314994Y442316D01*
X314959Y442228D01*
X314920Y442142D01*
X314878Y442058D01*
X314832Y441975D01*
X314783Y441895D01*
X314731Y441816D01*
X314675Y441740D01*
X314616Y441667D01*
X314554Y441596D01*
X314489Y441527D01*
X314422Y441462D01*
X314351Y441399D01*
X314278Y441339D01*
X314203Y441283D01*
X314125Y441229D01*
X314045Y441179D01*
X313963Y441133D01*
X313879Y441090D01*
X313794Y441050D01*
X313706Y441014D01*
X313618Y440982D01*
X313528Y440954D01*
X313437Y440929D01*
X313345Y440909D01*
X313252Y440892D01*
X313159Y440879D01*
X313065Y440870D01*
X312971Y440865D01*
X312876Y440864D01*
X312782Y440867D01*
X312688Y440874D01*
X312595Y440885D01*
X312501Y440900D01*
X312409Y440919D01*
X312317Y440941D01*
X312227Y440968D01*
X312138Y440998D01*
X312050Y441032D01*
X311963Y441070D01*
X311879Y441111D01*
X311796Y441156D01*
X311715Y441204D01*
X311636Y441256D01*
X311559Y441311D01*
X311485Y441369D01*
X311413Y441430D01*
X311344Y441494D01*
X311278Y441561D01*
X311214Y441631D01*
X311154Y441703D01*
X311097Y441778D01*
X311042Y441855D01*
X310992Y441935D01*
X310944Y442016D01*
X310900Y442100D01*
X310860Y442185D01*
X310823Y442272D01*
X310790Y442360D01*
X310761Y442450D01*
X310735Y442540D01*
X310714Y442632D01*
X310696Y442725D01*
X310682Y442818D01*
X310672Y442912D01*
X310666Y443006D01*
X310664Y443100D01*
D11*
X316328Y385632D02*
X316328Y373948D01*
X321521Y373948D01*
X326234Y373948D02*
X331427Y373948D01*
X326234Y373948D02*
X326234Y385632D01*
X331427Y385632D01*
X330129Y380439D02*
X326234Y380439D01*
X336117Y385632D02*
X336117Y373948D01*
X336117Y385632D02*
X339363Y385632D01*
X339476Y385630D01*
X339589Y385624D01*
X339702Y385614D01*
X339815Y385600D01*
X339927Y385583D01*
X340038Y385561D01*
X340148Y385536D01*
X340258Y385506D01*
X340366Y385473D01*
X340473Y385436D01*
X340579Y385396D01*
X340683Y385351D01*
X340786Y385303D01*
X340887Y385252D01*
X340986Y385197D01*
X341083Y385139D01*
X341178Y385077D01*
X341271Y385012D01*
X341361Y384944D01*
X341449Y384873D01*
X341535Y384798D01*
X341618Y384721D01*
X341698Y384641D01*
X341775Y384558D01*
X341850Y384472D01*
X341921Y384384D01*
X341989Y384294D01*
X342054Y384201D01*
X342116Y384106D01*
X342174Y384009D01*
X342229Y383910D01*
X342280Y383809D01*
X342328Y383706D01*
X342373Y383602D01*
X342413Y383496D01*
X342450Y383389D01*
X342483Y383281D01*
X342513Y383171D01*
X342538Y383061D01*
X342560Y382950D01*
X342577Y382838D01*
X342591Y382725D01*
X342601Y382612D01*
X342607Y382499D01*
X342609Y382386D01*
X342609Y377194D01*
X342607Y377081D01*
X342601Y376968D01*
X342591Y376855D01*
X342577Y376742D01*
X342560Y376630D01*
X342538Y376519D01*
X342513Y376409D01*
X342483Y376299D01*
X342450Y376191D01*
X342413Y376084D01*
X342373Y375978D01*
X342328Y375874D01*
X342280Y375771D01*
X342229Y375670D01*
X342174Y375571D01*
X342116Y375474D01*
X342054Y375379D01*
X341989Y375286D01*
X341921Y375196D01*
X341850Y375108D01*
X341775Y375022D01*
X341698Y374939D01*
X341618Y374859D01*
X341535Y374782D01*
X341449Y374707D01*
X341361Y374636D01*
X341271Y374568D01*
X341178Y374503D01*
X341083Y374441D01*
X340986Y374383D01*
X340887Y374328D01*
X340786Y374277D01*
X340683Y374229D01*
X340579Y374184D01*
X340473Y374144D01*
X340366Y374107D01*
X340258Y374074D01*
X340148Y374044D01*
X340038Y374019D01*
X339927Y373997D01*
X339815Y373980D01*
X339702Y373966D01*
X339589Y373956D01*
X339476Y373950D01*
X339363Y373948D01*
X336117Y373948D01*
X350412Y373948D02*
X350412Y385632D01*
X348789Y380764D02*
X350412Y379790D01*
X348789Y380763D02*
X348716Y380810D01*
X348645Y380859D01*
X348575Y380912D01*
X348509Y380968D01*
X348445Y381027D01*
X348383Y381088D01*
X348325Y381152D01*
X348269Y381219D01*
X348217Y381288D01*
X348167Y381360D01*
X348121Y381434D01*
X348078Y381509D01*
X348039Y381587D01*
X348003Y381666D01*
X347971Y381747D01*
X347942Y381829D01*
X347917Y381912D01*
X347896Y381996D01*
X347879Y382081D01*
X347865Y382167D01*
X347856Y382253D01*
X347850Y382340D01*
X347848Y382427D01*
X347850Y382514D01*
X347856Y382601D01*
X347866Y382687D01*
X347879Y382773D01*
X347897Y382858D01*
X347918Y382942D01*
X347943Y383025D01*
X347972Y383108D01*
X348004Y383188D01*
X348040Y383267D01*
X348079Y383345D01*
X348122Y383420D01*
X348169Y383494D01*
X348218Y383565D01*
X348271Y383635D01*
X348326Y383701D01*
X348385Y383765D01*
X348446Y383827D01*
X348511Y383886D01*
X348577Y383941D01*
X348646Y383994D01*
X348718Y384044D01*
X348791Y384090D01*
X348867Y384133D01*
X348944Y384172D01*
X349023Y384208D01*
X349104Y384241D01*
X349186Y384269D01*
X349269Y384295D01*
X349353Y384316D01*
X349439Y384333D01*
X349439Y384334D02*
X349579Y384358D01*
X349721Y384378D01*
X349862Y384394D01*
X350004Y384405D01*
X350147Y384413D01*
X350289Y384417D01*
X350432Y384418D01*
X350575Y384414D01*
X350717Y384406D01*
X350859Y384394D01*
X351001Y384378D01*
X351142Y384359D01*
X351283Y384335D01*
X351423Y384308D01*
X351562Y384276D01*
X351700Y384241D01*
X351838Y384202D01*
X351974Y384159D01*
X352108Y384113D01*
X352242Y384062D01*
X352374Y384009D01*
X352504Y383951D01*
X352633Y383890D01*
X352760Y383825D01*
X352886Y383757D01*
X353009Y383685D01*
X350412Y379790D02*
X352035Y378816D01*
X352035Y378817D02*
X352108Y378770D01*
X352179Y378721D01*
X352249Y378668D01*
X352315Y378612D01*
X352379Y378553D01*
X352441Y378492D01*
X352499Y378428D01*
X352555Y378361D01*
X352607Y378292D01*
X352657Y378220D01*
X352703Y378146D01*
X352746Y378071D01*
X352785Y377993D01*
X352821Y377914D01*
X352853Y377833D01*
X352882Y377751D01*
X352907Y377668D01*
X352928Y377584D01*
X352945Y377499D01*
X352959Y377413D01*
X352968Y377327D01*
X352974Y377240D01*
X352976Y377153D01*
X352974Y377066D01*
X352968Y376979D01*
X352958Y376893D01*
X352945Y376807D01*
X352927Y376722D01*
X352906Y376638D01*
X352881Y376555D01*
X352852Y376472D01*
X352820Y376392D01*
X352784Y376313D01*
X352745Y376235D01*
X352702Y376160D01*
X352655Y376086D01*
X352606Y376015D01*
X352553Y375945D01*
X352498Y375879D01*
X352439Y375815D01*
X352378Y375753D01*
X352313Y375694D01*
X352247Y375639D01*
X352178Y375586D01*
X352106Y375536D01*
X352033Y375490D01*
X351957Y375447D01*
X351880Y375408D01*
X351801Y375372D01*
X351720Y375339D01*
X351638Y375311D01*
X351555Y375285D01*
X351471Y375264D01*
X351386Y375247D01*
X351385Y375246D02*
X351245Y375222D01*
X351103Y375202D01*
X350962Y375186D01*
X350820Y375175D01*
X350677Y375167D01*
X350535Y375163D01*
X350392Y375162D01*
X350249Y375166D01*
X350107Y375174D01*
X349965Y375186D01*
X349823Y375202D01*
X349682Y375221D01*
X349541Y375245D01*
X349401Y375272D01*
X349262Y375304D01*
X349124Y375339D01*
X348986Y375378D01*
X348850Y375421D01*
X348716Y375467D01*
X348582Y375518D01*
X348450Y375571D01*
X348320Y375629D01*
X348191Y375690D01*
X348064Y375755D01*
X347938Y375823D01*
X347815Y375895D01*
X357834Y373948D02*
X361080Y373948D01*
X361193Y373950D01*
X361306Y373956D01*
X361419Y373966D01*
X361532Y373980D01*
X361644Y373997D01*
X361755Y374019D01*
X361865Y374044D01*
X361975Y374074D01*
X362083Y374107D01*
X362190Y374144D01*
X362296Y374184D01*
X362400Y374229D01*
X362503Y374277D01*
X362604Y374328D01*
X362703Y374383D01*
X362800Y374441D01*
X362895Y374503D01*
X362988Y374568D01*
X363078Y374636D01*
X363166Y374707D01*
X363252Y374782D01*
X363335Y374859D01*
X363415Y374939D01*
X363492Y375022D01*
X363567Y375108D01*
X363638Y375196D01*
X363706Y375286D01*
X363771Y375379D01*
X363833Y375474D01*
X363891Y375571D01*
X363946Y375670D01*
X363997Y375771D01*
X364045Y375874D01*
X364090Y375978D01*
X364130Y376084D01*
X364167Y376191D01*
X364200Y376299D01*
X364230Y376409D01*
X364255Y376519D01*
X364277Y376630D01*
X364294Y376742D01*
X364308Y376855D01*
X364318Y376968D01*
X364324Y377081D01*
X364326Y377194D01*
X364324Y377307D01*
X364318Y377420D01*
X364308Y377533D01*
X364294Y377646D01*
X364277Y377758D01*
X364255Y377869D01*
X364230Y377979D01*
X364200Y378089D01*
X364167Y378197D01*
X364130Y378304D01*
X364090Y378410D01*
X364045Y378514D01*
X363997Y378617D01*
X363946Y378718D01*
X363891Y378817D01*
X363833Y378914D01*
X363771Y379009D01*
X363706Y379102D01*
X363638Y379192D01*
X363567Y379280D01*
X363492Y379366D01*
X363415Y379449D01*
X363335Y379529D01*
X363252Y379606D01*
X363166Y379681D01*
X363078Y379752D01*
X362988Y379820D01*
X362895Y379885D01*
X362800Y379947D01*
X362703Y380005D01*
X362604Y380060D01*
X362503Y380111D01*
X362400Y380159D01*
X362296Y380204D01*
X362190Y380244D01*
X362083Y380281D01*
X361975Y380314D01*
X361865Y380344D01*
X361755Y380369D01*
X361644Y380391D01*
X361532Y380408D01*
X361419Y380422D01*
X361306Y380432D01*
X361193Y380438D01*
X361080Y380440D01*
X361729Y385632D02*
X357834Y385632D01*
X361729Y385632D02*
X361830Y385630D01*
X361930Y385624D01*
X362030Y385614D01*
X362130Y385601D01*
X362229Y385583D01*
X362328Y385562D01*
X362425Y385537D01*
X362522Y385508D01*
X362617Y385475D01*
X362711Y385439D01*
X362803Y385399D01*
X362894Y385356D01*
X362983Y385309D01*
X363070Y385259D01*
X363156Y385205D01*
X363239Y385148D01*
X363319Y385088D01*
X363398Y385025D01*
X363474Y384958D01*
X363547Y384889D01*
X363617Y384817D01*
X363685Y384743D01*
X363750Y384666D01*
X363811Y384586D01*
X363870Y384504D01*
X363925Y384420D01*
X363977Y384334D01*
X364026Y384246D01*
X364071Y384156D01*
X364113Y384064D01*
X364151Y383971D01*
X364185Y383876D01*
X364216Y383781D01*
X364243Y383684D01*
X364266Y383586D01*
X364286Y383487D01*
X364301Y383387D01*
X364313Y383287D01*
X364321Y383187D01*
X364325Y383086D01*
X364325Y382986D01*
X364321Y382885D01*
X364313Y382785D01*
X364301Y382685D01*
X364286Y382585D01*
X364266Y382486D01*
X364243Y382388D01*
X364216Y382291D01*
X364185Y382196D01*
X364151Y382101D01*
X364113Y382008D01*
X364071Y381916D01*
X364026Y381826D01*
X363977Y381738D01*
X363925Y381652D01*
X363870Y381568D01*
X363811Y381486D01*
X363750Y381406D01*
X363685Y381329D01*
X363617Y381255D01*
X363547Y381183D01*
X363474Y381114D01*
X363398Y381047D01*
X363319Y380984D01*
X363239Y380924D01*
X363156Y380867D01*
X363070Y380813D01*
X362983Y380763D01*
X362894Y380716D01*
X362803Y380673D01*
X362711Y380633D01*
X362617Y380597D01*
X362522Y380564D01*
X362425Y380535D01*
X362328Y380510D01*
X362229Y380489D01*
X362130Y380471D01*
X362030Y380458D01*
X361930Y380448D01*
X361830Y380442D01*
X361729Y380440D01*
X361729Y380439D02*
X359133Y380439D01*
D12*
X495700Y266300D02*
X545700Y266300D01*
X545700Y216300D02*
X495700Y216300D01*
X488464Y265300D02*
X488466Y265394D01*
X488472Y265488D01*
X488482Y265582D01*
X488496Y265675D01*
X488514Y265768D01*
X488535Y265860D01*
X488561Y265950D01*
X488590Y266040D01*
X488623Y266128D01*
X488660Y266215D01*
X488700Y266300D01*
X488744Y266384D01*
X488792Y266465D01*
X488842Y266545D01*
X488897Y266622D01*
X488954Y266697D01*
X489014Y266769D01*
X489078Y266839D01*
X489144Y266906D01*
X489213Y266970D01*
X489285Y267031D01*
X489359Y267089D01*
X489436Y267144D01*
X489515Y267196D01*
X489596Y267244D01*
X489679Y267289D01*
X489763Y267330D01*
X489850Y267368D01*
X489938Y267402D01*
X490027Y267432D01*
X490117Y267459D01*
X490209Y267481D01*
X490301Y267500D01*
X490395Y267515D01*
X490488Y267526D01*
X490582Y267533D01*
X490676Y267536D01*
X490771Y267535D01*
X490865Y267530D01*
X490959Y267521D01*
X491052Y267508D01*
X491145Y267491D01*
X491237Y267471D01*
X491328Y267446D01*
X491418Y267418D01*
X491506Y267386D01*
X491594Y267350D01*
X491679Y267310D01*
X491763Y267267D01*
X491845Y267221D01*
X491925Y267171D01*
X492003Y267117D01*
X492078Y267061D01*
X492151Y267001D01*
X492222Y266938D01*
X492289Y266873D01*
X492354Y266804D01*
X492416Y266733D01*
X492475Y266660D01*
X492531Y266584D01*
X492583Y266505D01*
X492632Y266425D01*
X492678Y266342D01*
X492720Y266258D01*
X492759Y266172D01*
X492794Y266084D01*
X492825Y265995D01*
X492853Y265905D01*
X492876Y265814D01*
X492896Y265722D01*
X492912Y265629D01*
X492924Y265535D01*
X492932Y265441D01*
X492936Y265347D01*
X492936Y265253D01*
X492932Y265159D01*
X492924Y265065D01*
X492912Y264971D01*
X492896Y264878D01*
X492876Y264786D01*
X492853Y264695D01*
X492825Y264605D01*
X492794Y264516D01*
X492759Y264428D01*
X492720Y264342D01*
X492678Y264258D01*
X492632Y264175D01*
X492583Y264095D01*
X492531Y264016D01*
X492475Y263940D01*
X492416Y263867D01*
X492354Y263796D01*
X492289Y263727D01*
X492222Y263662D01*
X492151Y263599D01*
X492078Y263539D01*
X492003Y263483D01*
X491925Y263429D01*
X491845Y263379D01*
X491763Y263333D01*
X491679Y263290D01*
X491594Y263250D01*
X491506Y263214D01*
X491418Y263182D01*
X491328Y263154D01*
X491237Y263129D01*
X491145Y263109D01*
X491052Y263092D01*
X490959Y263079D01*
X490865Y263070D01*
X490771Y263065D01*
X490676Y263064D01*
X490582Y263067D01*
X490488Y263074D01*
X490395Y263085D01*
X490301Y263100D01*
X490209Y263119D01*
X490117Y263141D01*
X490027Y263168D01*
X489938Y263198D01*
X489850Y263232D01*
X489763Y263270D01*
X489679Y263311D01*
X489596Y263356D01*
X489515Y263404D01*
X489436Y263456D01*
X489359Y263511D01*
X489285Y263569D01*
X489213Y263630D01*
X489144Y263694D01*
X489078Y263761D01*
X489014Y263831D01*
X488954Y263903D01*
X488897Y263978D01*
X488842Y264055D01*
X488792Y264135D01*
X488744Y264216D01*
X488700Y264300D01*
X488660Y264385D01*
X488623Y264472D01*
X488590Y264560D01*
X488561Y264650D01*
X488535Y264740D01*
X488514Y264832D01*
X488496Y264925D01*
X488482Y265018D01*
X488472Y265112D01*
X488466Y265206D01*
X488464Y265300D01*
D11*
X494128Y207832D02*
X494128Y196148D01*
X499321Y196148D01*
X504034Y196148D02*
X509227Y196148D01*
X504034Y196148D02*
X504034Y207832D01*
X509227Y207832D01*
X507929Y202639D02*
X504034Y202639D01*
X513917Y207832D02*
X513917Y196148D01*
X513917Y207832D02*
X517163Y207832D01*
X517276Y207830D01*
X517389Y207824D01*
X517502Y207814D01*
X517615Y207800D01*
X517727Y207783D01*
X517838Y207761D01*
X517948Y207736D01*
X518058Y207706D01*
X518166Y207673D01*
X518273Y207636D01*
X518379Y207596D01*
X518483Y207551D01*
X518586Y207503D01*
X518687Y207452D01*
X518786Y207397D01*
X518883Y207339D01*
X518978Y207277D01*
X519071Y207212D01*
X519161Y207144D01*
X519249Y207073D01*
X519335Y206998D01*
X519418Y206921D01*
X519498Y206841D01*
X519575Y206758D01*
X519650Y206672D01*
X519721Y206584D01*
X519789Y206494D01*
X519854Y206401D01*
X519916Y206306D01*
X519974Y206209D01*
X520029Y206110D01*
X520080Y206009D01*
X520128Y205906D01*
X520173Y205802D01*
X520213Y205696D01*
X520250Y205589D01*
X520283Y205481D01*
X520313Y205371D01*
X520338Y205261D01*
X520360Y205150D01*
X520377Y205038D01*
X520391Y204925D01*
X520401Y204812D01*
X520407Y204699D01*
X520409Y204586D01*
X520409Y199394D01*
X520407Y199281D01*
X520401Y199168D01*
X520391Y199055D01*
X520377Y198942D01*
X520360Y198830D01*
X520338Y198719D01*
X520313Y198609D01*
X520283Y198499D01*
X520250Y198391D01*
X520213Y198284D01*
X520173Y198178D01*
X520128Y198074D01*
X520080Y197971D01*
X520029Y197870D01*
X519974Y197771D01*
X519916Y197674D01*
X519854Y197579D01*
X519789Y197486D01*
X519721Y197396D01*
X519650Y197308D01*
X519575Y197222D01*
X519498Y197139D01*
X519418Y197059D01*
X519335Y196982D01*
X519249Y196907D01*
X519161Y196836D01*
X519071Y196768D01*
X518978Y196703D01*
X518883Y196641D01*
X518786Y196583D01*
X518687Y196528D01*
X518586Y196477D01*
X518483Y196429D01*
X518379Y196384D01*
X518273Y196344D01*
X518166Y196307D01*
X518058Y196274D01*
X517948Y196244D01*
X517838Y196219D01*
X517727Y196197D01*
X517615Y196180D01*
X517502Y196166D01*
X517389Y196156D01*
X517276Y196150D01*
X517163Y196148D01*
X513917Y196148D01*
X528212Y196148D02*
X528212Y207832D01*
X526589Y202964D02*
X528212Y201990D01*
X526589Y202963D02*
X526516Y203010D01*
X526445Y203059D01*
X526375Y203112D01*
X526309Y203168D01*
X526245Y203227D01*
X526183Y203288D01*
X526125Y203352D01*
X526069Y203419D01*
X526017Y203488D01*
X525967Y203560D01*
X525921Y203634D01*
X525878Y203709D01*
X525839Y203787D01*
X525803Y203866D01*
X525771Y203947D01*
X525742Y204029D01*
X525717Y204112D01*
X525696Y204196D01*
X525679Y204281D01*
X525665Y204367D01*
X525656Y204453D01*
X525650Y204540D01*
X525648Y204627D01*
X525650Y204714D01*
X525656Y204801D01*
X525666Y204887D01*
X525679Y204973D01*
X525697Y205058D01*
X525718Y205142D01*
X525743Y205225D01*
X525772Y205308D01*
X525804Y205388D01*
X525840Y205467D01*
X525879Y205545D01*
X525922Y205620D01*
X525969Y205694D01*
X526018Y205765D01*
X526071Y205835D01*
X526126Y205901D01*
X526185Y205965D01*
X526246Y206027D01*
X526311Y206086D01*
X526377Y206141D01*
X526446Y206194D01*
X526518Y206244D01*
X526591Y206290D01*
X526667Y206333D01*
X526744Y206372D01*
X526823Y206408D01*
X526904Y206441D01*
X526986Y206469D01*
X527069Y206495D01*
X527153Y206516D01*
X527239Y206533D01*
X527239Y206534D02*
X527379Y206558D01*
X527521Y206578D01*
X527662Y206594D01*
X527804Y206605D01*
X527947Y206613D01*
X528089Y206617D01*
X528232Y206618D01*
X528375Y206614D01*
X528517Y206606D01*
X528659Y206594D01*
X528801Y206578D01*
X528942Y206559D01*
X529083Y206535D01*
X529223Y206508D01*
X529362Y206476D01*
X529500Y206441D01*
X529638Y206402D01*
X529774Y206359D01*
X529908Y206313D01*
X530042Y206262D01*
X530174Y206209D01*
X530304Y206151D01*
X530433Y206090D01*
X530560Y206025D01*
X530686Y205957D01*
X530809Y205885D01*
X528212Y201990D02*
X529835Y201016D01*
X529835Y201017D02*
X529908Y200970D01*
X529979Y200921D01*
X530049Y200868D01*
X530115Y200812D01*
X530179Y200753D01*
X530241Y200692D01*
X530299Y200628D01*
X530355Y200561D01*
X530407Y200492D01*
X530457Y200420D01*
X530503Y200346D01*
X530546Y200271D01*
X530585Y200193D01*
X530621Y200114D01*
X530653Y200033D01*
X530682Y199951D01*
X530707Y199868D01*
X530728Y199784D01*
X530745Y199699D01*
X530759Y199613D01*
X530768Y199527D01*
X530774Y199440D01*
X530776Y199353D01*
X530774Y199266D01*
X530768Y199179D01*
X530758Y199093D01*
X530745Y199007D01*
X530727Y198922D01*
X530706Y198838D01*
X530681Y198755D01*
X530652Y198672D01*
X530620Y198592D01*
X530584Y198513D01*
X530545Y198435D01*
X530502Y198360D01*
X530455Y198286D01*
X530406Y198215D01*
X530353Y198145D01*
X530298Y198079D01*
X530239Y198015D01*
X530178Y197953D01*
X530113Y197894D01*
X530047Y197839D01*
X529978Y197786D01*
X529906Y197736D01*
X529833Y197690D01*
X529757Y197647D01*
X529680Y197608D01*
X529601Y197572D01*
X529520Y197539D01*
X529438Y197511D01*
X529355Y197485D01*
X529271Y197464D01*
X529186Y197447D01*
X529185Y197446D02*
X529045Y197422D01*
X528903Y197402D01*
X528762Y197386D01*
X528620Y197375D01*
X528477Y197367D01*
X528335Y197363D01*
X528192Y197362D01*
X528049Y197366D01*
X527907Y197374D01*
X527765Y197386D01*
X527623Y197402D01*
X527482Y197421D01*
X527341Y197445D01*
X527201Y197472D01*
X527062Y197504D01*
X526924Y197539D01*
X526786Y197578D01*
X526650Y197621D01*
X526516Y197667D01*
X526382Y197718D01*
X526250Y197771D01*
X526120Y197829D01*
X525991Y197890D01*
X525864Y197955D01*
X525738Y198023D01*
X525615Y198095D01*
X535634Y198744D02*
X538231Y207832D01*
X535634Y198744D02*
X542125Y198744D01*
X540178Y201341D02*
X540178Y196148D01*
X281178Y139192D02*
X281178Y127508D01*
X281178Y139192D02*
X284424Y139192D01*
X284537Y139190D01*
X284650Y139184D01*
X284763Y139174D01*
X284876Y139160D01*
X284988Y139143D01*
X285099Y139121D01*
X285209Y139096D01*
X285319Y139066D01*
X285427Y139033D01*
X285534Y138996D01*
X285640Y138956D01*
X285744Y138911D01*
X285847Y138863D01*
X285948Y138812D01*
X286047Y138757D01*
X286144Y138699D01*
X286239Y138637D01*
X286332Y138572D01*
X286422Y138504D01*
X286510Y138433D01*
X286596Y138358D01*
X286679Y138281D01*
X286759Y138201D01*
X286836Y138118D01*
X286911Y138032D01*
X286982Y137944D01*
X287050Y137854D01*
X287115Y137761D01*
X287177Y137666D01*
X287235Y137569D01*
X287290Y137470D01*
X287341Y137369D01*
X287389Y137266D01*
X287434Y137162D01*
X287474Y137056D01*
X287511Y136949D01*
X287544Y136841D01*
X287574Y136731D01*
X287599Y136621D01*
X287621Y136510D01*
X287638Y136398D01*
X287652Y136285D01*
X287662Y136172D01*
X287668Y136059D01*
X287670Y135946D01*
X287668Y135833D01*
X287662Y135720D01*
X287652Y135607D01*
X287638Y135494D01*
X287621Y135382D01*
X287599Y135271D01*
X287574Y135161D01*
X287544Y135051D01*
X287511Y134943D01*
X287474Y134836D01*
X287434Y134730D01*
X287389Y134626D01*
X287341Y134523D01*
X287290Y134422D01*
X287235Y134323D01*
X287177Y134226D01*
X287115Y134131D01*
X287050Y134038D01*
X286982Y133948D01*
X286911Y133860D01*
X286836Y133774D01*
X286759Y133691D01*
X286679Y133611D01*
X286596Y133534D01*
X286510Y133459D01*
X286422Y133388D01*
X286332Y133320D01*
X286239Y133255D01*
X286144Y133193D01*
X286047Y133135D01*
X285948Y133080D01*
X285847Y133029D01*
X285744Y132981D01*
X285640Y132936D01*
X285534Y132896D01*
X285427Y132859D01*
X285319Y132826D01*
X285209Y132796D01*
X285099Y132771D01*
X284988Y132749D01*
X284876Y132732D01*
X284763Y132718D01*
X284650Y132708D01*
X284537Y132702D01*
X284424Y132700D01*
X284424Y132701D02*
X281178Y132701D01*
X285073Y132701D02*
X287669Y127508D01*
X292534Y136596D02*
X295780Y139192D01*
X295780Y127508D01*
X299025Y127508D02*
X292534Y127508D01*
X331978Y127508D02*
X331978Y139192D01*
X335224Y139192D01*
X335337Y139190D01*
X335450Y139184D01*
X335563Y139174D01*
X335676Y139160D01*
X335788Y139143D01*
X335899Y139121D01*
X336009Y139096D01*
X336119Y139066D01*
X336227Y139033D01*
X336334Y138996D01*
X336440Y138956D01*
X336544Y138911D01*
X336647Y138863D01*
X336748Y138812D01*
X336847Y138757D01*
X336944Y138699D01*
X337039Y138637D01*
X337132Y138572D01*
X337222Y138504D01*
X337310Y138433D01*
X337396Y138358D01*
X337479Y138281D01*
X337559Y138201D01*
X337636Y138118D01*
X337711Y138032D01*
X337782Y137944D01*
X337850Y137854D01*
X337915Y137761D01*
X337977Y137666D01*
X338035Y137569D01*
X338090Y137470D01*
X338141Y137369D01*
X338189Y137266D01*
X338234Y137162D01*
X338274Y137056D01*
X338311Y136949D01*
X338344Y136841D01*
X338374Y136731D01*
X338399Y136621D01*
X338421Y136510D01*
X338438Y136398D01*
X338452Y136285D01*
X338462Y136172D01*
X338468Y136059D01*
X338470Y135946D01*
X338468Y135833D01*
X338462Y135720D01*
X338452Y135607D01*
X338438Y135494D01*
X338421Y135382D01*
X338399Y135271D01*
X338374Y135161D01*
X338344Y135051D01*
X338311Y134943D01*
X338274Y134836D01*
X338234Y134730D01*
X338189Y134626D01*
X338141Y134523D01*
X338090Y134422D01*
X338035Y134323D01*
X337977Y134226D01*
X337915Y134131D01*
X337850Y134038D01*
X337782Y133948D01*
X337711Y133860D01*
X337636Y133774D01*
X337559Y133691D01*
X337479Y133611D01*
X337396Y133534D01*
X337310Y133459D01*
X337222Y133388D01*
X337132Y133320D01*
X337039Y133255D01*
X336944Y133193D01*
X336847Y133135D01*
X336748Y133080D01*
X336647Y133029D01*
X336544Y132981D01*
X336440Y132936D01*
X336334Y132896D01*
X336227Y132859D01*
X336119Y132826D01*
X336009Y132796D01*
X335899Y132771D01*
X335788Y132749D01*
X335676Y132732D01*
X335563Y132718D01*
X335450Y132708D01*
X335337Y132702D01*
X335224Y132700D01*
X335224Y132701D02*
X331978Y132701D01*
X335873Y132701D02*
X338469Y127508D01*
X349825Y136271D02*
X349823Y136378D01*
X349817Y136484D01*
X349807Y136590D01*
X349794Y136696D01*
X349776Y136802D01*
X349755Y136906D01*
X349730Y137010D01*
X349701Y137113D01*
X349669Y137214D01*
X349632Y137314D01*
X349592Y137413D01*
X349549Y137511D01*
X349502Y137607D01*
X349451Y137701D01*
X349397Y137793D01*
X349340Y137883D01*
X349280Y137971D01*
X349216Y138056D01*
X349149Y138139D01*
X349079Y138220D01*
X349007Y138298D01*
X348931Y138374D01*
X348853Y138446D01*
X348772Y138516D01*
X348689Y138583D01*
X348604Y138647D01*
X348516Y138707D01*
X348426Y138764D01*
X348334Y138818D01*
X348240Y138869D01*
X348144Y138916D01*
X348046Y138959D01*
X347947Y138999D01*
X347847Y139036D01*
X347746Y139068D01*
X347643Y139097D01*
X347539Y139122D01*
X347435Y139143D01*
X347329Y139161D01*
X347223Y139174D01*
X347117Y139184D01*
X347011Y139190D01*
X346904Y139192D01*
X346783Y139190D01*
X346662Y139184D01*
X346542Y139174D01*
X346421Y139161D01*
X346302Y139143D01*
X346182Y139122D01*
X346064Y139097D01*
X345947Y139068D01*
X345830Y139035D01*
X345715Y138999D01*
X345601Y138958D01*
X345488Y138915D01*
X345376Y138867D01*
X345267Y138816D01*
X345159Y138761D01*
X345052Y138703D01*
X344948Y138642D01*
X344846Y138577D01*
X344746Y138509D01*
X344648Y138438D01*
X344552Y138364D01*
X344459Y138287D01*
X344369Y138206D01*
X344281Y138123D01*
X344196Y138037D01*
X344113Y137948D01*
X344034Y137857D01*
X343957Y137763D01*
X343884Y137667D01*
X343814Y137569D01*
X343747Y137468D01*
X343683Y137365D01*
X343623Y137260D01*
X343566Y137153D01*
X343512Y137045D01*
X343462Y136935D01*
X343416Y136823D01*
X343373Y136710D01*
X343334Y136595D01*
X348852Y133999D02*
X348931Y134076D01*
X349007Y134157D01*
X349080Y134240D01*
X349150Y134325D01*
X349217Y134413D01*
X349281Y134503D01*
X349341Y134595D01*
X349398Y134690D01*
X349452Y134786D01*
X349503Y134884D01*
X349550Y134984D01*
X349594Y135086D01*
X349634Y135189D01*
X349670Y135293D01*
X349702Y135399D01*
X349731Y135505D01*
X349756Y135613D01*
X349778Y135721D01*
X349795Y135831D01*
X349809Y135940D01*
X349818Y136050D01*
X349824Y136161D01*
X349826Y136271D01*
X348852Y133999D02*
X343334Y127508D01*
X349825Y127508D01*
X382778Y127508D02*
X382778Y139192D01*
X386024Y139192D01*
X386137Y139190D01*
X386250Y139184D01*
X386363Y139174D01*
X386476Y139160D01*
X386588Y139143D01*
X386699Y139121D01*
X386809Y139096D01*
X386919Y139066D01*
X387027Y139033D01*
X387134Y138996D01*
X387240Y138956D01*
X387344Y138911D01*
X387447Y138863D01*
X387548Y138812D01*
X387647Y138757D01*
X387744Y138699D01*
X387839Y138637D01*
X387932Y138572D01*
X388022Y138504D01*
X388110Y138433D01*
X388196Y138358D01*
X388279Y138281D01*
X388359Y138201D01*
X388436Y138118D01*
X388511Y138032D01*
X388582Y137944D01*
X388650Y137854D01*
X388715Y137761D01*
X388777Y137666D01*
X388835Y137569D01*
X388890Y137470D01*
X388941Y137369D01*
X388989Y137266D01*
X389034Y137162D01*
X389074Y137056D01*
X389111Y136949D01*
X389144Y136841D01*
X389174Y136731D01*
X389199Y136621D01*
X389221Y136510D01*
X389238Y136398D01*
X389252Y136285D01*
X389262Y136172D01*
X389268Y136059D01*
X389270Y135946D01*
X389268Y135833D01*
X389262Y135720D01*
X389252Y135607D01*
X389238Y135494D01*
X389221Y135382D01*
X389199Y135271D01*
X389174Y135161D01*
X389144Y135051D01*
X389111Y134943D01*
X389074Y134836D01*
X389034Y134730D01*
X388989Y134626D01*
X388941Y134523D01*
X388890Y134422D01*
X388835Y134323D01*
X388777Y134226D01*
X388715Y134131D01*
X388650Y134038D01*
X388582Y133948D01*
X388511Y133860D01*
X388436Y133774D01*
X388359Y133691D01*
X388279Y133611D01*
X388196Y133534D01*
X388110Y133459D01*
X388022Y133388D01*
X387932Y133320D01*
X387839Y133255D01*
X387744Y133193D01*
X387647Y133135D01*
X387548Y133080D01*
X387447Y133029D01*
X387344Y132981D01*
X387240Y132936D01*
X387134Y132896D01*
X387027Y132859D01*
X386919Y132826D01*
X386809Y132796D01*
X386699Y132771D01*
X386588Y132749D01*
X386476Y132732D01*
X386363Y132718D01*
X386250Y132708D01*
X386137Y132702D01*
X386024Y132700D01*
X386024Y132701D02*
X382778Y132701D01*
X386673Y132701D02*
X389269Y127508D01*
X394134Y127508D02*
X397380Y127508D01*
X397493Y127510D01*
X397606Y127516D01*
X397719Y127526D01*
X397832Y127540D01*
X397944Y127557D01*
X398055Y127579D01*
X398165Y127604D01*
X398275Y127634D01*
X398383Y127667D01*
X398490Y127704D01*
X398596Y127744D01*
X398700Y127789D01*
X398803Y127837D01*
X398904Y127888D01*
X399003Y127943D01*
X399100Y128001D01*
X399195Y128063D01*
X399288Y128128D01*
X399378Y128196D01*
X399466Y128267D01*
X399552Y128342D01*
X399635Y128419D01*
X399715Y128499D01*
X399792Y128582D01*
X399867Y128668D01*
X399938Y128756D01*
X400006Y128846D01*
X400071Y128939D01*
X400133Y129034D01*
X400191Y129131D01*
X400246Y129230D01*
X400297Y129331D01*
X400345Y129434D01*
X400390Y129538D01*
X400430Y129644D01*
X400467Y129751D01*
X400500Y129859D01*
X400530Y129969D01*
X400555Y130079D01*
X400577Y130190D01*
X400594Y130302D01*
X400608Y130415D01*
X400618Y130528D01*
X400624Y130641D01*
X400626Y130754D01*
X400624Y130867D01*
X400618Y130980D01*
X400608Y131093D01*
X400594Y131206D01*
X400577Y131318D01*
X400555Y131429D01*
X400530Y131539D01*
X400500Y131649D01*
X400467Y131757D01*
X400430Y131864D01*
X400390Y131970D01*
X400345Y132074D01*
X400297Y132177D01*
X400246Y132278D01*
X400191Y132377D01*
X400133Y132474D01*
X400071Y132569D01*
X400006Y132662D01*
X399938Y132752D01*
X399867Y132840D01*
X399792Y132926D01*
X399715Y133009D01*
X399635Y133089D01*
X399552Y133166D01*
X399466Y133241D01*
X399378Y133312D01*
X399288Y133380D01*
X399195Y133445D01*
X399100Y133507D01*
X399003Y133565D01*
X398904Y133620D01*
X398803Y133671D01*
X398700Y133719D01*
X398596Y133764D01*
X398490Y133804D01*
X398383Y133841D01*
X398275Y133874D01*
X398165Y133904D01*
X398055Y133929D01*
X397944Y133951D01*
X397832Y133968D01*
X397719Y133982D01*
X397606Y133992D01*
X397493Y133998D01*
X397380Y134000D01*
X398029Y139192D02*
X394134Y139192D01*
X398029Y139192D02*
X398130Y139190D01*
X398230Y139184D01*
X398330Y139174D01*
X398430Y139161D01*
X398529Y139143D01*
X398628Y139122D01*
X398725Y139097D01*
X398822Y139068D01*
X398917Y139035D01*
X399011Y138999D01*
X399103Y138959D01*
X399194Y138916D01*
X399283Y138869D01*
X399370Y138819D01*
X399456Y138765D01*
X399539Y138708D01*
X399619Y138648D01*
X399698Y138585D01*
X399774Y138518D01*
X399847Y138449D01*
X399917Y138377D01*
X399985Y138303D01*
X400050Y138226D01*
X400111Y138146D01*
X400170Y138064D01*
X400225Y137980D01*
X400277Y137894D01*
X400326Y137806D01*
X400371Y137716D01*
X400413Y137624D01*
X400451Y137531D01*
X400485Y137436D01*
X400516Y137341D01*
X400543Y137244D01*
X400566Y137146D01*
X400586Y137047D01*
X400601Y136947D01*
X400613Y136847D01*
X400621Y136747D01*
X400625Y136646D01*
X400625Y136546D01*
X400621Y136445D01*
X400613Y136345D01*
X400601Y136245D01*
X400586Y136145D01*
X400566Y136046D01*
X400543Y135948D01*
X400516Y135851D01*
X400485Y135756D01*
X400451Y135661D01*
X400413Y135568D01*
X400371Y135476D01*
X400326Y135386D01*
X400277Y135298D01*
X400225Y135212D01*
X400170Y135128D01*
X400111Y135046D01*
X400050Y134966D01*
X399985Y134889D01*
X399917Y134815D01*
X399847Y134743D01*
X399774Y134674D01*
X399698Y134607D01*
X399619Y134544D01*
X399539Y134484D01*
X399456Y134427D01*
X399370Y134373D01*
X399283Y134323D01*
X399194Y134276D01*
X399103Y134233D01*
X399011Y134193D01*
X398917Y134157D01*
X398822Y134124D01*
X398725Y134095D01*
X398628Y134070D01*
X398529Y134049D01*
X398430Y134031D01*
X398330Y134018D01*
X398230Y134008D01*
X398130Y134002D01*
X398029Y134000D01*
X398029Y133999D02*
X395433Y133999D01*
M02*
