G04 EAGLE Gerber RS-274X export*
G75*
%MOMM*%
%FSLAX34Y34*%
%LPD*%
%INSoldermask Top*%
%IPPOS*%
%AMOC8*
5,1,8,0,0,1.08239X$1,22.5*%
G01*
%ADD10R,1.401600X1.601600*%
%ADD11R,1.201600X1.101600*%
%ADD12C,1.241600*%
%ADD13C,0.550878*%
%ADD14R,1.951600X1.951600*%
%ADD15C,1.951600*%
%ADD16C,3.276600*%


D10*
X134747Y313868D03*
X153747Y313868D03*
D11*
X135112Y289433D03*
X152112Y289433D03*
D12*
X374650Y178800D03*
X361950Y178800D03*
X349250Y178800D03*
X336550Y178800D03*
X323850Y178800D03*
X311150Y178800D03*
D13*
X319146Y65046D02*
X323654Y65046D01*
X319146Y65046D02*
X319146Y69554D01*
X323654Y69554D01*
X323654Y65046D01*
X323654Y32046D02*
X319146Y32046D01*
X319146Y36554D01*
X323654Y36554D01*
X323654Y32046D01*
X362146Y65046D02*
X366654Y65046D01*
X362146Y65046D02*
X362146Y69554D01*
X366654Y69554D01*
X366654Y65046D01*
X366654Y32046D02*
X362146Y32046D01*
X362146Y36554D01*
X366654Y36554D01*
X366654Y32046D01*
X145854Y255546D02*
X141346Y255546D01*
X141346Y260054D01*
X145854Y260054D01*
X145854Y255546D01*
X145854Y222546D02*
X141346Y222546D01*
X141346Y227054D01*
X145854Y227054D01*
X145854Y222546D01*
X184346Y255546D02*
X188854Y255546D01*
X184346Y255546D02*
X184346Y260054D01*
X188854Y260054D01*
X188854Y255546D01*
X188854Y222546D02*
X184346Y222546D01*
X184346Y227054D01*
X188854Y227054D01*
X188854Y222546D01*
X319146Y433346D02*
X323654Y433346D01*
X319146Y433346D02*
X319146Y437854D01*
X323654Y437854D01*
X323654Y433346D01*
X323654Y400346D02*
X319146Y400346D01*
X319146Y404854D01*
X323654Y404854D01*
X323654Y400346D01*
X362146Y433346D02*
X366654Y433346D01*
X362146Y433346D02*
X362146Y437854D01*
X366654Y437854D01*
X366654Y433346D01*
X366654Y400346D02*
X362146Y400346D01*
X362146Y404854D01*
X366654Y404854D01*
X366654Y400346D01*
X496946Y255546D02*
X501454Y255546D01*
X496946Y255546D02*
X496946Y260054D01*
X501454Y260054D01*
X501454Y255546D01*
X501454Y222546D02*
X496946Y222546D01*
X496946Y227054D01*
X501454Y227054D01*
X501454Y222546D01*
X539946Y255546D02*
X544454Y255546D01*
X539946Y255546D02*
X539946Y260054D01*
X544454Y260054D01*
X544454Y255546D01*
X544454Y222546D02*
X539946Y222546D01*
X539946Y227054D01*
X544454Y227054D01*
X544454Y222546D01*
D14*
X108700Y157400D03*
D15*
X108700Y132000D03*
X108700Y106600D03*
X108700Y81200D03*
X108700Y55800D03*
X108700Y30400D03*
D14*
X108700Y386000D03*
D15*
X108700Y360600D03*
X108700Y335200D03*
X108700Y309800D03*
X108700Y284400D03*
X108700Y259000D03*
X108700Y233600D03*
X108700Y208200D03*
D14*
X32500Y487600D03*
D15*
X57900Y487600D03*
X32500Y462200D03*
X57900Y462200D03*
X32500Y436800D03*
X57900Y436800D03*
X32500Y411400D03*
X57900Y411400D03*
X32500Y386000D03*
X57900Y386000D03*
X32500Y360600D03*
X57900Y360600D03*
X32500Y335200D03*
X57900Y335200D03*
X32500Y309800D03*
X57900Y309800D03*
X32500Y284400D03*
X57900Y284400D03*
X32500Y259000D03*
X57900Y259000D03*
X32500Y233600D03*
X57900Y233600D03*
X32500Y208200D03*
X57900Y208200D03*
X32500Y182800D03*
X57900Y182800D03*
X32500Y157400D03*
X57900Y157400D03*
X32500Y132000D03*
X57900Y132000D03*
X32500Y106600D03*
X57900Y106600D03*
X32500Y81200D03*
X57900Y81200D03*
X32500Y55800D03*
X57900Y55800D03*
X32500Y30400D03*
X57900Y30400D03*
D14*
X591300Y248840D03*
D15*
X591300Y274240D03*
X591300Y299640D03*
X591300Y325040D03*
X591300Y350440D03*
X591300Y375840D03*
X591300Y401240D03*
X591300Y426640D03*
X591300Y452040D03*
X591300Y477440D03*
X591300Y81200D03*
X591300Y106600D03*
X591300Y132000D03*
X591300Y157400D03*
X591300Y182800D03*
X591300Y208200D03*
D14*
X591300Y30400D03*
D15*
X591300Y55800D03*
D14*
X642100Y487350D03*
D15*
X667500Y487350D03*
X642100Y461950D03*
X667500Y461950D03*
X642100Y436550D03*
X667500Y436550D03*
X642100Y411150D03*
X667500Y411150D03*
X642100Y385750D03*
X667500Y385750D03*
X642100Y360350D03*
X667500Y360350D03*
X642100Y334950D03*
X667500Y334950D03*
X642100Y309550D03*
X667500Y309550D03*
X642100Y284150D03*
X667500Y284150D03*
X642100Y258750D03*
X667500Y258750D03*
X642100Y233350D03*
X667500Y233350D03*
X642100Y207950D03*
X667500Y207950D03*
X642100Y182550D03*
X667500Y182550D03*
X642100Y157150D03*
X667500Y157150D03*
X642100Y131750D03*
X667500Y131750D03*
X642100Y106350D03*
X667500Y106350D03*
X642100Y80950D03*
X667500Y80950D03*
X642100Y55550D03*
X667500Y55550D03*
X642100Y30150D03*
X667500Y30150D03*
D16*
X591300Y513000D03*
X108700Y525700D03*
X438900Y5000D03*
D10*
X282600Y114300D03*
X301600Y114300D03*
X333400Y114300D03*
X352400Y114300D03*
X384200Y114300D03*
X403200Y114300D03*
M02*
